<svg height="100" viewBox="0 0 50 50" width="100" xmlns="http://www.w3.org/2000/svg"><path d="m25 2c-12.690466 0-23 10.309534-23 23s10.309534 23 23 23 23-10.309534 23-23-10.309534-23-23-23zm0 2c11.609534 0 21 9.390466 21 21s-9.390466 21-21 21-21-9.390466-21-21 9.390466-21 21-21zm7.990234 11.986328a1.0001 1.0001 0 0 0 -.697265.306641l-7.292969 7.292969-7.292969-7.292969a1.0001 1.0001 0 0 0 -.716797-.302735 1.0001 1.0001 0 0 0 -.697265 1.716797l7.292969 7.292969-7.292969 7.292969a1.0001 1.0001 0 1 0 1.414062 1.414062l7.292969-7.292969 7.292969 7.292969a1.0001 1.0001 0 1 0 1.414062-1.414062l-7.292969-7.292969 7.292969-7.292969a1.0001 1.0001 0 0 0 -.716797-1.720703z"/></svg>