<?xml version="1.0" encoding="UTF-8"?>
<svg id="Layer_2" data-name="Layer 2" xmlns="http://www.w3.org/2000/svg" viewBox="0 0 31.93 33.77">
  <defs>
    <style>
      .cls-1 {
        fill: #d0d2d3;
      }

      .cls-1, .cls-2, .cls-3, .cls-4 {
        fill-rule: evenodd;
        stroke-width: 0px;
      }

      .cls-2 {
        fill: #f48366;
      }

      .cls-3 {
        fill: #fff;
      }

      .cls-4 {
        fill: #f395be;
      }
    </style>
  </defs>
  <g id="Layer_1-2" data-name="Layer 1">
    <g>
      <path class="cls-4" d="M18.77.06v.69c-.66-.31-1.46-.08-1.87.53C8.21,1.64,1.21,8.86,1.21,17.64v16.13H0v-16.13C0,7.97,7.91.06,17.58.06h1.19Z"/>
      <path class="cls-2" d="M22.02,33.77v-3.74h4.25c1.68,0,3.05-1.37,3.05-3.05v-.76h-4.4c-1.57,0-2.85-1.28-2.85-2.85s1.28-2.85,2.85-2.85h4.4v-2.1h1.41c.92,0,1.42-1.01,1.1-1.81l-3.44-8.56C27,3.4,22.69,0,17.58,0,11.35,0,6.3,5.05,6.3,11.28c0,3.08,1.23,5.87,3.23,7.9v14.59h1.21v-15.08l-.35-.35c-1.86-1.89-2.88-4.41-2.88-7.05C7.51,5.72,12.02,1.21,17.58,1.21c4.45,0,8.38,2.93,9.65,7.19l.02.05,3.46,8.61s.01.11,0,.15h-2.59v2.1h-3.19c-2.23,0-4.06,1.82-4.06,4.06s1.82,4.06,4.06,4.06h3.13c-.2.8-.93,1.4-1.79,1.4h-5.46v4.94h1.21Z"/>
      <path class="cls-1" d="M16.63,10.23h0c0-.53.43-.96.96-.96h9.82v-2.35c0-.53.43-.96.96-.96h0c.53,0,.96.43.96.96v6.61c0,.53-.43.96-.96.96h0c-.53,0-.96-.43-.96-.96v-2.35h-9.82c-.53,0-.96-.43-.96-.96h0Z"/>
      <path class="cls-3" d="M29.33,22.71h-5.97c-.36,0-.66.3-.66.66h0c0,.36.3.66.66.66h5.97v-1.32h0Z"/>
      <polygon class="cls-2" points="29.33 19.2 28.15 19.2 28.15 26.71 29.33 26.71 29.33 19.2 29.33 19.2"/>
    </g>
  </g>
</svg>