<?xml version="1.0" encoding="UTF-8"?>
<svg id="Layer_2" data-name="Layer 2" xmlns="http://www.w3.org/2000/svg" viewBox="0 0 32.12 35.84">
  <defs>
    <style>
      .cls-1 {
        fill: #a48980;
      }

      .cls-1, .cls-2, .cls-3, .cls-4, .cls-5 {
        fill-rule: evenodd;
        stroke-width: 0px;
      }

      .cls-2 {
        fill: #fdc157;
      }

      .cls-3 {
        fill: #fff;
      }

      .cls-4 {
        fill: #f05643;
      }

      .cls-5 {
        fill: #f9fcff;
      }
    </style>
  </defs>
  <g id="Layer_1-2" data-name="Layer 1">
    <g>
      <path class="cls-5" d="M5.03,10.14h5.23c.15.48.54.88,1.06,1.01l.1.02h.01c.14.06.3.1.46.11.1.02.19.03.3.03l.1.03h-7.26c-2.1,0-3.83,1.72-3.83,3.83,0,1.78,1.23,3.28,2.88,3.71-.17.39-.16.85.02,1.24-2.33-.44-4.11-2.5-4.11-4.95,0-2.77,2.26-5.03,5.03-5.03h0ZM27.62,18.97c1.85-.26,3.29-1.87,3.29-3.79,0-2.1-1.72-3.83-3.83-3.83h-6.77c.07-.02.15-.04.22-.06.09,0,.19-.01.28-.03h.16c.69,0,1.28-.47,1.44-1.12h4.67c2.77,0,5.04,2.27,5.04,5.03,0,2.56-1.93,4.68-4.41,4.99.14-.39.11-.84-.09-1.21h0Z"/>
      <path class="cls-2" d="M23.09,25.74c-.08,3.8-3.21,6.89-7.03,6.89s-6.95-3.08-7.03-6.89c-3.11-1.34-5.2-4.43-5.2-7.89v-4.98c-.01-.21-.02-.42-.02-.63C3.81,5.51,9.32,0,16.06,0s12.25,5.51,12.25,12.25c0,.21,0,.42-.02.63v4.98c0,3.45-2.09,6.54-5.2,7.89h0ZM21.88,24.9v.7c0,3.2-2.62,5.82-5.82,5.82s-5.82-2.62-5.82-5.82v-.7c-3-.93-5.2-3.75-5.2-7.05v-5.01c-.01-.2-.02-.4-.02-.6h0C5.02,6.18,9.99,1.21,16.06,1.21h0c6.07,0,11.04,4.97,11.04,11.04h0c0,.2,0,.4-.02.59v5.01c0,3.3-2.2,6.11-5.2,7.05h0Z"/>
      <path class="cls-3" d="M27.06,11.35c-.03-.41-.09-.81-.17-1.21h-5.41c-2.51,0-4.56,2.05-4.56,4.56v7.05h1.21v-7.05c0-1.84,1.51-3.35,3.35-3.35h5.58ZM5.22,10.14c-.08.4-.13.8-.17,1.21h5.58c1.84,0,3.35,1.51,3.35,3.35v7.05h1.21v-7.05c0-2.51-2.05-4.56-4.56-4.56h-5.41Z"/>
      <path class="cls-1" d="M8.26,13.19h3.8c.43,0,.79.36.79.79h0c0,.43-.35.79-.79.79h-3.8c-.43,0-.79-.35-.79-.79h0c0-.43.35-.79.79-.79h0Z"/>
      <path class="cls-1" d="M20.06,13.19h3.8c.43,0,.79.36.79.79h0c0,.43-.35.79-.79.79h-3.8c-.43,0-.79-.35-.79-.79h0c0-.43.35-.79.79-.79h0Z"/>
      <path class="cls-3" d="M21.63,35.84v-9.75c0-1.97-1.62-3.59-3.59-3.59h-3.97c-1.97,0-3.59,1.62-3.59,3.59v9.75h-1.47v-9.75c0-2.79,2.27-5.06,5.06-5.06h3.97c2.79,0,5.06,2.28,5.06,5.06v9.75h-1.47Z"/>
      <path class="cls-4" d="M14.23,25.83h3.66c.49,0,.89.4.89.89h0c0,.49-.4.89-.89.89h-3.66c-.49,0-.89-.4-.89-.89h0c0-.49.4-.89.89-.89h0Z"/>
    </g>
  </g>
</svg>