<?xml version="1.0" encoding="UTF-8"?>
<svg id="Layer_2" data-name="Layer 2" xmlns="http://www.w3.org/2000/svg" viewBox="0 0 28.15 34.54">
  <defs>
    <style>
      .cls-1 {
        fill: #7c51a0;
      }

      .cls-1, .cls-2, .cls-3, .cls-4 {
        fill-rule: evenodd;
        stroke-width: 0px;
      }

      .cls-2 {
        fill: #fff;
      }

      .cls-3 {
        fill: #f398c0;
      }

      .cls-4 {
        fill: #f38480;
      }
    </style>
  </defs>
  <g id="Layer_1-2" data-name="Layer 1">
    <g>
      <path class="cls-3" d="M24.53,8.9l3.44,8.54c.64,1.6-.44,3.48-2.22,3.48h-.21v4.39c0,2.22-1.71,4.05-3.87,4.25v4.98h-1.21v-6.17h.81c1.69,0,3.06-1.38,3.06-3.06v-5.6h1.42c.92,0,1.43-1.02,1.1-1.82h0l-3.46-8.59c-1.39-4.68-5.72-8.09-10.85-8.09C6.28,1.21,1.21,6.28,1.21,12.53c0,3.09,1.24,5.89,3.24,7.93v14.07h-1.21v-13.59C1.15,18.64,0,15.66,0,12.53,0,5.61,5.61,0,12.53,0c5.53,0,10.4,3.62,12,8.9h0Z"/>
      <path class="cls-1" d="M24.53,8.9l2.87,7.13h-15.33V7.85h12.12l.27.84c.02.07.05.14.07.21h0ZM23.39,9.3l2.22,5.52h-12.33v-5.76h10.04c.03.08.05.16.07.24h0Z"/>
      <path class="cls-2" d="M23.15,22.2h0c-.21,0-.39.17-.39.39v1.6c0,.21.17.39.39.39h0c.21,0,.39-.17.39-.39v-1.6c0-.21-.17-.39-.39-.39h0Z"/>
      <path class="cls-2" d="M21.89,22h0c-.2-.07-.42.05-.49.25l-.49,1.52c-.07.2.05.42.25.49h0c.2.07.42-.05.49-.25l.49-1.52c.07-.2-.05-.42-.25-.49h0Z"/>
      <path class="cls-2" d="M20.76,21.43h0c-.17-.13-.41-.09-.54.08l-.94,1.29c-.12.17-.09.41.09.54h0c.17.13.41.09.54-.08l.94-1.29c.12-.17.09-.41-.08-.54h0Z"/>
      <path class="cls-2" d="M19.86,20.53h0c-.12-.17-.37-.21-.54-.09l-1.29.94c-.17.12-.21.37-.09.54h0c.12.17.37.21.54.08l1.29-.94c.17-.12.21-.37.09-.54h0Z"/>
      <path class="cls-4" d="M19.72,10.78c1.35,0,2.52.51,3.15,1.26-.63.75-1.81,1.26-3.15,1.26s-2.52-.51-3.15-1.26c.63-.75,1.81-1.26,3.15-1.26h0Z"/>
    </g>
  </g>
</svg>