<?xml version="1.0" encoding="UTF-8"?>
<svg id="Layer_2" data-name="Layer 2" xmlns="http://www.w3.org/2000/svg" viewBox="0 0 32.12 34.43">
  <defs>
    <style>
      .cls-1 {
        fill: #a5ce53;
      }

      .cls-1, .cls-2, .cls-3, .cls-4, .cls-5, .cls-6 {
        fill-rule: evenodd;
        stroke-width: 0px;
      }

      .cls-2 {
        fill: #bc8f8e;
      }

      .cls-3 {
        fill: #e7aa22;
      }

      .cls-4 {
        fill: #f05643;
      }

      .cls-5 {
        fill: #7d464b;
      }

      .cls-6 {
        fill: #f9fcff;
      }
    </style>
  </defs>
  <g id="Layer_1-2" data-name="Layer 1">
    <g>
      <path class="cls-6" d="M25.05,24.01v10.42h-1.21v-9.98c.45.04.89-.12,1.21-.44h0ZM8.28,24.51v9.91h-1.21v-10.69c.08.14.17.24.29.35.24.24.56.4.92.43h0Z"/>
      <path class="cls-1" d="M27.14,8.94c2.75.03,4.98,2.29,4.98,5.03,0,2.48-1.81,4.55-4.18,4.96.05-.15.08-.32.08-.49v-.64.02s0-.1.02-.14c1.68-.44,2.87-1.97,2.87-3.7,0-1.92-1.44-3.53-3.29-3.79,0-.04-.02-.08-.03-.12,0-.17-.04-.34-.11-.5-.06-.23-.18-.45-.33-.62h0ZM4.69,18.99c-2.63-.18-4.69-2.39-4.69-5.02s2.19-4.96,4.9-5.03c-.25.35-.34.8-.24,1.23-1.95.19-3.45,1.85-3.45,3.81s1.37,3.45,3.16,3.77c0,.26.03.46.14.7.02.2.09.39.18.55h0Z"/>
      <path class="cls-3" d="M23.09,25.74c-.08,3.8-3.21,6.89-7.03,6.89s-6.95-3.08-7.03-6.89c-3.11-1.34-5.2-4.43-5.2-7.89v-4.98c-.01-.21-.02-.42-.02-.63C3.81,5.51,9.32,0,16.06,0s12.25,5.51,12.25,12.25c0,.21,0,.42-.02.63v4.98c0,3.45-2.09,6.55-5.2,7.89h0ZM21.88,24.9v.7c0,3.2-2.62,5.82-5.82,5.82h0c-3.2,0-5.82-2.62-5.82-5.82v-.7c-3-.94-5.2-3.75-5.2-7.05v-5.01c-.01-.2-.02-.4-.02-.6h0C5.02,6.17,9.99,1.21,16.06,1.21h0c6.07,0,11.04,4.97,11.04,11.04h0c0,.2,0,.4-.02.6v5.01c0,3.3-2.2,6.11-5.2,7.05h0Z"/>
      <path class="cls-4" d="M14.23,25.83h3.66c.49,0,.89.4.89.89h0c0,.49-.4.89-.89.89h-3.66c-.49,0-.89-.4-.89-.89h0c0-.49.4-.89.89-.89h0Z"/>
      <path class="cls-2" d="M19.1,21.71h0c0-.33-.27-.6-.61-.6h-4.88c-.33,0-.6.27-.6.6h0c0,.33.27.6.6.6h4.88c.33,0,.61-.27.61-.6h0Z"/>
      <path class="cls-5" d="M14.51,13.52v1.35h-2.68c-1.47,0-2.68-1.2-2.68-2.68v-1.35h2.68c1.47,0,2.68,1.2,2.68,2.68h0Z"/>
      <path class="cls-5" d="M17.61,13.52v1.35h2.68c1.47,0,2.68-1.2,2.68-2.68v-1.35h-2.68c-1.47,0-2.68,1.2-2.68,2.68h0Z"/>
      <path class="cls-2" d="M27.06,11.35c-.03-.41-.09-.81-.17-1.21h-5.41c-2.51,0-4.56,2.05-4.56,4.56v7.05h1.21v-7.05c0-1.84,1.51-3.35,3.35-3.35h5.58ZM5.23,10.14c-.08.4-.13.8-.17,1.21h5.58c1.84,0,3.35,1.51,3.35,3.35v7.05h1.21v-7.05c0-2.51-2.05-4.56-4.56-4.56h-5.41Z"/>
    </g>
  </g>
</svg>