<?xml version="1.0" encoding="UTF-8"?>
<svg id="Layer_2" data-name="Layer 2" xmlns="http://www.w3.org/2000/svg" viewBox="0 0 34.3 34.82">
  <defs>
    <style>
      .cls-1 {
        fill: #b085b7;
      }

      .cls-1, .cls-2, .cls-3, .cls-4, .cls-5 {
        fill-rule: evenodd;
        stroke-width: 0px;
      }

      .cls-2 {
        fill: #fdc058;
      }

      .cls-3 {
        fill: #f05643;
      }

      .cls-4 {
        fill: #bba891;
      }

      .cls-5 {
        fill: #8dd7f7;
      }
    </style>
  </defs>
  <g id="Layer_1-2" data-name="Layer 1">
    <g>
      <path class="cls-5" d="M3.61,10.21h.58c-.35.31-.53.74-.5,1.21h-.08c-1.32,0-2.4,1.08-2.4,2.4v3.55c0,1.32,1.08,2.4,2.4,2.4h.83c-.05.43.05.87.34,1.21h-1.17c-1.99,0-3.61-1.62-3.61-3.61v-3.55c0-1.99,1.62-3.61,3.61-3.61h0ZM21.06,19.77l.07.06-.07-.06h0ZM30.04,19.77h.65c1.32,0,2.4-1.08,2.4-2.4v-3.55c0-1.32-1.08-2.4-2.4-2.4h-.04s-.02-.07-.03-.1c0-.1-.03-.2-.06-.29-.01-.3-.11-.58-.28-.81h.41c1.99,0,3.61,1.62,3.61,3.61v3.55c0,1.99-1.62,3.61-3.61,3.61h-1.59c.06-.06.12-.13.18-.2.16-.12.29-.26.39-.43.17-.16.3-.36.37-.58h0Z"/>
      <path class="cls-3" d="M27.54,24.11v10.71h-1.21v-11.21c2.41-2.37,3.91-5.67,3.91-9.32,0-7.23-5.86-13.08-13.08-13.08S4.07,7.07,4.07,14.29c0,3.65,1.5,6.95,3.91,9.32v11.21h-1.21v-10.71c-2.51-2.65-3.91-6.15-3.91-9.82C2.86,6.4,9.26,0,17.15,0s14.29,6.4,14.29,14.29c0,3.67-1.4,7.16-3.91,9.82h0Z"/>
      <path class="cls-2" d="M9.3,21.15c-.75-.86-1.35-1.83-1.78-2.88l-.52-1.26,6.79-1.86c.6-.16,1.56-.52,1.56-1.28,0-.68-.56-1.24-1.24-1.24h-7.37l.53-1.59c1.41-4.25,5.39-7.13,9.88-7.13s8.47,2.88,9.88,7.13l.53,1.59h-7.37c-.68,0-1.24.56-1.24,1.24,0,.76.95,1.12,1.56,1.28l6.79,1.86-.52,1.26c-.43,1.05-1.03,2.02-1.78,2.88v4.41c0,4.32-3.53,7.85-7.85,7.85s-7.85-3.53-7.85-7.85v-4.41h0ZM10.51,20.68c-.79-.83-1.43-1.8-1.87-2.87l5.47-1.5c1.3-.35,2.45-1.1,2.45-2.45h0c0-1.35-1.1-2.45-2.45-2.45h-5.69c1.21-3.66,4.67-6.3,8.73-6.3s7.52,2.64,8.73,6.3h-5.69c-1.34,0-2.45,1.1-2.45,2.45h0c0,1.35,1.15,2.09,2.45,2.45l5.47,1.5c-.44,1.07-1.08,2.05-1.87,2.87v4.88c0,3.65-2.99,6.64-6.64,6.64s-6.64-2.99-6.64-6.64v-4.88h0Z"/>
      <path class="cls-1" d="M21.49,26.63c-1.36.48-2.82.74-4.34.74s-2.98-.26-4.34-.74v-1.54c1.34.54,2.81.84,4.34.84s3-.3,4.34-.84v1.54h0Z"/>
      <polygon class="cls-4" points="18.73 21.39 15.57 21.39 17.15 17.6 18.73 21.39 18.73 21.39"/>
    </g>
  </g>
</svg>