<?xml version="1.0" encoding="UTF-8"?>
<svg id="Layer_2" data-name="Layer 2" xmlns="http://www.w3.org/2000/svg" viewBox="0 0 31.52 34.87">
  <defs>
    <style>
      .cls-1 {
        fill: #a3ddf8;
      }

      .cls-1, .cls-2, .cls-3, .cls-4, .cls-5, .cls-6, .cls-7 {
        fill-rule: evenodd;
        stroke-width: 0px;
      }

      .cls-2 {
        fill: #af2c1a;
      }

      .cls-3 {
        fill: #ef5b72;
      }

      .cls-4 {
        fill: #fdc058;
      }

      .cls-5 {
        fill: #f05643;
      }

      .cls-6 {
        fill: #c29bc8;
      }

      .cls-7 {
        fill: #f8a98e;
      }
    </style>
  </defs>
  <g id="Layer_1-2" data-name="Layer 1">
    <g>
      <path class="cls-6" d="M24.58,18.62V4.15c0-1.62-1.32-2.94-2.94-2.94s-2.94,1.32-2.94,2.94v.96c0,1.62-1.32,2.94-2.94,2.94s-2.94-1.32-2.94-2.94v-.96c0-1.62-1.32-2.94-2.94-2.94s-2.94,1.32-2.94,2.94v14.09c-.31.02-.56.12-.79.3-.11.03-.21.07-.31.13-.04.01-.07.02-.11.03V4.15C5.71,1.87,7.57,0,9.86,0s4.15,1.87,4.15,4.15v.96c0,.95.78,1.74,1.74,1.74s1.73-.78,1.73-1.74v-.96c0-2.29,1.87-4.15,4.15-4.15s4.15,1.87,4.15,4.15v14.34c-.2,0-.37,0-.57.06h-.19c-.15,0-.3.02-.44.07h0Z"/>
      <path class="cls-5" d="M9.86,5.17h0c.46,0,.84.38.84.84v4.38h-1.68v-4.38c0-.46.38-.84.84-.84h0Z"/>
      <path class="cls-5" d="M21.64,5.17h0c.46,0,.84.38.84.84v4.38h-1.68v-4.38c0-.46.38-.84.84-.84h0Z"/>
      <path class="cls-3" d="M3.88,19h2.46c-.18.34-.24.75-.17,1.15h-2.29v-1.15h0ZM25.07,19h2.56v1.15h-2.45c.09-.38.05-.8-.11-1.15h0Z"/>
      <path class="cls-1" d="M2.37,17.2c1.31,0,2.37,1.06,2.37,2.37s-1.06,2.37-2.37,2.37-2.37-1.06-2.37-2.37,1.06-2.37,2.37-2.37h0ZM2.37,18.41c-.64,0-1.16.52-1.16,1.16s.52,1.16,1.16,1.16,1.16-.52,1.16-1.16-.52-1.16-1.16-1.16h0Z"/>
      <path class="cls-1" d="M29.15,17.2c1.31,0,2.37,1.06,2.37,2.37s-1.06,2.37-2.37,2.37-2.37-1.06-2.37-2.37,1.06-2.37,2.37-2.37h0ZM29.15,18.41c-.64,0-1.16.52-1.16,1.16s.52,1.16,1.16,1.16,1.16-.52,1.16-1.16-.52-1.16-1.16-1.16h0Z"/>
      <path class="cls-5" d="M9.73,34.87v-6.17c.32.36.74.51,1.21.5v5.68h-1.21ZM21.78,28.58v6.29h-1.21v-5.64c.5,0,.94-.26,1.21-.65h0Z"/>
      <path class="cls-4" d="M15.75,7.53c5.53,0,10.05,4.52,10.05,10.05v3.66c0,5.53-4.52,10.05-10.05,10.05s-10.05-4.52-10.05-10.05v-3.66c0-5.53,4.52-10.05,10.05-10.05h0ZM15.75,8.74h0c-4.86,0-8.84,3.98-8.84,8.84v3.66c0,4.86,3.98,8.84,8.84,8.84h0c4.86,0,8.84-3.98,8.84-8.84v-3.66c0-4.86-3.98-8.84-8.84-8.84h0Z"/>
      <path class="cls-2" d="M19.59,14.82c-1.91,0-3.45,1.55-3.45,3.45s1.55,3.45,3.45,3.45,3.45-1.55,3.45-3.45-1.55-3.45-3.45-3.45h0ZM19.59,16.03c-1.24,0-2.25,1-2.25,2.24s1.01,2.25,2.25,2.25,2.25-1,2.25-2.25-1-2.24-2.25-2.24h0Z"/>
      <path class="cls-2" d="M11.92,14.82c-1.91,0-3.45,1.55-3.45,3.45s1.55,3.45,3.45,3.45,3.45-1.55,3.45-3.45-1.55-3.45-3.45-3.45h0ZM11.92,16.03c-1.24,0-2.24,1-2.24,2.24s1,2.25,2.24,2.25,2.25-1,2.25-2.25-1-2.24-2.25-2.24h0Z"/>
      <path class="cls-7" d="M17.97,25.39h-4.43c-.74,0-1.34.6-1.34,1.34h0c0,.74.6,1.34,1.34,1.34h4.43c.74,0,1.34-.6,1.34-1.34h0c0-.74-.6-1.34-1.34-1.34h0Z"/>
    </g>
  </g>
</svg>