<?xml version="1.0" encoding="UTF-8"?>
<svg id="Layer_2" data-name="Layer 2" xmlns="http://www.w3.org/2000/svg" viewBox="0 0 25.93 34.28">
  <defs>
    <style>
      .cls-1 {
        fill: #dc3555;
      }

      .cls-1, .cls-2, .cls-3, .cls-4, .cls-5 {
        fill-rule: evenodd;
        stroke-width: 0px;
      }

      .cls-2 {
        fill: #f48120;
      }

      .cls-3 {
        fill: #f05643;
      }

      .cls-4 {
        fill: #c29bc8;
      }

      .cls-5 {
        fill: #f8d38d;
      }
    </style>
  </defs>
  <g id="Layer_1-2" data-name="Layer 1">
    <g>
      <path class="cls-2" d="M7.66,34.28h-.99v-6.13l.15.16c.25.28.53.53.81.77l.03.03v5.17h0ZM19.26,34.28h-.99v-5.17l.03-.03c.29-.24.56-.5.81-.77l.15-.16v6.13h0Z"/>
      <path class="cls-3" d="M24.94,19.67v-6.7C24.94,6.38,19.55.99,12.97.99S.99,6.38.99,12.97v6.7h4.44v.99H0v-7.69C0,5.83,5.83,0,12.97,0s12.97,5.83,12.97,12.97v7.69h-5.43v-.99h4.44Z"/>
      <path class="cls-4" d="M12.97,3.75c4.69,0,8.52,3.83,8.52,8.52v.37h-.99v-.37c0-4.14-3.39-7.53-7.53-7.53s-7.53,3.39-7.53,7.53v.37h-.99v-.37c0-4.69,3.83-8.52,8.52-8.52h0ZM21.49,15.13v7.54c0,4.69-3.83,8.52-8.52,8.52s-8.52-3.83-8.52-8.52v-7.54h.99v7.54c0,4.14,3.39,7.53,7.53,7.53s7.53-3.39,7.53-7.53v-7.54h.99Z"/>
      <path class="cls-5" d="M1.9,11.65h22.13v4.47H1.9v-4.47h0ZM2.89,12.64v2.49h20.14v-2.49H2.89Z"/>
      <polygon class="cls-5" points="12.47 11.88 13.46 11.88 13.46 15.9 12.47 15.9 12.47 11.88 12.47 11.88"/>
      <path class="cls-1" d="M18.48,21.02v.5c-.02,3.04-2.5,5.5-5.54,5.48-3.04-.02-5.5-2.5-5.48-5.54v-.5s1.01,0,1.01,0v.5c-.02,2.49,1.99,4.52,4.48,4.53,2.49.01,4.52-1.99,4.53-4.48v-.5s1.01,0,1.01,0h0Z"/>
    </g>
  </g>
</svg>