<?xml version="1.0" encoding="UTF-8"?>
<svg id="Layer_2" data-name="Layer 2" xmlns="http://www.w3.org/2000/svg" viewBox="0 0 25.1 37.66">
  <defs>
    <style>
      .cls-1 {
        fill: #e5e6e7;
      }

      .cls-1, .cls-2, .cls-3, .cls-4, .cls-5 {
        fill-rule: evenodd;
        stroke-width: 0px;
      }

      .cls-2 {
        fill: #fdc157;
      }

      .cls-3 {
        fill: #f48366;
      }

      .cls-4 {
        fill: #f48120;
      }

      .cls-5 {
        fill: #fcf8cd;
      }
    </style>
  </defs>
  <g id="Layer_1-2" data-name="Layer 1">
    <g>
      <path class="cls-4" d="M5.28,15.21l1.87-11.45,2.3,6.61L12.5,0l3.05,10.38,2.3-6.61,2.14,11.69c-1.63-2.37-4.36-3.93-7.44-3.93h0c-2.97,0-5.62,1.45-7.27,3.68h0ZM6.92,12.99c.53-.46,1.08-.89,1.66-1.26l-.99-2.84-.67,4.1h0ZM10.67,10.71c.6-.19,1.23-.3,1.88-.3.61,0,1.2.09,1.77.26l-1.82-6.19-1.83,6.23h0ZM16.44,11.65c.63.39,1.24.86,1.81,1.36l-.79-4.31-1.02,2.95h0Z"/>
      <path class="cls-2" d="M12.55,10.27c5.67,0,10.3,4.63,10.3,10.3v6.79c0,5.67-4.63,10.3-10.3,10.3s-10.3-4.63-10.3-10.3v-6.79c0-5.67,4.63-10.3,10.3-10.3h0ZM12.55,11.53h0c4.97,0,9.04,4.07,9.04,9.04v6.79c0,4.97-4.07,9.04-9.04,9.04h0c-4.97,0-9.04-4.07-9.04-9.04v-6.79c0-4.97,4.07-9.04,9.04-9.04h0Z"/>
      <path class="cls-1" d="M18.73,19.43h4.77c.88,0,1.6.72,1.6,1.6h0c0,.88-.72,1.6-1.6,1.6h-4.77c.36-.43.58-.99.58-1.6s-.22-1.16-.58-1.6h0ZM14.76,22.46c-.53-.26-.9-.81-.9-1.43h0c0-.63.37-1.17.9-1.43-.28.41-.45.9-.45,1.43s.17,1.03.45,1.43h0Z"/>
      <path class="cls-1" d="M6.37,19.43H1.6c-.88,0-1.6.72-1.6,1.6h0c0,.88.72,1.6,1.6,1.6h4.77c-.36-.43-.58-.99-.58-1.6s.22-1.16.58-1.6h0ZM10.34,22.46c.53-.26.9-.81.9-1.43h0c0-.63-.37-1.17-.9-1.43.29.41.45.9.45,1.43s-.17,1.03-.45,1.43h0Z"/>
      <path class="cls-3" d="M8.29,17.14c-2.15,0-3.89,1.74-3.89,3.88s1.74,3.89,3.89,3.89,3.89-1.74,3.89-3.89-1.74-3.88-3.89-3.88h0ZM8.29,18.53c-1.38,0-2.5,1.12-2.5,2.5s1.12,2.5,2.5,2.5,2.5-1.12,2.5-2.5-1.12-2.5-2.5-2.5h0Z"/>
      <path class="cls-3" d="M16.81,17.14c-2.15,0-3.89,1.74-3.89,3.88s1.74,3.89,3.89,3.89,3.89-1.74,3.89-3.89-1.74-3.88-3.89-3.88h0ZM16.81,18.53c-1.38,0-2.5,1.12-2.5,2.5s1.12,2.5,2.5,2.5,2.5-1.12,2.5-2.5-1.12-2.5-2.5-2.5h0Z"/>
      <path class="cls-5" d="M16.82,20.51c.77,0,1.4.63,1.4,1.4s-.63,1.4-1.4,1.4-1.4-.63-1.4-1.4.63-1.4,1.4-1.4h0Z"/>
      <path class="cls-4" d="M20.19,26.44c0,4.21-3.44,7.64-7.64,7.64s-7.64-3.44-7.64-7.64v-.63h1.26v.63c0,3.51,2.87,6.38,6.38,6.38s6.38-2.87,6.38-6.38v-.63h1.26v.63h0Z"/>
      <path class="cls-5" d="M8.76,19.11c.77,0,1.4.63,1.4,1.4s-.63,1.4-1.4,1.4-1.4-.63-1.4-1.4.63-1.4,1.4-1.4h0Z"/>
    </g>
  </g>
</svg>