<?xml version="1.0" encoding="UTF-8"?>
<svg id="Layer_2" data-name="Layer 2" xmlns="http://www.w3.org/2000/svg" viewBox="0 0 26.38 35.13">
  <defs>
    <style>
      .cls-1 {
        fill: #dc3555;
      }

      .cls-1, .cls-2, .cls-3, .cls-4, .cls-5, .cls-6 {
        fill-rule: evenodd;
        stroke-width: 0px;
      }

      .cls-2 {
        fill: #c980a0;
      }

      .cls-3 {
        fill: #ef5b72;
      }

      .cls-4 {
        fill: #fbd2c0;
      }

      .cls-5 {
        fill: #f9a744;
      }

      .cls-6 {
        fill: #f7aaac;
      }
    </style>
  </defs>
  <g id="Layer_1-2" data-name="Layer 1">
    <g>
      <path class="cls-5" d="M20.8,27.11v8.02h-1.21v-7.61c.45.03.87-.09,1.21-.41h0ZM6.79,35.13h-1.21v-8.36c.19.51.67.91,1.21.99v7.37h0Z"/>
      <path class="cls-4" d="M13.19,0c-.66,0-1.2.54-1.2,1.2v2.02c.26-.21.59-.34.94-.34.17,0,.32,0,.5.04.05,0,.1.01.15.02.26,0,.55-.02.8.04v-1.78c0-.66-.54-1.2-1.2-1.2h0Z"/>
      <path class="cls-4" d="M26.32,9.37c-.2-.63-.88-.97-1.51-.77l-1.91.62c.15.13.3.3.4.47.21.27.35.63.35.98,0,.29.02.57-.07.85l1.97-.64c.63-.2.97-.88.77-1.51h0Z"/>
      <path class="cls-4" d="M.06,9.37c-.2.63.14,1.3.77,1.51l1.94.63c.14-.21.33-.37.55-.49,0-.03,0-.07,0-.1v-.59c0-.4.15-.76.41-1.02l-2.16-.7c-.63-.2-1.3.14-1.51.77H.06ZM6.32,10.46h0c.07,0,.15,0,.22-.01.1-.02.19-.03.29-.03-.16-.15-.31-.21-.52-.28.01.11.01.21,0,.32h0Z"/>
      <path class="cls-4" d="M20.95,2.58c-.53-.39-1.28-.27-1.67.26l-1.27,1.75c.1,0,.21.01.31.03.19.01.36.06.53.14.21.07.43.2.59.35.27.19.48.47.58.8l1.2-1.65c.39-.53.27-1.28-.26-1.67h0Z"/>
      <path class="cls-4" d="M5.43,2.58c-.53.39-.65,1.14-.26,1.67l1.01,1.39c.18-.33.54-.63.89-.76l.02-.02c.07-.07.14-.13.22-.19.22-.22.52-.36.82-.43l-1.02-1.4c-.39-.53-1.14-.65-1.67-.26h0Z"/>
      <path class="cls-2" d="M13.19,2.23c5.37,0,9.9,3.78,11.05,8.81-.34-.39-.87-.58-1.38-.49-1.32-4.21-5.25-7.12-9.67-7.12S4.66,6.57,3.45,10.81c-.13.03-.23.07-.36.11-.3.06-.66.25-.88.47-.06.06-.12.13-.18.2C2.98,6.28,7.63,2.23,13.19,2.23h0ZM3.08,19.93c.31,5.3,4.74,9.54,10.11,9.54s9.94-4.37,10.12-9.79c.5,0,.9-.24,1.22-.61v.27c0,6.24-5.1,11.33-11.33,11.33S1.86,25.58,1.86,19.34c.09.1.18.18.29.25.25.21.58.34.94.35h0ZM24.18,15.02l.34.17v.08c-.1-.1-.22-.18-.34-.25h0Z"/>
      <path class="cls-4" d="M23.31,19.59v10.62c0,.56.46,1.03,1.03,1.03s1.03-.46,1.03-1.03v-12.44c-.03.05-.05.11-.08.16-.11.25-.29.46-.5.61h-.02c-.04.09-.09.15-.14.22-.09.16-.2.27-.32.39-.27.27-.62.42-.98.44h0Z"/>
      <path class="cls-4" d="M1.02,17.52v12.69c0,.56.46,1.03,1.03,1.03s1.03-.46,1.03-1.03v-9.98c-.41-.07-.79-.32-1.03-.67-.17-.14-.32-.35-.43-.55-.08-.11-.14-.23-.18-.37-.05-.09-.07-.18-.12-.27-.11-.2-.17-.46-.24-.69-.02-.06-.04-.11-.06-.17h0Z"/>
      <path class="cls-3" d="M16.28,22.95h-6.19c-.57,0-1.03.46-1.03,1.03h0c0,.57.46,1.03,1.03,1.03h6.19c.57,0,1.03-.46,1.03-1.03h0c0-.57-.46-1.03-1.03-1.03h0Z"/>
      <path class="cls-1" d="M13.19,18.44c-.59,1.49-2.05,2.55-3.75,2.55h-4.83c-2.22,0-4.04-1.81-4.04-4.04v-3.2c0-2.22,1.81-4.03,4.04-4.03,5.72,0,11.44,0,17.16,0,2.22,0,4.03,1.81,4.03,4.03v3.2c0,2.22-1.81,4.04-4.03,4.04h-4.83c-1.69,0-3.15-1.06-3.75-2.54h0ZM21.77,10.92c1.55,0,2.83,1.27,2.83,2.83v3.2c0,1.55-1.27,2.83-2.83,2.83h-4.83c-1.55,0-2.83-1.27-2.83-2.83v-2.88c0-.51-.42-.93-.92-.93h0c-.51,0-.92.42-.92.93v2.89c0,1.55-1.27,2.83-2.83,2.83h-4.83c-1.55,0-2.83-1.27-2.83-2.83v-3.2c0-1.55,1.27-2.83,2.83-2.83,5.72,0,11.44-.01,17.16-.01h0Z"/>
      <path class="cls-6" d="M21.22,14.63h-4.12c-.37,0-.68.3-.68.68h0c0,.37.3.68.68.68h4.12c.37,0,.68-.3.68-.68h0c0-.37-.3-.68-.68-.68h0Z"/>
      <path class="cls-6" d="M9.27,14.63h-4.12c-.37,0-.68.3-.68.68h0c0,.37.3.68.68.68h4.12c.37,0,.68-.3.68-.68h0c0-.37-.3-.68-.68-.68h0Z"/>
    </g>
  </g>
</svg>