<?xml version="1.0" encoding="UTF-8"?>
<svg id="Layer_2" data-name="Layer 2" xmlns="http://www.w3.org/2000/svg" viewBox="0 0 33.31 34.38">
  <defs>
    <style>
      .cls-1 {
        fill: #ffca05;
      }

      .cls-1, .cls-2, .cls-3, .cls-4, .cls-5, .cls-6 {
        fill-rule: evenodd;
        stroke-width: 0px;
      }

      .cls-2 {
        fill: #fff;
      }

      .cls-3 {
        fill: #f38480;
      }

      .cls-4 {
        fill: #f16622;
      }

      .cls-5 {
        fill: #a15641;
      }

      .cls-6 {
        fill: #f8a98e;
      }
    </style>
  </defs>
  <g id="Layer_1-2" data-name="Layer 1">
    <g>
      <path class="cls-5" d="M0,34.38v-.09c0-3.78,2.46-7.01,5.87-8.16v1.24c-2.75,1.1-4.7,3.79-4.7,6.92v.09H0ZM22.21,25.67h0v1.16h0v-1.16h0ZM27.44,26.12c3.4,1.15,5.87,4.38,5.87,8.16v.09h-1.16v-.09c0-3.13-1.95-5.82-4.7-6.92v-1.24h0Z"/>
      <path class="cls-4" d="M12.27,29.94v.14c0,2.09-1.69,3.78-3.78,3.78s-3.78-1.69-3.78-3.78V11.95C4.7,5.38,10.08,0,16.66,0s11.95,5.38,11.95,11.95v18.13c0,2.09-1.69,3.78-3.78,3.78s-3.78-1.69-3.78-3.78v-.14c.68-.27,1.16-.94,1.16-1.72v-8.07h0v9.92h0c0,1.46,1.17,2.63,2.62,2.63s2.62-1.17,2.62-2.62V11.95c0-5.93-4.85-10.79-10.79-10.79h0c-5.93,0-10.79,4.85-10.79,10.79v18.13c0,1.45,1.17,2.62,2.62,2.62s2.62-1.17,2.62-2.62h0v-1.85c0,.77.49,1.44,1.16,1.71h0ZM11.1,12.34v-.06h.26c-.09.02-.18.04-.26.06h0ZM21.95,12.29h.26v.06c-.09-.02-.18-.04-.26-.06h0Z"/>
      <path class="cls-6" d="M23.37,20.97v7.25c0,1.66-1.35,3.02-3.02,3.02h-7.41c-1.66,0-3.02-1.35-3.02-3.02v-7.25c-1.82-.83-3.04-2.67-3.04-4.72,0-2.86,2.34-5.2,5.2-5.2h9.12c2.86,0,5.2,2.34,5.2,5.2,0,2.06-1.22,3.89-3.04,4.72h0ZM21.21,12.22h-9.12c-2.22,0-4.03,1.81-4.03,4.03h0c0,1.87,1.3,3.46,3.04,3.91v8.07c0,1.02.83,1.85,1.85,1.85h7.41c1.02,0,1.85-.83,1.85-1.85v-8.07c1.74-.45,3.04-2.03,3.04-3.91h0c0-2.22-1.81-4.03-4.03-4.03h0Z"/>
      <path class="cls-2" d="M20.31,13.39c-1.66,0-3.01,1.35-3.01,3.01s1.35,3.01,3.01,3.01,3.01-1.35,3.01-3.01-1.35-3.01-3.01-3.01h0ZM20.31,14.5c-1.05,0-1.9.85-1.9,1.9s.85,1.9,1.9,1.9,1.9-.85,1.9-1.9-.85-1.9-1.9-1.9h0Z"/>
      <path class="cls-2" d="M13,13.39c-1.66,0-3.01,1.35-3.01,3.01s1.35,3.01,3.01,3.01,3.01-1.35,3.01-3.01-1.35-3.01-3.01-3.01h0ZM13,14.5c-1.05,0-1.9.85-1.9,1.9s.85,1.9,1.9,1.9,1.9-.85,1.9-1.9-.85-1.9-1.9-1.9h0Z"/>
      <polygon class="cls-2" points="20.31 13.39 13 13.39 13 14.5 20.31 14.5 20.31 13.39 20.31 13.39"/>
      <polygon class="cls-3" points="12.32 24 21 24 21 25.49 12.32 25.49 12.32 24 12.32 24"/>
      <polygon class="cls-1" points="16.66 3.53 17.39 5.8 19.77 5.79 17.84 7.19 18.58 9.45 16.66 8.05 14.73 9.45 15.47 7.19 13.54 5.79 15.92 5.8 16.66 3.53 16.66 3.53"/>
    </g>
  </g>
</svg>