<?xml version="1.0" encoding="UTF-8"?>
<svg id="Layer_2" data-name="Layer 2" xmlns="http://www.w3.org/2000/svg" viewBox="0 0 30.9 33.95">
  <defs>
    <style>
      .cls-1 {
        fill: #6c8bc6;
      }

      .cls-1, .cls-2, .cls-3, .cls-4, .cls-5 {
        fill-rule: evenodd;
        stroke-width: 0px;
      }

      .cls-2 {
        fill: #e14835;
      }

      .cls-3 {
        fill: #ef5b72;
      }

      .cls-4 {
        fill: #ece5f1;
      }

      .cls-5 {
        fill: #80cbb8;
      }
    </style>
  </defs>
  <g id="Layer_1-2" data-name="Layer 1">
    <g>
      <path class="cls-2" d="M3.99,11.65h.4c-.24.35-.32.8-.22,1.21h-.18c-1.53,0-2.78,1.25-2.78,2.78s1.25,2.78,2.78,2.78h1.92c-.13.4-.09.84.12,1.21h-2.04c-2.19,0-3.99-1.79-3.99-3.99s1.79-3.99,3.99-3.99h0ZM25.72,18.42h1.19c1.53,0,2.78-1.25,2.78-2.78s-1.25-2.78-2.78-2.78h-.12c.18-.38.2-.82.04-1.21h.08c2.19,0,3.99,1.79,3.99,3.99s-1.79,3.99-3.99,3.99h-1.65c.34-.32.49-.75.46-1.21h0Z"/>
      <path class="cls-4" d="M8.98,27.72c-.3-1.74-.76-3.42-1.59-4.98-.58-1.1-1.32-2.05-1.99-3.1-1.37-2.15-1.79-4.1-1.79-6.64,0-4.92,2.57-9.75,7.09-11.92,1.49-.72,3.1-1.09,4.75-1.09s3.27.37,4.75,1.09c4.51,2.17,7.08,7,7.08,11.92,0,2.54-.42,4.49-1.79,6.64-.66,1.04-1.39,1.98-1.97,3.07-.82,1.54-1.29,3.2-1.58,4.91-.05.34-.1.68-.15,1.02-.24-.16-.53-.26-.84-.26h-.19l.11.04c-.08-.03-.17-.04-.26-.05l.14-.94c1.44-8.27,5.33-7.31,5.33-14.42,0-6.52-4.76-11.8-10.63-11.8-5.87,0-10.63,5.28-10.63,11.8,0,7.14,3.93,6.14,5.35,14.53l.08.7s-.08.03-.12.05c-.22.06-.42.16-.58.3-.17.09-.32.2-.44.35-.04-.4-.08-.81-.14-1.21h0Z"/>
      <path class="cls-1" d="M4.93,11.32c.05-.36.11-.72.18-1.07h3.76c1.26-.04,2.54.31,3.64,1.1,1.54,1.1,2.4,2.81,2.47,4.57-1.69.5-3.58.24-5.12-.86-1.3-.93-2.11-2.29-2.38-3.74h-2.56Z"/>
      <path class="cls-1" d="M25.79,10.26c.07.35.13.71.18,1.07h-2.56c-.27,1.46-1.08,2.81-2.38,3.74-1.54,1.1-3.43,1.36-5.12.87.07-1.76.93-3.47,2.47-4.57,1.1-.79,2.39-1.15,3.64-1.1h3.76Z"/>
      <path class="cls-3" d="M10.19,18.83c0,2.91,2.36,5.26,5.26,5.26s5.26-2.36,5.26-5.26v-.6h-1.2v.6c0,2.24-1.82,4.06-4.06,4.06-2.24,0-4.06-1.82-4.06-4.06v-.6s-1.2,0-1.2,0v.6h0Z"/>
      <path class="cls-5" d="M1.49,33.95l1.72-1.72c6.91-6.91,18.2-6.91,25.11,0l1.72,1.72h-1.71l-.87-.87c-6.44-6.43-16.97-6.43-23.4,0l-.87.87h-1.71Z"/>
    </g>
  </g>
</svg>