<?xml version="1.0" encoding="UTF-8"?>
<svg id="Layer_2" data-name="Layer 2" xmlns="http://www.w3.org/2000/svg" viewBox="0 0 31.69 35.01">
  <defs>
    <style>
      .cls-1 {
        fill: #bbbcbf;
      }

      .cls-1, .cls-2, .cls-3, .cls-4, .cls-5, .cls-6 {
        fill-rule: evenodd;
        stroke-width: 0px;
      }

      .cls-2 {
        fill: #d8a0c4;
      }

      .cls-3 {
        fill: #ca802a;
      }

      .cls-4 {
        fill: #d0d2d3;
      }

      .cls-5 {
        fill: #80cbb8;
      }

      .cls-6 {
        fill: #f39e1e;
      }
    </style>
  </defs>
  <g id="Layer_1-2" data-name="Layer 1">
    <g>
      <path class="cls-1" d="M23.4,3.53c-.21-.25-.6-.29-.85-.08l-1.46,1.22c.05.06.1.13.14.2.05.06.09.12.12.18.05.04.1.08.14.13.18.09.33.16.49.31l1.33-1.12c.25-.21.29-.6.08-.85h0ZM8.29,3.52c-.21.25-.18.64.07.85l1.32,1.11c.1-.15.22-.28.36-.39.13-.17.33-.36.51-.46l-1.41-1.19c-.25-.21-.64-.18-.85.07h0ZM11.68.92c-.3.14-.43.5-.29.8l.9,1.94c.12-.03.24-.05.38-.05h.77s.09-.04.14-.05l-1.1-2.36c-.14-.3-.5-.43-.8-.29h0ZM15.85,0c-.33,0-.6.27-.61.6v2.58s1.21,0,1.21,0V.61c0-.33-.27-.6-.6-.61h0ZM20.02.93c-.3-.14-.66,0-.8.29l-1.02,2.19s.09.02.14.04c.1,0,.2.03.29.06.23,0,.4,0,.62.08.06.01.12.02.18.04l.88-1.89c.14-.3,0-.66-.29-.8h0Z"/>
      <path class="cls-2" d="M8.22,24.49h1.08c-.18.74.22,1.5.94,1.76.81,2.86.72,5.95-.27,8.75h-1.35c.58-1.49.9-3.11.9-4.8,0-2.05-.47-3.99-1.3-5.72h0ZM22.57,24.49h.89c-.83,1.73-1.3,3.67-1.3,5.72,0,1.69.32,3.31.9,4.8h-1.35c-.96-2.73-1.08-5.73-.33-8.52.95-.13,1.52-1.11,1.19-1.99h0Z"/>
      <path class="cls-3" d="M4.94,9.37c.42,0,.83.05,1.23.15-.33.26-.55.66-.57,1.11-2.28-.41-4.39,1.34-4.39,3.67s1.98,3.98,4.21,3.7c-.12.4-.08.83.14,1.2-2.94.37-5.56-1.92-5.56-4.9,0-2.73,2.21-4.94,4.94-4.94h0Z"/>
      <path class="cls-3" d="M26.75,9.37c2.73,0,4.94,2.21,4.94,4.94,0,3.06-2.74,5.36-5.74,4.87.27-.34.36-.77.29-1.18,2.23.31,4.24-1.43,4.24-3.7s-1.91-3.93-4.1-3.71c-.05-.46-.31-.87-.7-1.11.34-.08.7-.12,1.07-.12h0Z"/>
      <path class="cls-6" d="M5.64,19.64h0c-.87-1.62-1.37-3.47-1.37-5.44,0-6.36,5.21-11.57,11.57-11.57h0c6.36,0,11.57,5.21,11.57,11.57,0,1.93-.48,3.82-1.41,5.52h0l-4.06,7.63c-1.57,2.96-2.75,6.1-6.1,6.1h0c-3.35,0-4.53-3.14-6.1-6.1l-4.1-7.72h0ZM7.75,20.9l3.11,5.85c.78,1.47,1.86,4.01,3.27,4.94.52.35,1.09.49,1.71.49s1.19-.14,1.71-.49c1.41-.93,2.49-3.47,3.27-4.94l3.07-5.77h-.03l1.03-1.87c.83-1.51,1.25-3.19,1.25-4.91,0-5.66-4.64-10.3-10.3-10.3S5.54,8.54,5.54,14.2c0,1.69.42,3.35,1.22,4.84l1,1.87h-.01Z"/>
      <path class="cls-5" d="M11.4,9.84c2.14,0,3.88,1.74,3.88,3.88s-1.74,3.88-3.88,3.88-3.88-1.74-3.88-3.88,1.74-3.88,3.88-3.88h0ZM11.4,11.05c1.47,0,2.67,1.2,2.67,2.67s-1.2,2.67-2.67,2.67-2.67-1.2-2.67-2.67,1.2-2.67,2.67-2.67h0Z"/>
      <path class="cls-5" d="M20.29,9.84c2.14,0,3.88,1.74,3.88,3.88s-1.74,3.88-3.88,3.88-3.88-1.74-3.88-3.88,1.74-3.88,3.88-3.88h0ZM20.29,11.05c1.47,0,2.67,1.2,2.67,2.67s-1.2,2.67-2.67,2.67-2.67-1.2-2.67-2.67,1.19-2.67,2.67-2.67h0Z"/>
      <path class="cls-4" d="M12.72,24.49h0c0,.38.31.7.7.7h1.64v1.64c0,.38.31.7.7.7h0c.38,0,.7-.31.7-.7v-1.64h1.64c.38,0,.7-.31.7-.7h0c0-.38-.31-.7-.7-.7h-1.64v-1.64c0-.38-.31-.7-.7-.7h0c-.38,0-.7.31-.7.7v1.64h-1.64c-.38,0-.7.31-.7.7h0Z"/>
    </g>
  </g>
</svg>