<?xml version="1.0" encoding="UTF-8"?>
<svg id="Layer_2" data-name="Layer 2" xmlns="http://www.w3.org/2000/svg" viewBox="0 0 27.97 32.31">
  <defs>
    <style>
      .cls-1 {
        fill: #39acda;
      }

      .cls-1, .cls-2, .cls-3, .cls-4, .cls-5, .cls-6, .cls-7, .cls-8 {
        fill-rule: evenodd;
        stroke-width: 0px;
      }

      .cls-2 {
        fill: #6d6e70;
      }

      .cls-3 {
        fill: #bbbcbf;
      }

      .cls-4 {
        fill: #e5e6e7;
      }

      .cls-5 {
        fill: #e8d5ce;
      }

      .cls-6 {
        fill: #fff;
      }

      .cls-7 {
        fill: #e5d0b7;
      }

      .cls-8 {
        fill: #7d464b;
      }
    </style>
  </defs>
  <g id="Layer_1-2" data-name="Layer 1">
    <g>
      <polygon class="cls-5" points="7.06 0 5.29 0 1.99 0 1.99 1.77 5.29 1.77 5.29 5.07 7.06 5.07 7.06 1.77 7.06 0 7.06 0"/>
      <polygon class="cls-3" points="13.04 0 11.27 0 7.97 0 7.97 1.77 11.27 1.77 11.27 5.07 13.04 5.07 13.04 1.77 13.04 0 13.04 0"/>
      <polygon class="cls-5" points="20.91 0 22.68 0 25.98 0 25.98 1.77 22.68 1.77 22.68 5.07 20.91 5.07 20.91 1.77 20.91 0 20.91 0"/>
      <polygon class="cls-3" points="14.94 0 16.7 0 20.01 0 20.01 1.77 16.7 1.77 16.7 5.07 14.94 5.07 14.94 1.77 14.94 0 14.94 0"/>
      <path class="cls-6" d="M7.98,26.83h1.21v5.48h-1.21v-5.48h0ZM18.81,26.83h1.21v5.48h-1.21v-5.48h0Z"/>
      <path class="cls-7" d="M0,8.66h4.77c-.25.35-.33.79-.23,1.21H1.21v4.85h3.21c-.18.38-.19.82-.03,1.21H0v-7.26h0ZM23.54,14.71h3.23v-4.85h-3.26c.08-.43-.04-.87-.32-1.21h4.79v7.26h-4.41c.16-.39.15-.83-.03-1.21h0Z"/>
      <path class="cls-1" d="M4.13,3.94h19.72v23.4H4.13V3.94h0ZM5.34,5.15h17.3v20.98H5.34V5.15h0Z"/>
      <polygon class="cls-5" points="6.7 11.27 12.06 11.27 12.06 13.3 6.7 13.3 6.7 11.27 6.7 11.27"/>
      <polygon class="cls-5" points="15.94 11.27 21.29 11.27 21.29 13.3 15.94 13.3 15.94 11.27 15.94 11.27"/>
      <polygon class="cls-2" points="13.11 8.66 14.88 8.66 14.88 17.83 13.11 17.83 13.11 8.66 13.11 8.66"/>
      <polygon class="cls-8" points="18.81 20.14 9.19 20.14 9.19 23.92 18.81 23.92 18.81 20.14 18.81 20.14"/>
      <polygon class="cls-4" points="11.47 21.48 16.52 21.48 16.52 22.58 11.47 22.58 11.47 21.48 11.47 21.48"/>
    </g>
  </g>
</svg>