<?xml version="1.0" encoding="UTF-8"?>
<svg id="Layer_2" data-name="Layer 2" xmlns="http://www.w3.org/2000/svg" viewBox="0 0 33.53 34.73">
  <defs>
    <style>
      .cls-1 {
        fill: #c980a0;
      }

      .cls-1, .cls-2, .cls-3, .cls-4, .cls-5, .cls-6 {
        fill-rule: evenodd;
        stroke-width: 0px;
      }

      .cls-2 {
        fill: #e5c0cf;
      }

      .cls-3 {
        fill: #fdc157;
      }

      .cls-4 {
        fill: #eb008b;
      }

      .cls-5 {
        fill: #fff;
      }

      .cls-6 {
        fill: #f38480;
      }
    </style>
  </defs>
  <g id="Layer_1-2" data-name="Layer 1">
    <g>
      <path class="cls-1" d="M5.58,9.35h.62c-.25.36-.33.8-.23,1.21h-.4c-.72,0-1.31.59-1.31,1.31v3.18c0,.72.59,1.31,1.31,1.31h.81c-.31.32-.46.76-.41,1.21h-.4c-1.39,0-2.52-1.14-2.52-2.52v-3.18c0-1.39,1.13-2.52,2.52-2.52h0ZM27.37,16.37h.58c.72,0,1.31-.59,1.31-1.31v-3.18c0-.72-.59-1.31-1.31-1.31h-.39c.12-.41.06-.85-.17-1.21h.55c1.39,0,2.52,1.14,2.52,2.52v3.18c0,1.39-1.13,2.52-2.52,2.52h-.47c.13-.4.1-.84-.11-1.21h0Z"/>
      <path class="cls-2" d="M27.99,11.23v18.03c-.43-.09-.87.02-1.21.27V11.23c0-5.51-4.51-10.02-10.02-10.02S6.75,5.72,6.75,11.23v18.7c-.4-.13-.84-.09-1.21.12V11.23C5.54,5.05,10.59,0,16.77,0s11.23,5.05,11.23,11.23h0Z"/>
      <path class="cls-6" d="M16.77,2.58h0c4.82,0,8.77,3.95,8.77,8.77v7.94c0,4.82-3.95,8.77-8.77,8.77h0c-4.82,0-8.77-3.95-8.77-8.77v-7.94c0-4.82,3.95-8.77,8.77-8.77h0ZM16.77,3.79c-4.16,0-7.56,3.4-7.56,7.56v7.94c0,4.16,3.4,7.56,7.56,7.56s7.56-3.41,7.56-7.56v-7.94c0-4.16-3.4-7.56-7.56-7.56h0Z"/>
      <path class="cls-4" d="M13.39,20.56c.22,1.69,1.68,2.97,3.38,2.97s3.16-1.28,3.38-2.97l.02-.14h1.08l-.02.17c-.24,2.27-2.17,4-4.46,4s-4.21-1.74-4.46-4l-.02-.17h1.08l.02.14h0Z"/>
      <polygon class="cls-5" points="22.05 8.3 22.8 8.3 22.8 13.61 22.05 13.61 22.05 8.3 22.05 8.3"/>
      <path class="cls-5" d="M22.8,13.61c0,1.51-1.22,2.74-2.74,2.74s-2.74-1.23-2.74-2.74,1.22-2.74,2.74-2.74,2.74,1.23,2.74,2.74h0ZM22.05,13.61c0,1.09-.89,1.98-1.98,1.98s-1.98-.89-1.98-1.98.89-1.98,1.98-1.98,1.98.89,1.98,1.98h0Z"/>
      <path class="cls-5" d="M20.87,13.61c0,.44-.36.8-.8.8s-.8-.36-.8-.8.36-.8.8-.8.8.36.8.8h0Z"/>
      <polygon class="cls-5" points="17.33 8.3 18.08 8.3 18.08 21.27 17.33 21.27 17.33 8.3 17.33 8.3"/>
      <polygon class="cls-5" points="11.48 8.3 10.73 8.3 10.73 13.61 11.48 13.61 11.48 8.3 11.48 8.3"/>
      <path class="cls-5" d="M10.73,13.61c0,1.51,1.22,2.74,2.74,2.74s2.74-1.23,2.74-2.74-1.22-2.74-2.74-2.74-2.74,1.23-2.74,2.74h0ZM11.48,13.61c0,1.09.89,1.98,1.98,1.98s1.98-.89,1.98-1.98-.89-1.98-1.98-1.98-1.98.89-1.98,1.98h0Z"/>
      <path class="cls-5" d="M12.66,13.61c0,.44.36.8.8.8s.8-.36.8-.8-.36-.8-.8-.8-.8.36-.8.8h0Z"/>
      <polygon class="cls-5" points="16.2 8.3 15.45 8.3 15.45 21.27 16.2 21.27 16.2 8.3 16.2 8.3"/>
      <polygon class="cls-5" points="13.09 8.22 13.84 8.22 13.84 11.26 13.09 11.26 13.09 8.22 13.09 8.22"/>
      <polygon class="cls-5" points="19.69 8.22 20.44 8.22 20.44 11.26 19.69 11.26 19.69 8.22 19.69 8.22"/>
      <path class="cls-3" d="M0,34.73v-1.56c0-2.21,1.81-4.02,4.02-4.02h25.49c2.21,0,4.02,1.81,4.02,4.02v1.56h-1.21v-1.56c0-1.55-1.26-2.81-2.81-2.81H4.02c-1.55,0-2.81,1.27-2.81,2.81v1.56H0Z"/>
    </g>
  </g>
</svg>