<?xml version="1.0" encoding="UTF-8"?>
<svg id="Layer_2" data-name="Layer 2" xmlns="http://www.w3.org/2000/svg" viewBox="0 0 38.18 36.7">
  <defs>
    <style>
      .cls-1 {
        fill: #dc3555;
      }

      .cls-1, .cls-2, .cls-3, .cls-4, .cls-5, .cls-6, .cls-7 {
        fill-rule: evenodd;
        stroke-width: 0px;
      }

      .cls-2 {
        fill: #e5e6e7;
      }

      .cls-3 {
        fill: #e7aa22;
      }

      .cls-4 {
        fill: #ed4c95;
      }

      .cls-5 {
        fill: #ec1c24;
      }

      .cls-6 {
        fill: #989898;
      }

      .cls-7 {
        fill: #f8a98e;
      }
    </style>
  </defs>
  <g id="Layer_1-2" data-name="Layer 1">
    <g>
      <path class="cls-1" d="M29.4,22.47c2.78-1.4,6.18-1.2,8.78.63v1.63c-2.41-2.23-6-2.51-8.71-.85,0-.04.01-.07.02-.11.16-.42.13-.91-.09-1.31h0ZM8.76,23.91c-2.72-1.69-6.33-1.42-8.76.82v-1.63c2.71-1.91,6.28-2.05,9.11-.46-.3.34-.44.8-.35,1.27h0Z"/>
      <path class="cls-3" d="M29.06,25.38c2.49-.69,5.27-.06,7.21,1.89l1.91,1.91v1.8l-2.81-2.81c-1.74-1.74-4.3-2.21-6.48-1.4.25-.44.35-.9.17-1.39h0ZM9.27,26.76c-2.17-.8-4.72-.33-6.46,1.41l-2.81,2.81v-1.8l1.91-1.91c1.98-1.98,4.84-2.6,7.36-1.85-.21.42-.21.92,0,1.34h0Z"/>
      <path class="cls-3" d="M8.21,21.75v-10.88C8.21,4.89,13.11,0,19.09,0s10.88,4.89,10.88,10.88v7.72c-.17-.57-.67-1-1.27-1.07v-6.65c0-5.28-4.32-9.6-9.6-9.6s-9.6,4.32-9.6,9.6v6.57c-.18.13-.29.26-.42.44-.15.2-.25.43-.29.69-.02.09-.04.18-.04.27-.02.1-.03.21-.03.32v.56c0,.43.2.87.52,1.16.21.23.44.43.75.53.2.1.42.16.65.17.14.07.25.13.41.17h-2.81ZM29.97,19.64v2.11h-2.1s.1-.04.15-.06c.2-.07.49-.25.66-.39.09-.06.17-.13.24-.2.18-.13.43-.39.55-.58.17-.16.3-.37.38-.6.05-.09.08-.18.11-.28h0Z"/>
      <path class="cls-6" d="M29.97,18.16v5.11c0,3.46-1.64,6.55-4.17,8.54.16-.49.05-1.03-.29-1.43,1.95-1.76,3.19-4.3,3.19-7.12v-2.66c1.03-.34,1.37-1.65.61-2.45h.67ZM9.49,20.36v2.91c0,2.75,1.17,5.24,3.04,7-.35.38-.47.92-.33,1.41-2.43-2-3.99-5.03-3.99-8.4v-5.11h.35c-.5.85-.04,1.95.92,2.2h0Z"/>
      <path class="cls-7" d="M19.09,11.07c3.17,0,5.9,1.99,6.99,4.78-.44-.14-.92-.08-1.3.18-.98-2.17-3.16-3.69-5.69-3.69s-4.64,1.47-5.64,3.59c-.35-.29-.81-.41-1.25-.32,1.15-2.67,3.81-4.55,6.9-4.55h0ZM26.6,22.36v6.83c0,4.13-3.38,7.51-7.51,7.51s-7.51-3.38-7.51-7.51v-6.98c.39.22.86.25,1.27.08v6.9c0,3.43,2.81,6.23,6.23,6.23s6.23-2.81,6.23-6.23v-6.86c.4.2.87.21,1.27.03h0Z"/>
      <path class="cls-4" d="M11.64,15.48h14.9c1.99,0,3.61,1.62,3.61,3.61h0c0,1.99-1.62,3.61-3.61,3.61h-2.68c-1.99,0-3.61-1.62-3.61-3.61v-.9c0-.64-.52-1.16-1.16-1.16h0c-.64,0-1.15.52-1.15,1.16v.9c0,1.99-1.62,3.61-3.61,3.61h-2.68c-1.99,0-3.61-1.62-3.61-3.61h0c0-1.99,1.62-3.61,3.61-3.61h0ZM16.67,16.74h-5.03c-1.29,0-2.34,1.06-2.34,2.34s1.06,2.34,2.34,2.34h2.68c1.29,0,2.34-1.06,2.34-2.34v-2.34h0ZM21.51,16.74h5.02c1.29,0,2.34,1.06,2.34,2.34s-1.06,2.34-2.34,2.34h-2.68c-1.29,0-2.34-1.06-2.34-2.34v-2.34h0Z"/>
      <path class="cls-5" d="M19.09,22.3h0c2.32,0,4.21,1.89,4.21,4.21v2.83c0,2.32-1.89,4.21-4.21,4.21h0c-2.31,0-4.21-1.89-4.21-4.21v-2.83c0-2.32,1.89-4.21,4.21-4.21h0ZM19.09,23.4h0c1.71,0,3.11,1.4,3.11,3.11v2.83c0,1.71-1.4,3.11-3.11,3.11h0c-1.71,0-3.11-1.4-3.11-3.11v-2.83c0-1.71,1.4-3.11,3.11-3.11h0Z"/>
      <path class="cls-2" d="M21.44,31.37c-.57.66-1.41,1.07-2.35,1.07h0c-.93,0-1.77-.42-2.35-1.07.18-.46.63-.8,1.15-.8h2.38c.53,0,.98.33,1.16.8h0Z"/>
      <path class="cls-2" d="M19.09,23.4h0c.87,0,1.66.36,2.23.95-.22.34-.6.57-1.04.57h-2.38c-.43,0-.82-.23-1.04-.57.57-.58,1.36-.95,2.23-.95h0Z"/>
    </g>
  </g>
</svg>