<?xml version="1.0" encoding="UTF-8"?>
<svg id="Layer_2" data-name="Layer 2" xmlns="http://www.w3.org/2000/svg" viewBox="0 0 32.77 34.11">
  <defs>
    <style>
      .cls-1 {
        fill: #cdaba0;
      }

      .cls-1, .cls-2, .cls-3, .cls-4, .cls-5 {
        fill-rule: evenodd;
        stroke-width: 0px;
      }

      .cls-2 {
        fill: #e8cfc6;
      }

      .cls-3 {
        fill: #fff;
      }

      .cls-4 {
        fill: #f398c0;
      }

      .cls-5 {
        fill: #b93a26;
      }
    </style>
  </defs>
  <g id="Layer_1-2" data-name="Layer 1">
    <g>
      <path class="cls-1" d="M21.94,29.13v4.03h-1.16v-3.5c.4-.16.79-.34,1.16-.53h0ZM12,29.67v3.5h-1.16v-4.03c.38.2.77.38,1.16.53h0Z"/>
      <path class="cls-2" d="M6.96,3.78h1.1c-.95,1.2-1.52,2.7-1.52,4.34v1.81h-.35l.77-6.15h0ZM24.72,3.78h1.1l.77,6.15h-.35v-1.81c0-1.64-.57-3.14-1.52-4.34h0ZM26.96,12.96l.76,6.07c.2,1.59-.03,3.19-.65,4.67-1.74,4.16-6.25,6.82-10.69,6.82s-8.95-2.67-10.69-6.82c-.62-1.48-.85-3.07-.65-4.67l.76-6.07h1.17l-.78,6.22c-.69,5.56,4.58,10.18,10.18,10.18s10.88-4.62,10.18-10.18l-.78-6.22h1.17Z"/>
      <path class="cls-3" d="M24.13,20.93c-.45.94-1.07,1.78-1.81,2.49v-2.49h1.81ZM21.47,24.12c-.84.62-1.8,1.09-2.83,1.37v-4.56h2.83v3.19h0ZM17.8,25.67c-.46.08-.93.12-1.42.12s-.96-.04-1.42-.12v-4.74h2.83v4.74h0ZM14.13,25.49c-1.03-.28-1.99-.75-2.83-1.37v-3.19h2.83v4.56h0ZM10.46,23.42c-.74-.71-1.36-1.55-1.81-2.49h1.81v2.49h0Z"/>
      <path class="cls-4" d="M27.35,8.81h1.27c2.28,0,4.15,1.87,4.15,4.15v1.12H0v-1.12c0-2.28,1.87-4.15,4.15-4.15h1.27v-.69C5.42,3.65,9.07,0,13.54,0h5.69c4.47,0,8.12,3.65,8.12,8.12v.69h0ZM26.24,9.93v-1.81c0-3.85-3.15-7-7-7h-5.69c-3.85,0-7,3.15-7,7v1.81h-2.39c-1.67,0-3.03,1.36-3.03,3.03h30.53c0-1.67-1.36-3.03-3.03-3.03h-2.39Z"/>
      <polygon class="cls-5" points="8.43 15.78 15.8 15.78 15.8 17.07 8.43 17.07 8.43 15.78 8.43 15.78"/>
      <polygon class="cls-5" points="16.97 15.78 24.35 15.78 24.35 17.07 16.97 17.07 16.97 15.78 16.97 15.78"/>
      <polygon class="cls-1" points="10.84 32.84 21.94 32.84 21.94 34.11 10.84 34.11 10.84 32.84 10.84 32.84"/>
    </g>
  </g>
</svg>