<?xml version="1.0" encoding="UTF-8"?>
<svg id="Layer_2" data-name="Layer 2" xmlns="http://www.w3.org/2000/svg" viewBox="0 0 25.44 35.09">
  <defs>
    <style>
      .cls-1 {
        fill: #7c51a0;
      }

      .cls-1, .cls-2, .cls-3, .cls-4, .cls-5, .cls-6, .cls-7, .cls-8 {
        fill-rule: evenodd;
        stroke-width: 0px;
      }

      .cls-2 {
        fill: #dab89a;
      }

      .cls-3 {
        fill: #c980a0;
      }

      .cls-4 {
        fill: #e5e6e7;
      }

      .cls-5 {
        fill: #eddac3;
      }

      .cls-6 {
        fill: #fdc157;
      }

      .cls-7 {
        fill: #ee464e;
      }

      .cls-8 {
        fill: #f7aaac;
      }
    </style>
  </defs>
  <g id="Layer_1-2" data-name="Layer 1">
    <g>
      <path class="cls-1" d="M21.65,14.43v14.2h-5.69c.15-.35.15-.76,0-1.12h4.56v-12.2c.33-.09.61-.3.83-.56.11-.09.21-.2.29-.32h0ZM9.59,28.63H3.79v-13.58c.25.37.66.62,1.12.65v11.81h4.64c-.14.36-.12.77.03,1.12h0Z"/>
      <path class="cls-6" d="M1.38,35.09l.89-.83c2.01-1.85,4.47-3.07,7.12-3.54-.07.38.02.78.24,1.1-2.52.44-4.79,1.6-6.6,3.27h-1.66ZM15.84,30.69c2.72.44,5.26,1.68,7.32,3.57l.89.83h-1.65c-1.87-1.72-4.23-2.91-6.85-3.31.24-.32.33-.7.29-1.09h0Z"/>
      <path class="cls-3" d="M22.55,12.51c.22,1.86-.89,3.54-2.54,4.15.22-.39.25-.87.08-1.28.91-.54,1.49-1.59,1.34-2.76.37.1.78.07,1.12-.1h0ZM18.03,18.21c-.29.54-.63,1.05-.9,1.6-.5,1.02-.5,2.38-.5,3.48v6.72c0,2.16-1.76,3.91-3.91,3.91s-3.91-1.76-3.91-3.91v-6.71c0-1.1,0-2.47-.5-3.49-.18-.38-.41-.75-.63-1.11.4.06.81-.03,1.14-.27.72,1.23,1.11,1.83,1.11,4.87v6.71c0,1.54,1.26,2.79,2.79,2.79s2.79-1.26,2.79-2.79v-6.72c0-3.22.44-3.7,1.24-5.1.4.2.87.2,1.28.02h0ZM5.45,16.67c-1.83-.66-2.98-2.64-2.48-4.64.21.39.59.66,1.01.74-.09,1.18.55,2.19,1.49,2.68-.18.38-.19.83-.02,1.22h0Z"/>
      <path class="cls-8" d="M3.81,8.56C4,3.81,7.94,0,12.72,0s8.72,3.81,8.92,8.56h1.63c1.19,0,2.16.97,2.16,2.16s-.97,2.16-2.16,2.16h-4.32c-.16-.37-.41-.65-.78-.82-.21-.11-.43-.17-.68-.17h-1.12c-.12,0-.23.01-.34.04-.05,0-.1.01-.16.02-.19,0-.45.07-.63.14-.38.1-.57.28-.83.54-.07.07-.14.16-.19.24h-3.27c-.16-.3-.48-.61-.79-.75-.26-.18-.62-.29-.94-.29h-.96c-.32,0-.58.12-.88.18-.5.1-.88.43-1.07.86H2.16c-1.19,0-2.16-.97-2.16-2.16s.97-2.16,2.16-2.16h1.65ZM23.27,9.68h-2.75v-.75c0-4.29-3.51-7.8-7.8-7.8s-7.8,3.51-7.8,7.8v.75h-2.76c-.57,0-1.04.47-1.04,1.04s.47,1.04,1.04,1.04h21.11c.57,0,1.04-.47,1.04-1.04s-.47-1.04-1.04-1.04h0Z"/>
      <polygon class="cls-4" points="12.72 3.02 12.09 4.98 10.03 4.98 11.7 6.18 11.06 8.14 12.72 6.93 14.39 8.14 13.75 6.18 15.42 4.98 13.36 4.98 12.72 3.02 12.72 3.02"/>
      <path class="cls-2" d="M13.55,18.64h0c-.3,0-.55.25-.55.55v1.13c0,.3.25.55.55.55h0c.3,0,.55-.25.55-.55v-1.13c0-.3-.25-.55-.55-.55h0Z"/>
      <path class="cls-2" d="M11.88,18.64h0c-.3,0-.55.25-.55.55v1.13c0,.3.25.55.55.55h0c.3,0,.55-.25.55-.55v-1.13c0-.3-.25-.55-.55-.55h0Z"/>
      <path class="cls-7" d="M11.37,25.69h2.7c.5,0,.91.41.91.91h0c0,.5-.41.91-.91.91h-2.7c-.5,0-.91-.41-.91-.91h0c0-.5.41-.91.91-.91h0Z"/>
      <path class="cls-5" d="M8.72,11.04c2.21,0,4.01,1.8,4.01,4.01s-1.8,4.01-4.01,4.01-4.01-1.8-4.01-4.01,1.8-4.01,4.01-4.01h0ZM8.72,12.12c1.62,0,2.94,1.32,2.94,2.94s-1.32,2.94-2.94,2.94-2.94-1.32-2.94-2.94,1.32-2.94,2.94-2.94h0Z"/>
      <path class="cls-5" d="M16.72,11.04c2.22,0,4.01,1.8,4.01,4.01s-1.79,4.01-4.01,4.01-4.01-1.8-4.01-4.01,1.8-4.01,4.01-4.01h0ZM16.72,12.12c1.62,0,2.94,1.32,2.94,2.94s-1.32,2.94-2.94,2.94-2.94-1.32-2.94-2.94,1.32-2.94,2.94-2.94h0Z"/>
    </g>
  </g>
</svg>