<?xml version="1.0" encoding="UTF-8"?>
<svg id="Layer_2" data-name="Layer 2" xmlns="http://www.w3.org/2000/svg" viewBox="0 0 30.08 32.81">
  <defs>
    <style>
      .cls-1 {
        fill: #e5e6e7;
      }

      .cls-1, .cls-2, .cls-3, .cls-4 {
        fill-rule: evenodd;
        stroke-width: 0px;
      }

      .cls-2 {
        fill: #fff;
      }

      .cls-3 {
        fill: #f38480;
      }

      .cls-4 {
        fill: #f16622;
      }
    </style>
  </defs>
  <g id="Layer_1-2" data-name="Layer 1">
    <g>
      <path class="cls-1" d="M23.61,24.48l1.89,8.34h-1.19l-1.66-7.35.72-.72c.09-.09.17-.18.25-.27h0ZM7.44,25.46l-1.67,7.35h-1.19l1.89-8.34c.08.09.16.18.25.27l.72.72h0Z"/>
      <path class="cls-1" d="M8.07,13.48h5.18c.27.59.42,1.24.42,1.93v.62h-5.6c-.7,0-1.27-.57-1.27-1.27h0c0-.7.57-1.27,1.27-1.27h0ZM16.84,13.48h5.18c.7,0,1.27.57,1.27,1.27h0c0,.7-.57,1.27-1.27,1.27h-5.6v-.62c0-.69.15-1.34.42-1.93h0Z"/>
      <path class="cls-1" d="M5.55,11.61c.08-.3.17-.59.28-.88h3.16c2.57,0,4.68,2.1,4.68,4.68v6.05c0,.76.62,1.38,1.38,1.38s1.38-.62,1.38-1.38v-6.05c0-2.57,2.1-4.68,4.68-4.68h3.16c.1.29.2.58.27.88h-3.44c-2.09,0-3.8,1.71-3.8,3.8v6.05c0,1.24-1.01,2.25-2.25,2.25s-2.25-1.01-2.25-2.25v-6.05c0-2.09-1.71-3.8-3.8-3.8h-3.44Z"/>
      <path class="cls-4" d="M12.79,25.28h4.5c.46,0,.85.38.85.85h0c0,.46-.38.85-.85.85h-4.5c-.46,0-.85-.38-.85-.85h0c0-.47.38-.85.85-.85h0Z"/>
      <path class="cls-2" d="M28.15,14.16c0-7.21-5.9-13.11-13.11-13.11S1.93,6.95,1.93,14.16v.52H.88v-.52C.88,6.37,7.25,0,15.04,0s14.16,6.37,14.16,14.16v.52h-1.05v-.52h0Z"/>
      <path class="cls-2" d="M.43,13.82h1.95c.24,0,.43.19.43.43h0c0,.24-.19.43-.43.43H.43c-.24,0-.43-.19-.43-.43h0c0-.24.19-.43.43-.43H.43Z"/>
      <path class="cls-2" d="M27.7,13.82h1.95c.24,0,.43.19.43.43h0c0,.24-.2.43-.43.43h-1.95c-.24,0-.43-.19-.43-.43h0c0-.24.19-.43.43-.43h0Z"/>
      <path class="cls-3" d="M26.02,20.98c.04,1.72-.61,3.37-1.83,4.58l-4.64,4.64c-2.48,2.48-6.54,2.48-9.02,0l-4.64-4.64c-1.22-1.22-1.87-2.87-1.83-4.58v-6.89c0-.94.12-1.87.36-2.78.09-.33.19-.66.31-.98,1.58-4.31,5.7-7.21,10.31-7.21s8.73,2.91,10.31,7.21c.12.32.22.65.31.98.24.91.36,1.84.36,2.78v6.89h0ZM24.85,21c.04,1.35-.46,2.72-1.49,3.75l-4.64,4.64c-2.03,2.03-5.35,2.03-7.37,0l-4.64-4.64c-1.03-1.03-1.52-2.39-1.49-3.75v-6.9c0-.86.11-1.69.32-2.48.08-.3.17-.59.28-.88,1.38-3.75,5-6.45,9.21-6.45s7.84,2.7,9.21,6.45c.1.29.2.58.28.88.21.79.32,1.63.32,2.48v6.9h0Z"/>
    </g>
  </g>
</svg>