<?xml version="1.0" encoding="UTF-8"?>
<svg id="Layer_2" data-name="Layer 2" xmlns="http://www.w3.org/2000/svg" viewBox="0 0 27.85 33.81">
  <defs>
    <style>
      .cls-1 {
        fill: #ec1e24;
      }

      .cls-1, .cls-2, .cls-3 {
        fill-rule: evenodd;
        stroke-width: 0px;
      }

      .cls-2 {
        fill: #ecd8c5;
      }

      .cls-3 {
        fill: #8dd7f7;
      }
    </style>
  </defs>
  <g id="Layer_1-2" data-name="Layer 1">
    <g>
      <path class="cls-1" d="M3.54,8.81C5.12,3.59,9.95,0,15.43,0c6.86,0,12.43,5.56,12.43,12.43,0,3.07-1.12,5.99-3.15,8.27v13.11h-1.42v-13.68c1.95-1.99,3.15-4.71,3.15-7.71,0-6.08-4.93-11.01-11.01-11.01-4.98,0-9.19,3.31-10.55,7.86l-3.36,8.35h0c-.32.78.17,1.77,1.07,1.77h1.38v5.44c0,1.64,1.34,2.98,2.98,2.98h.79v6h-1.42v-4.62c-2.12-.31-3.77-2.14-3.77-4.35v-4.02c-1.88-.03-3.03-2.02-2.34-3.71l3.34-8.29h0Z"/>
      <polygon class="cls-2" points="11.43 18.01 10.01 18.01 10.01 23.77 11.43 23.77 11.43 18.01 11.43 18.01"/>
      <path class="cls-2" d="M10.6,8.56c-2.86,0-5.18,2.32-5.18,5.18s2.32,5.18,5.18,5.18,5.18-2.32,5.18-5.18-2.32-5.18-5.18-5.18h0ZM10.6,9.98c-2.07,0-3.75,1.68-3.75,3.75s1.68,3.75,3.75,3.75,3.75-1.68,3.75-3.75-1.68-3.75-3.75-3.75h0Z"/>
      <path class="cls-3" d="M10.6,12.21c-.84,0-1.52.68-1.52,1.52s.68,1.52,1.52,1.52,1.52-.68,1.52-1.52-.68-1.52-1.52-1.52h0Z"/>
    </g>
  </g>
</svg>