<?xml version="1.0" encoding="UTF-8"?>
<svg id="Layer_2" data-name="Layer 2" xmlns="http://www.w3.org/2000/svg" viewBox="0 0 36.23 30.54">
  <defs>
    <style>
      .cls-1 {
        fill: #fdc157;
      }

      .cls-1, .cls-2, .cls-3 {
        fill-rule: evenodd;
        stroke-width: 0px;
      }

      .cls-2 {
        fill: #ea519c;
      }

      .cls-3 {
        fill: #ef92a8;
      }
    </style>
  </defs>
  <g id="Layer_1-2" data-name="Layer 1">
    <g>
      <path class="cls-3" d="M22.85,24.89c-.35,2.31-2.36,4.08-4.74,4.08s-4.39-1.77-4.74-4.08c-2.16-2.48-3.34-4.47-3.34-7.98v-.54c.26.39.71.65,1.21.66.03,3.48,1.44,5.25,3.3,7.34.11,1.89,1.69,3.38,3.58,3.38s3.47-1.5,3.58-3.38c1.87-2.11,3.3-3.92,3.3-7.47v-.22c.48,0,.92-.24,1.21-.61v.83c0,3.5-1.19,5.5-3.34,7.98h0ZM24.99,11.88v-1.97h-13.75v2.17c-.39-.16-.83-.14-1.21.04v-3.42h16.17v3.33c-.36-.22-.8-.28-1.21-.16h0Z"/>
      <path class="cls-2" d="M18.08,22.57c.89,0,1.6.72,1.6,1.6s-.72,1.6-1.6,1.6-1.6-.72-1.6-1.6.72-1.6,1.6-1.6h0Z"/>
      <path class="cls-1" d="M7.42,23.34v-7.11c-.94-1.47-1.31-3.18-1.34-4.92l-.02-1.23h1.38C7.76,4.47,12.44,0,18.11,0s10.35,4.47,10.68,10.07h1.38l-.02,1.23c-.03,1.74-.4,3.45-1.34,4.92v7.11c2.78,1.33,5.3,3.16,7.42,5.4v1.81c-2.34-2.75-5.28-4.97-8.62-6.43v-8.26c.82-1.14,1.31-2.63,1.34-4.57h-1.34v-.58c0-5.22-4.27-9.49-9.49-9.49s-9.49,4.27-9.49,9.49v.58h-1.34c.03,1.94.52,3.43,1.34,4.57v8.26c-3.34,1.47-6.29,3.68-8.63,6.43v-1.81c2.12-2.24,4.64-4.07,7.42-5.4h0Z"/>
      <path class="cls-2" d="M28.94,11.28c-.11,6.23-4.91,7.88-10.33,7.94v-5.08c0-1.57,1.29-2.86,2.86-2.86h7.47ZM27.13,12.91h-5.66c-.67,0-1.23.56-1.23,1.23v3.37c1.93-.17,4.01-.64,5.37-1.87.83-.75,1.3-1.7,1.52-2.74h0Z"/>
      <path class="cls-2" d="M7.29,11.28c.11,6.23,4.91,7.88,10.33,7.94v-5.08c0-1.57-1.29-2.86-2.86-2.86h-7.47ZM9.1,12.91c.23,1.03.69,1.98,1.52,2.74,1.36,1.23,3.44,1.7,5.37,1.87v-3.37c0-.67-.56-1.23-1.23-1.23h-5.66Z"/>
    </g>
  </g>
</svg>