<?xml version="1.0" encoding="UTF-8"?>
<svg id="Layer_2" data-name="Layer 2" xmlns="http://www.w3.org/2000/svg" viewBox="0 0 29.69 32.23">
  <defs>
    <style>
      .cls-1 {
        fill: #d8a0c4;
      }

      .cls-1, .cls-2, .cls-3, .cls-4, .cls-5 {
        fill-rule: evenodd;
        stroke-width: 0px;
      }

      .cls-2 {
        fill: #e8cfc6;
      }

      .cls-3 {
        fill: #f05f77;
      }

      .cls-4 {
        fill: #f9fcff;
      }

      .cls-5 {
        fill: #f7b2ba;
      }
    </style>
  </defs>
  <g id="Layer_1-2" data-name="Layer 1">
    <g>
      <path class="cls-1" d="M20.37,24.45c3.86,0,7.01,3.15,7.01,7.01v.77h-1.16v-.77c0-3.22-2.63-5.85-5.85-5.85h-1.56l.16-1.16h1.39ZM3.47,32.23h-1.16v-.77c0-3.86,3.15-7.01,7.01-7.01h1.39l.17,1.16h-1.56c-3.22,0-5.85,2.63-5.85,5.85v.77h0Z"/>
      <path class="cls-5" d="M19.71,9.93c1.53,0,2.78,1.24,2.78,2.77s-1.24,2.78-2.78,2.78-2.78-1.24-2.78-2.78,1.24-2.77,2.78-2.77h0ZM19.71,11.1c-.89,0-1.61.72-1.61,1.61s.72,1.61,1.61,1.61,1.61-.72,1.61-1.61-.72-1.61-1.61-1.61h0Z"/>
      <path class="cls-3" d="M17.16,23.41h-4.62c-.43,0-.79.35-.79.79h0c0,.43.35.79.79.79h4.62c.43,0,.79-.35.79-.79h0c0-.43-.35-.79-.79-.79h0Z"/>
      <path class="cls-2" d="M9.4,23.5h-.92c-2.39,0-4.34-1.95-4.34-4.34v-.88h0s.01,0,.01,0h.01s0-.01,0-.01h.02s0-.01,0-.01h0s.02-.02.02-.02h0s.02-.02.02-.02h0s0,0,0,0h.02s0-.02,0-.02h0s.02-.02.02-.02h0s.01-.01.01-.01h.01s0-.01,0-.01h.01s0-.02,0-.02h0s.02-.02.02-.02h0s0,0,0,0h0s0,0,0,0h0s0,0,0,0h0s0,0,0,0h0s0,0,0,0h0s0,0,0,0h0s0,0,0,0h0s0,0,0,0h0s0,0,0,0h0s0,0,0,0h0s0,0,0,0h0s0,0,0,0h0s0,0,0,0h0s0,0,0,0h0s0,0,0,0v-.02s.02,0,.02,0h0s.01-.02.01-.02h0s.01-.02.01-.02h0s0-.02,0-.02v-.02h.01v-.02s.02,0,.02,0v-.02s.02,0,.02,0h0v-.02s.02,0,.02,0h0s.01-.02.01-.02h0s0,0,0,0h0s0,0,0,0h0s0,0,0,0h0s0,0,0,0h0s0,0,0,0h0s0,0,0,0h0s0,0,0,0h0s0,0,0,0h0s0,0,0,0h0s0,0,0,0h0s0,0,0,0h0s0,0,0,0h0s0,0,0,0h0s0,0,0,0h0s0,0,0,0h0s0,0,0,0h0s0,0,0,0h0s0,0,0,0v-.02s.02,0,.02,0v-.02s.01,0,.01,0v-.02s.01-.01.01-.01h0s0-.03,0-.03h0s0-.02,0-.02h0s0-.02,0-.02v-.02s0,0,0,0v-.02s.01-.01.01-.01h0s0-.02,0-.02h0s0-.02,0-.02h0s0-.02,0-.02v-.02s0,0,0,0h0s0-.03,0-.03v-.03h0s0-.03,0-.03h0s0,0,0,0v-.02s0,0,0,0h0s0-.02,0-.02h0s0-.01,0-.01v-.03s0-.01,0-.01v-.02s0,0,0,0v-.02s0,0,0,0h0s0-.03,0-.03h0s0-.03,0-.03h0s0-.03,0-.03v-7.5s0-.01,0-.01h0s0-.03,0-.03h0s0-.02,0-.02h0s0-.02,0-.02v-.02s0,0,0,0v-.02s0-.01,0-.01v-.03s0,0,0,0h0s0,0,0,0v-.02s0,0,0,0h0s0-.03,0-.03h0s0,0,0,0v-.03h0v-.03s-.01-.02-.01-.02h0s0-.02,0-.02v-.02s0,0,0,0v-.02s0-.01,0-.01h0s0-.02,0-.02h0s0-.02,0-.02v-.02s0,0,0,0v-.02s-.01,0-.01,0h0s0-.03,0-.03h0s0-.02,0-.02h0s0-.02,0-.02v-.02s0,0,0,0v-.02s-.01,0-.01,0v-.03s-.02,0-.02,0h0s0,0,0,0h0s0,0,0,0h0s0,0,0,0h0s0,0,0,0h0s0,0,0,0h0s0,0,0,0h0s0,0,0,0h0s0,0,0,0h0s0,0,0,0h0s0,0,0,0h0s0,0,0,0h0s0,0,0,0h0s0,0,0,0h0s0,0,0,0h0s0,0,0,0h0s0,0,0,0h0s-.01-.02-.01-.02h0s0-.02,0-.02v-.02h-.02s-.01-.02-.01-.02h0s-.01-.02-.01-.02h0s-.01-.02-.01-.02h0s0-.02,0-.02v-.02s-.01,0-.01,0h-.01s0-.02,0-.02h0s-.01-.02-.01-.02h0s0,0,0,0h0s0,0,0,0h-.01s0-.01,0-.01h0s0,0,0,0h0s0,0,0,0h0s0,0,0,0h0s0,0,0,0h0s0,0,0,0h0s0,0,0,0h0s0,0,0,0h0s0,0,0,0l-.02-.02h0s0,0,0,0h-.01s0-.02,0-.02h-.01s-.01-.02-.01-.02h0s-.02-.02-.02-.02h0s0,0,0,0h-.02s0-.02,0-.02h0s-.02-.01-.02-.01h0s0,0,0,0h-.02s0-.02,0-.02h0s-.02-.01-.02-.01h0s-.01-.01-.01-.01h-.01s0-.01,0-.01v-.27c0-2.39,1.95-4.34,4.34-4.34h12.71c2.39,0,4.34,1.95,4.34,4.34v.27h0s-.03.02-.03.02h0s-.02.01-.02.01h0s-.01.01-.01.01h-.01s0,.01,0,.01h-.02s0,.01,0,.01h-.01s-.01.02-.01.02h0s-.02.02-.02.02h0s-.01.01-.01.01h-.01s0,.01,0,.01h-.02s0,.02,0,.02h-.01s-.01.02-.01.02h0s-.01.02-.01.02h0s0,.01,0,.01h-.01s0,.01,0,.01h-.01s0,.02,0,.02h0s-.01.02-.01.02h0s-.01.02-.01.02h-.01s0,.02,0,.02v.02s-.01,0-.01,0v.02s-.02,0-.02,0h0s-.01.02-.01.02h0v.02s-.02,0-.02,0h0s-.01.03-.01.03h0s-.01.02-.01.02h0s0,.02,0,.02v.02s-.01,0-.01,0v.02s-.01.01-.01.01h0s0,.03,0,.03h0s0,.02,0,.02h0s0,.02,0,.02v.02s-.01,0-.01,0v.02s-.01.01-.01.01h0s0,.02,0,.02h0s0,.02,0,.02h0s0,.02,0,.02v.02s0,0,0,0h0s0,.03,0,.03h0s0,.02,0,.02h0s0,.02,0,.02v.02s-.01.03-.01.03h0s0,.02,0,.02h0s0,.04,0,.04h0s0,.03,0,.03h0s0,.01,0,.01v.03s0,.01,0,.01v.02s0,0,0,0v.02s0,0,0,0h0s0,.03,0,.03h0s0,.03,0,.03h0s0,.03,0,.03v7.5s0,.01,0,.01h0s0,.03,0,.03h0s0,.02,0,.02h0s0,.02,0,.02v.02s0,0,0,0v.02s0,.01,0,.01v.03s0,0,0,0h0s0,0,0,0v.02s0,0,0,0h0s0,.03,0,.03v.02s0,0,0,0h0s0,.04,0,.04v.02s0,.01,0,.01h0s0,.03,0,.03h0s0,.02,0,.02v.02s0,0,0,0v.02s0,0,0,0h0s0,.03,0,.03h0s0,.02,0,.02h0s0,.02,0,.02v.02s0,0,0,0v.02s.01,0,.01,0h0s0,.03,0,.03h0s0,.02,0,.02h0s0,.02,0,.02v.02s.01,0,.01,0v.02s.01,0,.01,0h0s.01.03.01.03h0s.01.02.01.02h0s0,.02,0,.02v.02h.01v.02s.02,0,.02,0h0s.01.02.01.02h0v.02s.01,0,.01,0h.01s.01.03.01.03h0s.01.01.01.01h0s0,.02,0,.02v.02s.02,0,.02,0h.01s0,.02,0,.02h0s.01.02.01.02h0s.01.01.01.01h.01s0,.01,0,.01h.02s0,.02,0,.02h.01s.01.02.01.02h0s.02.02.02.02h0s.01.01.01.01h.01s0,.01,0,.01h.02s0,.02,0,.02h.01s.01.02.01.02h0s.02.01.02.01h0s.03.02.03.02h0v.88c0,2.39-1.95,4.34-4.34,4.34h-.92l-.64,4.5c-.21,1.74-1.51,3.19-3.33,3.19h-2.94c-1.82,0-3.12-1.45-3.33-3.19l-.64-4.5h0ZM10.41,22.33l.78,5.52c.14,1.19.98,2.18,2.18,2.18h2.94c1.2,0,2.04-.99,2.18-2.18l.78-5.52h1.93c1.75,0,3.18-1.43,3.18-3.18v-10.83c0-1.75-1.43-3.18-3.18-3.18h-12.71c-1.75,0-3.18,1.43-3.18,3.18v10.83c0,1.75,1.43,3.18,3.18,3.18h1.93Z"/>
      <path class="cls-4" d="M27.19,8.41v-2.25c0-3.39-2.77-6.16-6.16-6.16h-12.37C5.27,0,2.5,2.77,2.5,6.16v2.25h.93v-2.25C3.43,3.28,5.78.93,8.66.93h12.37c2.88,0,5.23,2.35,5.23,5.23v2.25h.93Z"/>
      <path class="cls-4" d="M27.24,7.25c1.35,0,2.45,1.1,2.45,2.45v7.48c0,1.35-1.1,2.45-2.45,2.45h-1.04c-1.35,0-2.45-1.1-2.45-2.45v-7.48c0-1.35,1.1-2.45,2.45-2.45h1.04ZM27.24,8.41h-1.04c-.71,0-1.28.58-1.28,1.28v7.48c0,.71.58,1.28,1.28,1.28h1.04c.7,0,1.28-.58,1.28-1.28v-7.48c0-.71-.58-1.28-1.28-1.28h0Z"/>
      <path class="cls-4" d="M3.48,7.25c1.35,0,2.45,1.1,2.45,2.45v7.48c0,1.35-1.1,2.45-2.45,2.45h-1.04c-1.35,0-2.45-1.1-2.45-2.45v-7.48c0-1.35,1.1-2.45,2.45-2.45h1.04ZM3.48,8.41h-1.04c-.7,0-1.28.58-1.28,1.28v7.48c0,.71.58,1.28,1.28,1.28h1.04c.7,0,1.28-.58,1.28-1.28v-7.48c0-.71-.58-1.28-1.28-1.28h0Z"/>
      <path class="cls-5" d="M9.98,9.93c1.53,0,2.78,1.24,2.78,2.77s-1.24,2.78-2.78,2.78-2.78-1.24-2.78-2.78,1.24-2.77,2.78-2.77h0ZM9.98,11.1c-.89,0-1.61.72-1.61,1.61s.72,1.61,1.61,1.61,1.61-.72,1.61-1.61-.72-1.61-1.61-1.61h0Z"/>
    </g>
  </g>
</svg>