<?xml version="1.0" encoding="UTF-8"?>
<svg id="Layer_2" data-name="Layer 2" xmlns="http://www.w3.org/2000/svg" viewBox="0 0 32.37 32.4">
  <defs>
    <style>
      .cls-1 {
        fill: #e8cfc6;
      }

      .cls-1, .cls-2, .cls-3, .cls-4, .cls-5, .cls-6 {
        fill-rule: evenodd;
        stroke-width: 0px;
      }

      .cls-2 {
        fill: #fbd2c0;
      }

      .cls-3 {
        fill: #f48120;
      }

      .cls-4 {
        fill: #ed4c95;
      }

      .cls-5 {
        fill: #f05643;
      }

      .cls-6 {
        fill: #f7aaac;
      }
    </style>
  </defs>
  <g id="Layer_1-2" data-name="Layer 1">
    <g>
      <polygon class="cls-1" points="13.36 4.68 12.2 4.68 12.2 0 13.36 0 13.36 4.68 13.36 4.68"/>
      <polygon class="cls-1" points="20.17 4.63 19.01 4.63 19.01 0 20.17 0 20.17 4.63 20.17 4.63"/>
      <polygon class="cls-1" points="16.77 3.99 15.61 3.99 15.61 0 16.77 0 16.77 3.99 16.77 3.99"/>
      <path class="cls-1" d="M3.75,3.92v-.54C3.75,1.56,5.24.07,7.06.07s3.3,1.49,3.3,3.3v3.7h-1.16v-3.7c0-1.18-.96-2.14-2.14-2.14s-2.14.96-2.14,2.14v.54h-1.16Z"/>
      <path class="cls-1" d="M28.62,3.92v-.54c0-1.82-1.49-3.3-3.3-3.3s-3.3,1.49-3.3,3.3v3.7h1.16v-3.7c0-1.18.96-2.14,2.14-2.14s2.14.96,2.14,2.14v.54h1.16Z"/>
      <path class="cls-4" d="M32.37,32.4v-3.01c0-2.25-1.84-4.1-4.1-4.1h-3.26l3.63-7.74h-6.23c-.19.41-.41.8-.67,1.16h5.07l-3.63,7.74h5.1c1.61,0,2.93,1.32,2.93,2.93v3.01h1.16ZM9.94,17.54H3.73l3.63,7.74h-3.26c-2.25,0-4.1,1.84-4.1,4.1v3.01h1.16v-3.01c0-1.61,1.32-2.93,2.93-2.93h5.1l-3.63-7.74h5.05c-.26-.37-.48-.76-.67-1.16h0Z"/>
      <path class="cls-3" d="M21.52,19.34v3.77c0,1.82-1.49,3.31-3.31,3.31h-4.05c-1.82,0-3.31-1.49-3.31-3.31v-3.77c-2.12-1.61-3.49-4.16-3.49-7.03,0-4.87,3.95-8.82,8.82-8.82s8.82,3.95,8.82,8.82c0,2.87-1.37,5.42-3.49,7.03h0ZM20.81,18.41c1.13-.86,1.98-1.99,2.49-3.27,1-.57,1.68-1.66,1.68-2.9s-.71-2.37-1.75-2.93c-1.17-2.74-3.88-4.66-7.05-4.66s-5.88,1.92-7.05,4.66c-1.04.56-1.75,1.67-1.75,2.93s.68,2.32,1.68,2.9c.51,1.28,1.36,2.41,2.49,3.27l.46.35v4.35c0,1.18.97,2.14,2.14,2.14h4.05c1.18,0,2.14-.97,2.14-2.14v-4.35l.46-.35h0Z"/>
      <path class="cls-5" d="M10.72,16.74c-2.48,0-4.5-2.01-4.5-4.5s2.01-4.5,4.5-4.5,4.5,2.01,4.5,4.5-2.01,4.5-4.5,4.5h0ZM10.72,15.58c1.84,0,3.33-1.49,3.33-3.33s-1.49-3.33-3.33-3.33-3.33,1.49-3.33,3.33,1.49,3.33,3.33,3.33h0Z"/>
      <path class="cls-5" d="M21.65,16.74c-2.48,0-4.5-2.01-4.5-4.5s2.01-4.5,4.5-4.5,4.5,2.01,4.5,4.5-2.01,4.5-4.5,4.5h0ZM21.65,15.58c1.84,0,3.33-1.49,3.33-3.33s-1.49-3.33-3.33-3.33-3.33,1.49-3.33,3.33,1.49,3.33,3.33,3.33h0Z"/>
      <path class="cls-6" d="M14.07,20.97h4.23c.32,0,.58.26.58.58h0c0,.32-.26.58-.58.58h-4.23c-.32,0-.58-.26-.58-.58h0c0-.32.26-.58.58-.58h0Z"/>
      <polygon class="cls-5" points="14.4 11.66 17.97 11.66 17.97 12.83 14.4 12.83 14.4 11.66 14.4 11.66"/>
      <path class="cls-2" d="M16.19,28.35c.55,0,.99.44.99.99s-.44.99-.99.99-.99-.44-.99-.99.44-.99.99-.99h0Z"/>
    </g>
  </g>
</svg>