<?xml version="1.0" encoding="UTF-8"?>
<svg id="Layer_2" data-name="Layer 2" xmlns="http://www.w3.org/2000/svg" viewBox="0 0 31.25 33.68">
  <defs>
    <style>
      .cls-1 {
        fill: #bbbcbf;
      }

      .cls-1, .cls-2, .cls-3, .cls-4, .cls-5 {
        fill-rule: evenodd;
        stroke-width: 0px;
      }

      .cls-2 {
        fill: #eb008b;
      }

      .cls-3 {
        fill: #ec1651;
      }

      .cls-4 {
        fill: #f398c0;
      }

      .cls-5 {
        fill: #f16622;
      }
    </style>
  </defs>
  <g id="Layer_1-2" data-name="Layer 1">
    <g>
      <path class="cls-2" d="M7.14,29.03h-3.91c-1.11,0-2.03.91-2.03,2.02v2.63H0v-2.63c0-1.78,1.46-3.23,3.23-3.23h3.91v1.21h0ZM30.04,33.68v-2.63c0-1.11-.91-2.02-2.03-2.02h-3.91v-1.21h3.91c1.78,0,3.23,1.45,3.23,3.23v2.63h-1.21Z"/>
      <path class="cls-5" d="M7.44,28.29c2.47,1.51,5.29,2.3,8.18,2.3s5.71-.79,8.18-2.3c-.85-.79-1.83-1.45-2.89-1.94l-.08-.04.05-.08c.12-.21.22-.43.32-.65l.03-.08.08.04c1.46.68,2.77,1.65,3.84,2.84l.07.07-.08.06c-2.8,1.95-6.1,3-9.52,3s-6.72-1.04-9.52-3l-.08-.06.07-.07c1.08-1.19,2.39-2.16,3.84-2.84l.08-.04.03.08c.09.22.2.44.32.65l.05.08-.08.04c-1.06.49-2.03,1.15-2.89,1.94h0Z"/>
      <path class="cls-1" d="M21.83,21.22v2.05c0,3.41-2.79,6.21-6.21,6.21s-6.21-2.79-6.21-6.21v-2.05c-2.41-.53-4.16-2.69-4.16-5.17v-5.68C5.25,4.67,9.92,0,15.62,0s10.37,4.67,10.37,10.37v5.68c0,2.48-1.75,4.64-4.16,5.17h0ZM21.58,20.35c2.03-.42,3.51-2.22,3.51-4.3v-5.68C25.09,5.17,20.83.91,15.62.91S6.16,5.17,6.16,10.37v5.68c0,2.07,1.48,3.88,3.51,4.3l.65.13v2.78c0,2.91,2.39,5.3,5.3,5.3s5.3-2.39,5.3-5.3v-2.78l.65-.13h0Z"/>
      <path class="cls-3" d="M20.5,16.49v.45c-.02,2.69-2.21,4.87-4.91,4.85-2.69-.01-4.87-2.21-4.85-4.9v-.45s.91,0,.91,0v.45c-.01,2.19,1.75,3.98,3.95,3.99,2.19.01,3.98-1.76,3.99-3.95v-.45s.91,0,.91,0h0Z"/>
      <path class="cls-4" d="M7.94,8.55h-3.28c-.95,0-1.73.78-1.73,1.73v2.61c0,1.69.99,3.22,2.52,3.93l.04.02v.04c.06.29.13.58.23.86l.06.17-.17-.06c-2.13-.71-3.58-2.72-3.58-4.97v-2.61c0-1.45,1.18-2.63,2.63-2.63h5.08c.99,0,2.11.41,2.91.99,1.36.98,2.18,2.53,2.22,4.2v.06s-.06.02-.06.02c-1.59.5-3.33.23-4.69-.75-1.2-.86-1.98-2.16-2.17-3.62h0ZM8.85,8.55c.19,1.16.82,2.2,1.79,2.89.94.67,2.11.95,3.26.77-.2-1.14-.83-2.16-1.78-2.83-.65-.46-1.58-.82-2.38-.82h-.88Z"/>
      <path class="cls-4" d="M23.31,8.55c-.19,1.46-.97,2.76-2.17,3.62-1.36.97-3.1,1.25-4.69.75l-.06-.02v-.06c.04-1.67.86-3.22,2.22-4.2.8-.58,1.92-.99,2.91-.99h5.08c1.45,0,2.63,1.18,2.63,2.63v2.61c0,2.24-1.44,4.23-3.54,4.96.13-.35.22-.72.27-1.1,1.44-.74,2.37-2.23,2.37-3.86v-2.61c0-.95-.78-1.73-1.73-1.73h-3.28ZM22.4,8.55h-.88c-.8,0-1.73.36-2.38.82-.94.68-1.58,1.69-1.78,2.83,1.14.18,2.31-.09,3.26-.77.96-.69,1.6-1.72,1.78-2.89h0Z"/>
    </g>
  </g>
</svg>