<?xml version="1.0" encoding="UTF-8"?>
<svg id="Layer_2" data-name="Layer 2" xmlns="http://www.w3.org/2000/svg" viewBox="0 0 27.31 33.18">
  <defs>
    <style>
      .cls-1 {
        fill: #ae7129;
      }

      .cls-1, .cls-2, .cls-3, .cls-4 {
        fill-rule: evenodd;
        stroke-width: 0px;
      }

      .cls-2 {
        fill: #fdc157;
      }

      .cls-3 {
        fill: #f79a2f;
      }

      .cls-4 {
        fill: #f7aaac;
      }
    </style>
  </defs>
  <g id="Layer_1-2" data-name="Layer 1">
    <g>
      <path class="cls-2" d="M10.72,29.22h-2.46c-2.15,0-3.9-1.75-3.9-3.9v-6.5h-2.08c-1.69,0-2.89-1.95-1.96-3.41C4.13,9.41,7.57,0,16.05,0c6.22,0,11.26,5.04,11.26,11.26,0,2.8-1.03,5.47-2.89,7.54v14.38h-1.16v-14.84c1.79-1.82,2.89-4.32,2.89-7.07,0-5.58-4.52-10.1-10.1-10.1C8.33,1.16,5.12,10.02,1.3,16.04c-.41.65.16,1.62.98,1.62h3.24v7.66c0,1.5,1.23,2.73,2.73,2.73h3.62v5.13h-1.16v-3.96h0Z"/>
      <path class="cls-4" d="M6.85,20.38c-.01,2.96,2.38,5.37,5.34,5.39,2.96.01,5.37-2.38,5.39-5.34v-.61s-1.22,0-1.22,0v.61c-.01,2.29-1.87,4.13-4.16,4.12-2.28-.01-4.13-1.87-4.12-4.15v-.61s-1.22,0-1.22,0v.61h0Z"/>
      <polygon class="cls-3" points="12.96 10.64 17.18 10.64 17.18 11.81 12.96 11.81 12.96 10.64 12.96 10.64"/>
      <path class="cls-1" d="M9.98,7.83c1.88,0,3.4,1.52,3.4,3.4s-1.52,3.4-3.4,3.4-3.4-1.52-3.4-3.4,1.52-3.4,3.4-3.4h0ZM9.98,8.99c1.23,0,2.23,1,2.23,2.23s-1,2.23-2.23,2.23-2.23-1-2.23-2.23,1-2.23,2.23-2.23h0Z"/>
      <path class="cls-3" d="M17.18,9.84h0c-.32,0-.58.26-.58.58v1.61c0,.32.26.58.58.58h0c.32,0,.58-.26.58-.58v-1.61c0-.32-.26-.58-.58-.58h0Z"/>
    </g>
  </g>
</svg>