<?xml version="1.0" encoding="UTF-8"?>
<svg id="Layer_2" data-name="Layer 2" xmlns="http://www.w3.org/2000/svg" viewBox="0 0 30.94 33.21">
  <defs>
    <style>
      .cls-1 {
        fill: #bbbcbf;
      }

      .cls-1, .cls-2, .cls-3, .cls-4, .cls-5, .cls-6, .cls-7 {
        fill-rule: evenodd;
        stroke-width: 0px;
      }

      .cls-2 {
        fill: #f48120;
      }

      .cls-3 {
        fill: #ed4c95;
      }

      .cls-4 {
        fill: #b93a26;
      }

      .cls-5 {
        fill: #9d3321;
      }

      .cls-6 {
        fill: #f05f77;
      }

      .cls-7 {
        fill: #ecd8c5;
      }
    </style>
  </defs>
  <g id="Layer_1-2" data-name="Layer 1">
    <g>
      <polygon class="cls-1" points="7.95 23.63 6.78 23.63 6.78 33.21 7.95 33.21 7.95 23.63 7.95 23.63"/>
      <polygon class="cls-1" points="24.16 23.63 22.99 23.63 22.99 33.21 24.16 33.21 24.16 23.63 24.16 23.63"/>
      <path class="cls-3" d="M3.99,11.26h1.06v1.05h-1.06c-1.61,0-2.93,1.32-2.93,2.93h0c0,1.61,1.32,2.93,2.93,2.93h1.06c0,.36.04.71.11,1.05h-1.17c-2.19,0-3.99-1.79-3.99-3.98h0c0-2.19,1.79-3.99,3.99-3.99h0ZM26.95,11.26h0c2.19,0,3.98,1.79,3.98,3.99h0c0,2.19-1.79,3.99-3.98,3.99h-1.17c.06-.34.1-.69.11-1.05h1.06c1.61,0,2.93-1.32,2.93-2.93h0c0-1.61-1.32-2.93-2.93-2.93h-1.06v-.13c.35-.07.7-.14,1.05-.23v-.69h0Z"/>
      <path class="cls-2" d="M21.53,25.37v.07c0,3.33-2.73,6.06-6.06,6.06h0c-3.34,0-6.06-2.73-6.06-6.06v-.07c-3.13-.97-5.42-3.9-5.42-7.34v-6.35h1.05v6.35c0,2.9,1.92,5.48,4.68,6.34l.74.23v.84c0,2.75,2.26,5.01,5.01,5.01s5.01-2.26,5.01-5.01v-.84l.74-.23c2.76-.86,4.68-3.44,4.68-6.34v-5.84c.35-.07.7-.14,1.05-.23v6.08c0,3.44-2.29,6.37-5.42,7.34h0Z"/>
      <path class="cls-7" d="M14.72,19.11h-5.93c-1.25,0-2.26-1.02-2.26-2.26v-2.69c0-.35.04-.69.11-1.02h3.37c2.59,0,4.72,2.12,4.72,4.72v1.27h0ZM13.42,17.82c-.02-1.87-1.55-3.4-3.42-3.4h-2.18v2.43c0,.53.44.97.97.97h4.64Z"/>
      <path class="cls-7" d="M24.31,13.13c.07.33.11.67.11,1.02v2.69c0,1.25-1.02,2.26-2.26,2.26h-5.93v-1.27c0-2.59,2.12-4.72,4.72-4.72h3.37ZM17.52,17.82c.01-1.87,1.55-3.4,3.42-3.4h2.18v2.43c0,.53-.44.97-.97.97h-4.63Z"/>
      <path class="cls-6" d="M15.47,27.51c-1.76,0-3.26-1.1-3.85-2.65h1.16c.52.95,1.53,1.6,2.7,1.6s2.18-.65,2.7-1.6h1.16c-.59,1.55-2.1,2.65-3.85,2.65h0Z"/>
      <path class="cls-5" d="M3.99,0h2.33c.1.36.21.71.33,1.05h-1.61v10.47c2.17-.94,4.08-2.34,5.62-4.07.25.25.5.49.76.72-1.98,2.22-4.53,3.92-7.43,4.87V0h0Z"/>
      <path class="cls-4" d="M13.21,1.05c3.35,3.97,7.54,6.56,12.69,7.52v1.18c-5.78-1.03-10.44-3.99-14.09-8.57l-.11-.13h1.5Z"/>
      <path class="cls-4" d="M21.23,1.05c1.11,1.78,2.67,2.99,4.67,3.66v1.22l-.17-.06c-2.48-.78-4.38-2.29-5.68-4.54l-.17-.29h1.35Z"/>
      <path class="cls-4" d="M6.32,0h20.63v11.95c-1.35.34-2.76.53-4.21.53C14.91,12.47,8.32,7.19,6.32,0h0ZM7.77,1.05c2.31,6.19,8.27,10.37,14.97,10.37,1.06,0,2.12-.1,3.16-.31V1.05H7.77Z"/>
    </g>
  </g>
</svg>