<?xml version="1.0" encoding="UTF-8"?>
<svg id="Layer_2" data-name="Layer 2" xmlns="http://www.w3.org/2000/svg" viewBox="0 0 30.52 31.56">
  <defs>
    <style>
      .cls-1 {
        fill: #4cbda1;
      }

      .cls-1, .cls-2, .cls-3, .cls-4, .cls-5, .cls-6 {
        fill-rule: evenodd;
        stroke-width: 0px;
      }

      .cls-2 {
        fill: #ca802a;
      }

      .cls-3 {
        fill: #ef5b72;
      }

      .cls-4 {
        fill: #f05643;
      }

      .cls-5 {
        fill: #f38480;
      }

      .cls-6 {
        fill: #f7b2ba;
      }
    </style>
  </defs>
  <g id="Layer_1-2" data-name="Layer 1">
    <g>
      <path class="cls-5" d="M7.92,21.05h1.38l.65,1.22h-.23c.45,1.38.67,2.83.67,4.29,0,1.72-.31,3.41-.93,5h-1.32c.66-1.54,1.02-3.23,1.02-5,0-1.97-.45-3.84-1.25-5.51h0ZM20.57,22.27l.65-1.22h1.38c-.8,1.67-1.25,3.54-1.25,5.51,0,1.78.37,3.47,1.02,5h-1.32c-.61-1.59-.93-3.28-.93-5,0-1.46.23-2.91.67-4.29h-.23Z"/>
      <path class="cls-2" d="M4.76,6.49c.56,0,1.1.1,1.6.28-.17.35-.32.71-.45,1.07-.36-.12-.75-.19-1.15-.19-1.98,0-3.59,1.61-3.59,3.59s1.61,3.59,3.59,3.59c.43,0,.84-.07,1.22-.21.14.36.3.72.48,1.06-.53.2-1.1.31-1.7.31-2.63,0-4.76-2.13-4.76-4.76s2.13-4.76,4.76-4.76h0Z"/>
      <path class="cls-2" d="M25.76,6.49c2.63,0,4.76,2.13,4.76,4.76s-2.13,4.76-4.76,4.76c-.6,0-1.17-.11-1.7-.31.18-.35.34-.7.48-1.06.38.14.79.21,1.22.21,1.98,0,3.59-1.61,3.59-3.59s-1.61-3.59-3.59-3.59c-.4,0-.79.07-1.15.19-.13-.37-.28-.73-.45-1.07.5-.18,1.04-.28,1.6-.28h0Z"/>
      <path class="cls-4" d="M5.43,16.38h0c-.84-1.56-1.32-3.35-1.32-5.24C4.12,5.01,9.13,0,15.26,0h0c6.13,0,11.14,5.01,11.14,11.14,0,1.86-.46,3.68-1.36,5.31h0l-3.91,7.35c-1.52,2.85-2.64,5.87-5.88,5.87h0c-3.23,0-4.36-3.02-5.88-5.87l-3.95-7.43h0ZM7.46,17.6l3,5.64c.75,1.42,1.79,3.87,3.15,4.76.5.33,1.05.47,1.65.47s1.14-.14,1.65-.47c1.36-.89,2.4-3.34,3.15-4.76l2.96-5.56h-.03l.99-1.81c.79-1.45,1.21-3.07,1.21-4.73,0-5.45-4.47-9.92-9.92-9.92S5.34,5.69,5.34,11.14c0,1.63.4,3.22,1.17,4.66l.96,1.8h0Z"/>
      <path class="cls-3" d="M17.64,19.85v4.24c0,1.31-1.07,2.38-2.38,2.38h0c-1.31,0-2.38-1.07-2.38-2.38v-4.24c0-1.31,1.07-2.37,2.38-2.37h0c1.31,0,2.38,1.07,2.38,2.37h0ZM16.47,19.85c0-.66-.55-1.21-1.21-1.21s-1.21.55-1.21,1.21v4.24c0,.66.55,1.21,1.21,1.21s1.21-.55,1.21-1.21v-4.24h0Z"/>
      <path class="cls-6" d="M10.97,6.94c2.06,0,3.74,1.67,3.74,3.74s-1.67,3.73-3.74,3.73-3.74-1.67-3.74-3.73,1.67-3.74,3.74-3.74h0ZM10.97,8.11c1.42,0,2.57,1.15,2.57,2.57s-1.15,2.57-2.57,2.57-2.57-1.15-2.57-2.57,1.15-2.57,2.57-2.57h0Z"/>
      <path class="cls-6" d="M19.55,6.94c2.06,0,3.74,1.67,3.74,3.74s-1.67,3.73-3.74,3.73-3.74-1.67-3.74-3.73,1.67-3.74,3.74-3.74h0ZM19.55,8.11c1.42,0,2.57,1.15,2.57,2.57s-1.15,2.57-2.57,2.57-2.57-1.15-2.57-2.57,1.15-2.57,2.57-2.57h0Z"/>
      <path class="cls-1" d="M11.88,8.46c.68,0,1.24.55,1.24,1.24s-.55,1.24-1.24,1.24-1.24-.55-1.24-1.24.55-1.24,1.24-1.24h0Z"/>
      <path class="cls-1" d="M18.75,8.37c.68,0,1.24.55,1.24,1.24s-.55,1.24-1.24,1.24-1.24-.55-1.24-1.24.55-1.24,1.24-1.24h0Z"/>
    </g>
  </g>
</svg>