<?xml version="1.0" encoding="UTF-8"?>
<svg id="Layer_2" data-name="Layer 2" xmlns="http://www.w3.org/2000/svg" viewBox="0 0 32.41 33.7">
  <defs>
    <style>
      .cls-1 {
        fill: #4cbda1;
      }

      .cls-1, .cls-2, .cls-3, .cls-4, .cls-5, .cls-6 {
        fill-rule: evenodd;
        stroke-width: 0px;
      }

      .cls-2 {
        fill: #e1cee4;
      }

      .cls-3 {
        fill: #fbb34f;
      }

      .cls-4 {
        fill: #e8d5ce;
      }

      .cls-5 {
        fill: #ed4c95;
      }

      .cls-6 {
        fill: #ec1c24;
      }
    </style>
  </defs>
  <g id="Layer_1-2" data-name="Layer 1">
    <g>
      <path class="cls-2" d="M0,33.7l2.06-4.88c1.06-2.5,2.38-5.15,5.52-5.15h2.35c.27.43.59.84.94,1.21h-3.3c-2.42,0-3.46,2.18-4.41,4.41l-1.86,4.41H0ZM31.09,33.7l-1.87-4.41c-.94-2.23-1.98-4.41-4.41-4.41h-3.1c.35-.37.67-.77.94-1.21h2.15c3.14,0,4.47,2.65,5.52,5.15l2.06,4.88h-1.31Z"/>
      <path class="cls-5" d="M18.63,18.8c1.32,0,2.4,1.08,2.4,2.4v1.44c0,1.32-1.08,2.4-2.4,2.4h-4.65c-1.32,0-2.4-1.08-2.4-2.4v-1.44c0-1.32,1.08-2.4,2.4-2.4h4.65ZM18.63,19.95h-4.65c-.69,0-1.25.56-1.25,1.25v1.44c0,.69.56,1.25,1.25,1.25h4.65c.69,0,1.25-.56,1.25-1.25v-1.44c0-.69-.56-1.25-1.25-1.25h0Z"/>
      <polygon class="cls-4" points="18.91 21.34 18.91 22.49 13.78 22.49 13.78 21.34 18.91 21.34 18.91 21.34"/>
      <path class="cls-6" d="M5.33,10.77v4.07c0,2.21,1.79,4.03,4,4.07h.3v1.15h-.31c-2.84-.05-5.14-2.38-5.14-5.23v-5.22h5.89l-.14.4c-.06.17-.11.34-.15.51l-.06.23h-4.38Z"/>
      <path class="cls-6" d="M27.27,10.77h-4.38l-.05-.23c-.04-.17-.09-.35-.15-.51l-.14-.4h5.89v5.22c0,2.84-2.3,5.18-5.14,5.22h-.31s0-1.15,0-1.15h.3c2.21-.04,4-1.86,4-4.08v-4.07h0Z"/>
      <polygon class="cls-4" points="23.81 18.31 22.66 18.31 22.66 4.13 23.81 4.13 23.81 18.31 23.81 18.31"/>
      <polygon class="cls-4" points="10.73 9.2 9.74 9.78 6.82 4.72 7.81 4.14 10.73 9.2 10.73 9.2"/>
      <path class="cls-4" d="M15.01,11.07c.59,0,1.07.48,1.07,1.07v3c0,.59-.48,1.07-1.07,1.07h-3c-.59,0-1.07-.48-1.07-1.07v-3c0-.59.48-1.07,1.07-1.07h3ZM15.01,12.15h-3s0,3,0,3h3s0-3,0-3h0Z"/>
      <path class="cls-4" d="M20.6,11.07c.59,0,1.07.48,1.07,1.07v3c0,.59-.48,1.07-1.07,1.07h-3c-.59,0-1.07-.48-1.07-1.07v-3c0-.59.48-1.07,1.07-1.07h3ZM20.6,12.15h-3s0,3,0,3h3s0-3,0-3h0Z"/>
      <path class="cls-3" d="M23.24,0c1.41,0,2.55,1.14,2.55,2.55s-1.14,2.55-2.55,2.55-2.55-1.14-2.55-2.55,1.14-2.55,2.55-2.55h0ZM23.24,1.15c-.78,0-1.4.63-1.4,1.4s.63,1.4,1.4,1.4,1.4-.63,1.4-1.4-.63-1.4-1.4-1.4h0Z"/>
      <path class="cls-3" d="M6.53.53c1.41,0,2.55,1.14,2.55,2.55s-1.14,2.55-2.55,2.55-2.55-1.14-2.55-2.55S5.12.53,6.53.53h0ZM6.53,1.68c-.78,0-1.4.63-1.4,1.4s.63,1.4,1.4,1.4,1.4-.63,1.4-1.4-.63-1.4-1.4-1.4h0Z"/>
      <path class="cls-1" d="M16.3,28.36c-4.13,0-7.51-3.38-7.51-7.51v-9.13c0-3.15,2.58-5.73,5.73-5.73h3.57c3.15,0,5.72,2.58,5.72,5.73v9.13c0,4.13-3.38,7.51-7.51,7.51h0ZM16.3,27.21c3.49,0,6.36-2.86,6.36-6.36v-9.13c0-2.51-2.06-4.57-4.57-4.57h-3.57c-2.51,0-4.58,2.06-4.58,4.57v9.13c0,3.49,2.86,6.36,6.36,6.36h0Z"/>
    </g>
  </g>
</svg>