<?xml version="1.0" encoding="UTF-8"?>
<svg id="Layer_2" data-name="Layer 2" xmlns="http://www.w3.org/2000/svg" viewBox="0 0 29.39 32.27">
  <defs>
    <style>
      .cls-1 {
        fill: #fff;
      }

      .cls-1, .cls-2, .cls-3, .cls-4 {
        fill-rule: evenodd;
        stroke-width: 0px;
      }

      .cls-2 {
        fill: #f48a86;
      }

      .cls-3 {
        fill: #ffead9;
      }

      .cls-4 {
        fill: #f6f7fb;
      }
    </style>
  </defs>
  <g id="Layer_1-2" data-name="Layer 1">
    <g>
      <path class="cls-1" d="M14.15,23.57c-1.28.72-2.9.77-4.27-.02-.86-.49-1.48-1.24-1.83-2.09.16.12.33.24.51.35,1.43.83,3.14.74,4.45-.08.04-.03.08-.05.12-.07.52-.27,1.16-.09,1.45.42.3.52.12,1.19-.4,1.49,0,0-.02.01-.03.02h0Z"/>
      <path class="cls-1" d="M16.25,21.65c-.51-.27-1.15-.09-1.45.42-.29.51-.13,1.16.37,1.47.02.01.04.02.06.03,1.29.72,2.91.77,4.28-.02.86-.5,1.48-1.24,1.83-2.09-.16.12-.33.24-.51.35-1.43.83-3.14.74-4.45-.08-.04-.03-.08-.05-.13-.08h0Z"/>
      <path class="cls-2" d="M20.95,26.25v6.01h-1.16v-4.6c.44-.42.83-.9,1.16-1.42h0ZM9.6,32.27h-1.16v-6.01c.33.52.72.99,1.16,1.42v4.6h0Z"/>
      <path class="cls-2" d="M24.84.79c-1.65,0-3.1.88-3.89,2.2.33.21.65.44.95.67.58-1.02,1.68-1.71,2.94-1.71,1.87,0,3.38,1.51,3.38,3.38,0,1.6-1.12,2.95-2.62,3.29.14.36.27.73.37,1.11,1.96-.5,3.41-2.28,3.41-4.4,0-2.51-2.04-4.55-4.55-4.55h0Z"/>
      <path class="cls-2" d="M4.55.79C2.04.79,0,2.82,0,5.33c0,2.12,1.45,3.9,3.41,4.4.11-.38.23-.75.37-1.11-1.5-.35-2.62-1.69-2.62-3.29,0-1.87,1.51-3.38,3.38-3.38,1.26,0,2.36.69,2.94,1.71.31-.24.62-.46.95-.67-.8-1.32-2.24-2.2-3.89-2.2h0Z"/>
      <path class="cls-4" d="M14.69,0c7.09,0,12.88,5.79,12.88,12.88v7.76h-5.48v-1.16h4.32v-6.6c0-6.44-5.27-11.72-11.72-11.72h0C8.25,1.16,2.98,6.44,2.98,12.88v6.6h4.31v1.16H1.81v-7.76C1.81,5.79,7.61,0,14.69,0h0Z"/>
      <path class="cls-2" d="M14.69,3.64c4.71,0,8.57,3.85,8.57,8.56v10.1c0,4.71-3.85,8.56-8.57,8.56s-8.56-3.85-8.56-8.56v-10.1c0-4.71,3.85-8.56,8.56-8.56h0ZM14.69,4.81h0c-4.07,0-7.4,3.33-7.4,7.4v.55h-1.14v2.02h1.14v7.52c0,4.07,3.33,7.4,7.4,7.4h0c4.07,0,7.4-3.33,7.4-7.4v-7.52h1.14v-2.02h-1.14v-.55c0-4.07-3.33-7.4-7.4-7.4h0Z"/>
      <path class="cls-3" d="M25.36,11.69H4.03v4.18h21.33v-4.18h0ZM13.85,12.76h-7.7v2.02h7.7v-2.02h0ZM23.24,12.76h-7.7v2.02h7.7v-2.02h0Z"/>
    </g>
  </g>
</svg>