<?xml version="1.0" encoding="UTF-8"?>
<svg id="Layer_2" data-name="Layer 2" xmlns="http://www.w3.org/2000/svg" viewBox="0 0 28.97 33.14">
  <defs>
    <style>
      .cls-1 {
        fill: #a6a8ab;
      }

      .cls-1, .cls-2, .cls-3, .cls-4, .cls-5, .cls-6, .cls-7 {
        fill-rule: evenodd;
        stroke-width: 0px;
      }

      .cls-2 {
        fill: #bbbcbf;
      }

      .cls-3 {
        fill: #ec1e24;
      }

      .cls-4 {
        fill: #a15641;
      }

      .cls-5 {
        fill: #ecd8c5;
      }

      .cls-6 {
        fill: #f39e1e;
      }

      .cls-7 {
        fill: #f8fbf7;
      }
    </style>
  </defs>
  <g id="Layer_1-2" data-name="Layer 1">
    <g>
      <path class="cls-1" d="M7.11,4.1L3.11,1.46l.97,2.99-4.08-.44,2.79,2.14-1.98,1.54,3.97-.39c.57-1.21,1.37-2.29,2.33-3.2h0Z"/>
      <path class="cls-1" d="M21.87,4.1l3.99-2.64-.97,2.99,4.08-.44-2.79,2.14,1.98,1.54-3.97-.39c-.57-1.21-1.37-2.29-2.33-3.2h0Z"/>
      <path class="cls-7" d="M19.18,21.58v4.75h-1.16v-4.27c.4-.14.79-.3,1.16-.48h0ZM10.96,22.06v4.27h-1.16v-4.75c.38.18.76.34,1.16.48h0Z"/>
      <path class="cls-5" d="M14.49,0c6.58,0,11.91,5.33,11.91,11.91s-5.33,11.91-11.91,11.91S2.58,18.48,2.58,11.91,7.91,0,14.49,0h0ZM14.49,1.16c5.93,0,10.74,4.81,10.74,10.74s-4.81,10.74-10.74,10.74S3.74,17.84,3.74,11.91,8.55,1.16,14.49,1.16h0Z"/>
      <path class="cls-3" d="M23.22,11.68h-1.27s0,.64,0,.64c.02,4.12-3.31,7.48-7.43,7.5-4.12.02-7.48-3.31-7.5-7.43v-.64s-1.28,0-1.28,0v.64c.03,4.82,3.95,8.72,8.78,8.7,4.82-.02,8.72-3.95,8.7-8.77v-.64h0Z"/>
      <path class="cls-2" d="M.51,33.14l.05-.23c.85-4.2,4.58-7.27,8.88-7.27h10.11c4.3,0,8.03,3.06,8.88,7.27l.05.23h-1.19c-.73-3.6-3.93-6.33-7.73-6.33h-10.11c-3.81,0-7.01,2.73-7.73,6.33H.51Z"/>
      <polygon class="cls-6" points="13.88 5.03 15.09 5.03 15.09 16.38 13.88 16.38 13.88 5.03 13.88 5.03"/>
      <path class="cls-4" d="M20.68,10.91c1.6-.93,2.15-2.98,1.23-4.58-.93-1.6-2.98-2.15-4.58-1.23-1.6.93-2.15,2.98-1.23,4.58.93,1.6,2.98,2.15,4.58,1.23h0ZM20.09,9.9c1.05-.6,1.4-1.94.8-2.99-.6-1.05-1.94-1.41-2.99-.8-1.05.6-1.41,1.94-.8,2.99.6,1.04,1.94,1.41,2.99.8h0Z"/>
      <path class="cls-4" d="M11.65,5.1c-1.6-.93-3.65-.38-4.58,1.23-.93,1.6-.38,3.65,1.23,4.58,1.6.93,3.65.38,4.58-1.23.93-1.6.38-3.65-1.23-4.58h0ZM11.07,6.11c-1.05-.6-2.39-.24-2.99.8-.6,1.05-.24,2.39.8,2.99,1.05.6,2.39.24,2.99-.8.6-1.05.24-2.39-.8-2.99h0Z"/>
    </g>
  </g>
</svg>