<?xml version="1.0" encoding="UTF-8"?>
<svg id="Layer_2" data-name="Layer 2" xmlns="http://www.w3.org/2000/svg" viewBox="0 0 23.45 34.03">
  <defs>
    <style>
      .cls-1 {
        fill: #fbd2c0;
      }

      .cls-1, .cls-2, .cls-3, .cls-4 {
        fill-rule: evenodd;
        stroke-width: 0px;
      }

      .cls-2 {
        fill: #fff;
      }

      .cls-3 {
        fill: #f05643;
      }

      .cls-4 {
        fill: #f8f8fb;
      }
    </style>
  </defs>
  <g id="Layer_1-2" data-name="Layer 1">
    <g>
      <path class="cls-1" d="M4.13,17.2H0L3.51,7.01c.02-.07.05-.15.07-.21l.02-.05h0C5.06,2.7,8.91,0,13.22,0c5.65,0,10.23,4.58,10.23,10.23,0,2.73-1.08,5.32-3,7.23v16.57h-1.16v-17.07c1.84-1.66,3-4.06,3-6.73,0-5.01-4.06-9.06-9.06-9.06-3.92,0-7.26,2.49-8.52,5.97h0l-.02.05c-.02.06-.04.13-.07.2l-2.98,8.66h3.66v12.46h0c0,1.21.99,2.2,2.19,2.2h4.4v3.33h-1.17v-2.17h-3.23c-1.85,0-3.36-1.51-3.36-3.36v-11.3h0Z"/>
      <path class="cls-3" d="M13.22,4.09c3.39,0,6.14,2.75,6.14,6.14s-2.75,6.14-6.14,6.14-6.14-2.75-6.14-6.14,2.75-6.14,6.14-6.14h0ZM13.22,5.25c-2.75,0-4.98,2.23-4.98,4.98s2.23,4.98,4.98,4.98,4.98-2.23,4.98-4.98-2.23-4.98-4.98-4.98h0Z"/>
      <path class="cls-2" d="M5.29,18.38h3.59c.56,0,1.02.46,1.02,1.02h0c0,.56-.46,1.02-1.02,1.02h-3.59v-2.05h0Z"/>
      <path class="cls-4" d="M13.22,6.91c1.83,0,3.32,1.49,3.32,3.32s-1.49,3.32-3.32,3.32-3.32-1.49-3.32-3.32,1.49-3.32,3.32-3.32h0ZM13.22,8.07c1.19,0,2.16.97,2.16,2.16s-.97,2.16-2.16,2.16-2.16-.97-2.16-2.16.96-2.16,2.16-2.16h0Z"/>
    </g>
  </g>
</svg>