<?xml version="1.0" encoding="UTF-8"?>
<svg id="Layer_2" data-name="Layer 2" xmlns="http://www.w3.org/2000/svg" viewBox="0 0 28.28 33.89">
  <defs>
    <style>
      .cls-1 {
        fill: #ef5b72;
      }

      .cls-1, .cls-2, .cls-3, .cls-4, .cls-5, .cls-6 {
        fill-rule: evenodd;
        stroke-width: 0px;
      }

      .cls-2 {
        fill: #fdc157;
      }

      .cls-3 {
        fill: #f6abb6;
      }

      .cls-4 {
        fill: #eb008b;
      }

      .cls-5 {
        fill: #fff;
      }

      .cls-6 {
        fill: #8dd7f7;
      }
    </style>
  </defs>
  <g id="Layer_1-2" data-name="Layer 1">
    <g>
      <path class="cls-5" d="M2.15,3.22h8.93v1.16H2.15v-1.16h0ZM17.16,3.22h8.97v1.16h-8.97v-1.16h0Z"/>
      <path class="cls-4" d="M2.15,1.65c1.19,0,2.15.96,2.15,2.15s-.96,2.15-2.15,2.15S0,4.98,0,3.79.96,1.65,2.15,1.65h0Z"/>
      <path class="cls-4" d="M26.13,1.65c1.19,0,2.15.96,2.15,2.15s-.96,2.15-2.15,2.15-2.15-.96-2.15-2.15.96-2.15,2.15-2.15h0Z"/>
      <path class="cls-3" d="M9.79,31.01v-1.98c-2.31-1.48-3.75-4.04-3.75-6.83v-.58c.17.04.35.07.53.07h.63v.51c0,2.67,1.53,5,3.75,6.16v3.51c-1.37.34-2.6,1.05-3.56,2.02h-1.64l.76-.77c.92-.94,2.05-1.66,3.28-2.11h0ZM22.24,21.63v.58c0,2.82-1.48,5.41-3.84,6.88v1.93c1.23.45,2.35,1.17,3.28,2.11l.76.77h-1.64c-.97-.97-2.2-1.68-3.56-2.02v-3.47c2.27-1.14,3.84-3.5,3.84-6.2v-.51h.63c.18,0,.36-.02.53-.07h0Z"/>
      <path class="cls-2" d="M17.84,6.1h1.65c2.98,0,5.42,2.44,5.42,5.42v1.06h.41c1.22,0,2.22,1,2.22,2.22s-1,2.22-2.22,2.22h-1.49v-1.16h1.49c.58,0,1.06-.47,1.06-1.06h0c0-.58-.48-1.05-1.06-1.05h-1.58v-2.22c0-2.34-1.91-4.26-4.26-4.26h-2.81v-3.56c0-1.39-1.14-2.53-2.53-2.53h0c-1.4,0-2.54,1.14-2.54,2.53v3.56h-2.81c-2.34,0-4.26,1.92-4.26,4.26v2.22h-1.66c-.58,0-1.05.47-1.05,1.05h0c0,.58.47,1.06,1.05,1.06h1.58v1.16h-1.58c-1.22,0-2.22-1-2.22-2.22s1-2.22,2.22-2.22h.49v-1.06c0-2.98,2.44-5.42,5.42-5.42h1.65v-2.4c0-2.04,1.66-3.7,3.7-3.7s3.7,1.66,3.7,3.7v2.4h0Z"/>
      <path class="cls-6" d="M6.57,12.25h5.22c1.16,0,2.11.95,2.11,2.11v1.06h0v4.15c0,1.16-.95,2.11-2.11,2.11h-5.22c-1.16,0-2.11-.95-2.11-2.11v-5.22c0-1.16.95-2.11,2.11-2.11h0ZM6.88,13.44h4.6c.68,0,1.23.55,1.23,1.23v4.6c0,.68-.55,1.23-1.23,1.23h-4.6c-.68,0-1.23-.55-1.23-1.23v-4.6c0-.68.55-1.23,1.23-1.23h0Z"/>
      <path class="cls-6" d="M16.49,12.25h5.22c1.16,0,2.11.95,2.11,2.11v5.22c0,1.16-.95,2.11-2.11,2.11h-5.22c-1.16,0-2.11-.95-2.11-2.11v-5.22c0-1.16.95-2.11,2.11-2.11h0ZM16.8,13.44h4.6c.68,0,1.23.55,1.23,1.23v4.6c0,.68-.55,1.23-1.23,1.23h-4.6c-.68,0-1.23-.55-1.23-1.23v-4.6c0-.68.55-1.23,1.23-1.23h0Z"/>
      <path class="cls-1" d="M13.06,24.13h4.52c.32,0,.58.26.58.58h0c0,.32-.26.58-.58.58h-4.52c-.32,0-.58-.26-.58-.58h0c0-.32.26-.58.58-.58h0Z"/>
    </g>
  </g>
</svg>