<?xml version="1.0" encoding="UTF-8"?>
<svg id="Layer_2" data-name="Layer 2" xmlns="http://www.w3.org/2000/svg" viewBox="0 0 22.48 32.87">
  <defs>
    <style>
      .cls-1 {
        fill: #e14835;
      }

      .cls-1, .cls-2, .cls-3, .cls-4, .cls-5, .cls-6 {
        fill-rule: evenodd;
        stroke-width: 0px;
      }

      .cls-2 {
        fill: #cdb0bf;
      }

      .cls-3 {
        fill: #fbb142;
      }

      .cls-4 {
        fill: #fff;
      }

      .cls-5 {
        fill: #f05643;
      }

      .cls-6 {
        fill: #f8a98e;
      }
    </style>
  </defs>
  <g id="Layer_1-2" data-name="Layer 1">
    <g>
      <path class="cls-2" d="M21.47,24.97v-13.73c0-5.63-4.61-10.23-10.23-10.23S1.01,5.62,1.01,11.24v13.73H0v-13.73C0,5.06,5.06,0,11.24,0s11.24,5.06,11.24,11.24v13.73h-1.01Z"/>
      <path class="cls-3" d="M7,4.15h8.49c1.14,0,2.07.93,2.07,2.07v6.86c0,3.48-2.84,6.32-6.32,6.32s-6.32-2.84-6.32-6.32v-6.86c0-1.14.93-2.07,2.07-2.07h0ZM7,5.19c-.57,0-1.03.47-1.03,1.03v6.86c0,2.9,2.37,5.28,5.28,5.28s5.28-2.37,5.28-5.28v-6.86c0-.57-.46-1.03-1.03-1.03H7Z"/>
      <path class="cls-6" d="M16.14,32.87v-5.77h1.04v5.77h-1.04ZM5.31,32.87v-5.77h1.04v5.77h-1.04Z"/>
      <path class="cls-6" d="M16.62,19.16c3.24,0,5.86,2.61,5.86,5.83s-2.62,5.83-5.86,5.83-5.86-2.61-5.86-5.83,2.62-5.83,5.86-5.83h0ZM16.62,20.16c2.67,0,4.83,2.16,4.83,4.83s-2.16,4.83-4.83,4.83c-2.67,0-4.83-2.16-4.83-4.83s2.16-4.83,4.83-4.83h0Z"/>
      <path class="cls-6" d="M5.83,19.16c3.22,0,5.83,2.61,5.83,5.83s-2.61,5.83-5.83,5.83S0,28.2,0,24.99s2.61-5.83,5.83-5.83h0ZM5.87,20.16c2.67,0,4.83,2.16,4.83,4.83s-2.16,4.83-4.83,4.83c-2.67,0-4.83-2.16-4.83-4.83s2.16-4.83,4.83-4.83h0Z"/>
      <polygon class="cls-6" points="6.35 32.51 5.31 32.51 5.31 25.76 6.35 25.76 6.35 32.51 6.35 32.51"/>
      <polygon class="cls-6" points="16.14 32.87 16.14 26.2 17.19 26.2 17.19 32.87 16.14 32.87 16.14 32.87"/>
      <path class="cls-5" d="M5.87,23c1.1,0,1.98.89,1.98,1.98s-.89,1.98-1.98,1.98-1.98-.89-1.98-1.98.89-1.98,1.98-1.98h0Z"/>
      <path class="cls-5" d="M16.62,23c1.1,0,1.98.89,1.98,1.98s-.89,1.98-1.98,1.98-1.98-.89-1.98-1.98.89-1.98,1.98-1.98h0Z"/>
      <path class="cls-4" d="M8.89,8.02c.88,0,1.59.71,1.59,1.59s-.71,1.59-1.59,1.59-1.59-.71-1.59-1.59.71-1.59,1.59-1.59h0Z"/>
      <path class="cls-4" d="M13.6,8.02c.88,0,1.59.71,1.59,1.59s-.71,1.59-1.59,1.59-1.59-.71-1.59-1.59.71-1.59,1.59-1.59h0Z"/>
      <path class="cls-1" d="M11.24,13.51h0c.47,0,.85.38.85.85v1.73c0,.47-.38.85-.85.85h0c-.47,0-.85-.38-.85-.85v-1.73c0-.47.38-.85.85-.85h0Z"/>
    </g>
  </g>
</svg>