<?xml version="1.0" encoding="UTF-8"?>
<svg id="Layer_2" data-name="Layer 2" xmlns="http://www.w3.org/2000/svg" viewBox="0 0 28.3 31.94">
  <defs>
    <style>
      .cls-1 {
        fill: #4cbda1;
      }

      .cls-1, .cls-2, .cls-3 {
        fill-rule: evenodd;
        stroke-width: 0px;
      }

      .cls-2 {
        fill: #eb008b;
      }

      .cls-3 {
        fill: #f05643;
      }
    </style>
  </defs>
  <g id="Layer_1-2" data-name="Layer 1">
    <g>
      <path class="cls-1" d="M10.95,1.16h-.17C5.49,1.16,1.16,5.49,1.16,10.78v21.17H0V10.78C0,4.85,4.85,0,10.77,0h.02l.15,1.16h0Z"/>
      <path class="cls-3" d="M10.35,15.15c-.92-.75-1.47-1.89-1.47-3.12,0-1.86,1.26-3.43,2.98-3.9l-.73-5.59h0l-.32-2.55h3.04c5.12,0,9.64,3.36,11.12,8.25l3.17,7.88c.61,1.5-.42,3.28-2.09,3.28h-.15v4.01c0,2.2-1.79,3.99-3.99,3.99h-2.89v4.53h-1.17v-5.7h4.06c1.56,0,2.83-1.27,2.83-2.83v-5.17h1.31c.85,0,1.32-.94,1.01-1.68l-3.19-7.93c-1.29-4.32-5.28-7.46-10.02-7.47h-1.72l.03.22h0l1.01,7.79c-.08,0-.17-.01-.25-.01-1.59,0-2.87,1.29-2.87,2.87,0,1.21.75,2.25,1.81,2.67-.28.35-.45.79-.45,1.26,0,1.12.9,2.02,2.02,2.02.31,0,.6-.07.86-.19l1.84,14.14h-1.17l-1.67-12.79c-1.69-.07-3.05-1.47-3.05-3.18,0-.28.04-.55.11-.82h0Z"/>
      <path class="cls-2" d="M19.61,8.43c1.55,0,2.81,1.26,2.81,2.81s-1.26,2.81-2.81,2.81-2.81-1.26-2.81-2.81,1.26-2.81,2.81-2.81h0ZM19.61,9.59c-.91,0-1.65.74-1.65,1.65s.74,1.65,1.65,1.65,1.65-.74,1.65-1.65-.74-1.65-1.65-1.65h0Z"/>
    </g>
  </g>
</svg>