<?xml version="1.0" encoding="UTF-8"?>
<svg id="Layer_2" data-name="Layer 2" xmlns="http://www.w3.org/2000/svg" viewBox="0 0 32.12 33.2">
  <defs>
    <style>
      .cls-1 {
        fill: #d8a0c4;
      }

      .cls-1, .cls-2, .cls-3, .cls-4, .cls-5 {
        fill-rule: evenodd;
        stroke-width: 0px;
      }

      .cls-2 {
        fill: #d0d2d3;
      }

      .cls-3 {
        fill: #e5e6e7;
      }

      .cls-4 {
        fill: #f48120;
      }

      .cls-5 {
        fill: #f05643;
      }
    </style>
  </defs>
  <g id="Layer_1-2" data-name="Layer 1">
    <g>
      <path class="cls-5" d="M4.81,11h1.3c0,.06,0,.11,0,.16v1.06h-1.3c-1.97,0-3.59,1.61-3.59,3.59h0c0,1.97,1.61,3.59,3.59,3.59h1.35c.04.42.1.83.19,1.23h-1.54c-2.65,0-4.81-2.17-4.81-4.81h0c0-2.65,2.17-4.81,4.81-4.81h0ZM26,11h1.3c2.65,0,4.81,2.16,4.81,4.81h0c0,2.65-2.16,4.81-4.81,4.81h-1.54c.09-.4.15-.81.19-1.23h1.34c1.97,0,3.59-1.61,3.59-3.59h0c0-1.97-1.61-3.59-3.59-3.59h-1.3v-1.06c0-.06,0-.11,0-.16h0Z"/>
      <path class="cls-2" d="M8.92,25.39v7.81h-1.23v-9.35c.36.55.77,1.07,1.23,1.54h0ZM24.42,23.85v9.35h-1.23v-7.81c.46-.47.87-.99,1.23-1.54h0Z"/>
      <path class="cls-1" d="M16.06,0c6.14,0,11.17,5.02,11.17,11.17v7.32c0,6.14-5.02,11.17-11.17,11.17s-11.17-5.02-11.17-11.17v-7.32C4.89,5.02,9.91,0,16.06,0h0ZM16.06,1.23h0c5.47,0,9.94,4.47,9.94,9.94v7.32c0,5.47-4.47,9.94-9.94,9.94h0c-5.47,0-9.94-4.47-9.94-9.94v-7.32C6.12,5.7,10.59,1.23,16.06,1.23h0Z"/>
      <path class="cls-4" d="M7.63,11h16.85v7.51c0,4.63-3.79,8.43-8.43,8.43s-8.43-3.79-8.43-8.43v-7.51h0ZM8.86,12.23v6.28c0,3.96,3.24,7.2,7.2,7.2s7.2-3.25,7.2-7.2v-6.28h-14.4Z"/>
      <path class="cls-5" d="M10.68,18.75c-.02,2.97,2.38,5.39,5.35,5.4,2.97.02,5.39-2.38,5.41-5.35v-.61s-1.23,0-1.23,0v.61c-.02,2.29-1.88,4.14-4.17,4.12-2.29-.01-4.14-1.88-4.13-4.17v-.61s-1.22,0-1.22,0v.61h0Z"/>
      <path class="cls-3" d="M13.06,14.11c.71,0,1.29.58,1.29,1.29s-.58,1.29-1.29,1.29-1.29-.58-1.29-1.29.58-1.29,1.29-1.29h0Z"/>
      <path class="cls-3" d="M19.05,14.11c.71,0,1.29.58,1.29,1.29s-.58,1.29-1.29,1.29-1.29-.58-1.29-1.29.58-1.29,1.29-1.29h0Z"/>
    </g>
  </g>
</svg>