<?xml version="1.0" encoding="UTF-8"?>
<svg id="Layer_2" data-name="Layer 2" xmlns="http://www.w3.org/2000/svg" viewBox="0 0 25.55 32.5">
  <defs>
    <style>
      .cls-1 {
        fill: #d24887;
      }

      .cls-1, .cls-2, .cls-3 {
        fill-rule: evenodd;
        stroke-width: 0px;
      }

      .cls-2 {
        fill: #f79a2f;
      }

      .cls-3 {
        fill: #ffe9ce;
      }
    </style>
  </defs>
  <g id="Layer_1-2" data-name="Layer 1">
    <g>
      <path class="cls-2" d="M22.5,22.98v2.43c0,.84.69,1.52,1.52,1.52s1.52-.69,1.52-1.52v.95c0,1.75-1.34,3.19-3.05,3.36v.63h-.62v-1.74h-.69v-.08l1.18-.11c.31-.03.6-.13.85-.28-1.17-.34-2.03-1.43-2.03-2.72v-14.97c0-2.48-1.12-4.71-2.88-6.21-1.86-1.85-4.37-2.91-7.03-2.91-.33,0-.65.02-.97.05.86-.26,1.77-.4,2.71-.4h0c5.22,0,9.48,4.27,9.48,9.48v12.54h0ZM4.85,11.87v13.54c0,1.28-.86,2.37-2.04,2.72.25.15.54.25.85.28l.67.06v1.87h-.8v-.63c-1.7-.17-3.05-1.61-3.05-3.36v-.95c0,.84.68,1.52,1.52,1.52s1.52-.69,1.52-1.52v-13.54h1.31Z"/>
      <path class="cls-1" d="M22.5,32.5v-3.42c0-3.24-2.54-5.91-5.73-6.11v1.31c2.47.2,4.43,2.29,4.43,4.8v3.42h1.31ZM9.28,22.98c-3.19.2-5.73,2.87-5.73,6.11v3.42h1.31v-3.42c0-2.52,1.96-4.6,4.43-4.8v-1.31h0Z"/>
      <path class="cls-3" d="M9.28,21.95c-2.08-1.27-3.48-3.57-3.48-6.18v-3.9h1.13v3.9c0,2.42,1.43,4.52,3.48,5.51v3.46c0,1.44,1.18,2.62,2.62,2.62h0c1.44,0,2.62-1.18,2.62-2.62v-3.46c2.06-.98,3.48-3.09,3.48-5.51v-3.98c0-.82-.17-1.6-.46-2.32.12-.36.19-.74.19-1.14v-.79c.88,1.2,1.4,2.67,1.4,4.26v3.98c0,2.61-1.4,4.91-3.49,6.18v2.79c0,2.06-1.68,3.75-3.75,3.75s-3.75-1.68-3.75-3.75v-2.79h0Z"/>
      <path class="cls-2" d="M11.28,0h0c3.6,0,6.81,1.7,8.88,4.34v3.98c0,2.67-2.18,4.85-4.85,4.85H0v-1.9C0,5.08,5.08,0,11.28,0h0ZM1.31,11.87h14.01c1.94,0,3.54-1.6,3.54-3.54v-3.52c-1.89-2.21-4.64-3.5-7.57-3.5C5.8,1.31,1.31,5.8,1.31,11.28v.59h0Z"/>
    </g>
  </g>
</svg>