<?xml version="1.0" encoding="UTF-8"?>
<svg id="Layer_2" data-name="Layer 2" xmlns="http://www.w3.org/2000/svg" viewBox="0 0 28.98 33.07">
  <defs>
    <style>
      .cls-1 {
        fill: #f5accc;
      }

      .cls-1, .cls-2, .cls-3 {
        fill-rule: evenodd;
        stroke-width: 0px;
      }

      .cls-2 {
        fill: #fbd2c0;
      }

      .cls-3 {
        fill: #fff;
      }
    </style>
  </defs>
  <g id="Layer_1-2" data-name="Layer 1">
    <g>
      <path class="cls-1" d="M6.25,26.4C2.35,23.71,0,19.27,0,14.49,0,6.49,6.49,0,14.49,0s14.49,6.49,14.49,14.49c0,4.78-2.35,9.22-6.25,11.92v6.66h-1.16v-7.29c3.75-2.36,6.25-6.53,6.25-11.29,0-7.36-5.97-13.32-13.32-13.32S1.16,7.13,1.16,14.49c0,4.76,2.5,8.93,6.25,11.29v7.29h-1.17v-6.66h0Z"/>
      <path class="cls-2" d="M14.49,4.27c5.64,0,10.22,4.58,10.22,10.22s-4.58,10.22-10.22,10.22-10.22-4.58-10.22-10.22S8.84,4.27,14.49,4.27h0ZM14.49,5.43c-5,0-9.06,4.06-9.06,9.06s4.05,9.06,9.06,9.06,9.06-4.06,9.06-9.06-4.06-9.06-9.06-9.06h0Z"/>
      <polygon class="cls-1" points="18.51 18.75 18.51 17.58 10.47 17.58 10.47 18.75 18.51 18.75 18.51 18.75"/>
      <polygon class="cls-1" points="9.89 19.55 11.05 19.55 11.05 16.78 9.89 16.78 9.89 19.55 9.89 19.55"/>
      <polygon class="cls-1" points="17.92 19.55 19.09 19.55 19.09 16.78 17.92 16.78 17.92 19.55 17.92 19.55"/>
      <path class="cls-3" d="M11.51,9.81c.69,0,1.25.56,1.25,1.25s-.56,1.25-1.25,1.25-1.25-.56-1.25-1.25.56-1.25,1.25-1.25h0Z"/>
      <path class="cls-3" d="M17.46,9.81c.69,0,1.24.56,1.24,1.25s-.56,1.25-1.24,1.25-1.25-.56-1.25-1.25.56-1.25,1.25-1.25h0Z"/>
    </g>
  </g>
</svg>