<?xml version="1.0" encoding="UTF-8"?>
<svg id="Layer_2" data-name="Layer 2" xmlns="http://www.w3.org/2000/svg" viewBox="0 0 26.6 34.31">
  <defs>
    <style>
      .cls-1 {
        fill: #ef5b72;
      }

      .cls-1, .cls-2, .cls-3, .cls-4 {
        fill-rule: evenodd;
        stroke-width: 0px;
      }

      .cls-2 {
        fill: #ffca05;
      }

      .cls-3 {
        fill: #ffdca6;
      }

      .cls-4 {
        fill: #f48120;
      }
    </style>
  </defs>
  <g id="Layer_1-2" data-name="Layer 1">
    <g>
      <path class="cls-2" d="M25,14.44v5.11h-2.39c.08-.38.13-.77.16-1.16h1.07v-4.45c.97-.81,1.6-2.04,1.6-3.4h0c0-2.22-1.65-4.07-3.78-4.38-.23-.42-.49-.83-.78-1.21h.13c3.08,0,5.59,2.51,5.59,5.59,0,1.47-.58,2.87-1.6,3.91h0ZM3.99,19.56H1.62v-5.08c-1.03-1.04-1.62-2.45-1.62-3.93,0-3.08,2.51-5.59,5.59-5.59h.13c-.29.38-.55.79-.78,1.21-2.13.32-3.78,2.17-3.78,4.38h0c0,1.37.63,2.61,1.62,3.42v4.43h1.04c.03.39.09.78.16,1.16h0Z"/>
      <path class="cls-4" d="M21.43,24.54v7.37c.59.51,1.13,1.07,1.62,1.68l.58.73h-1.49c-.55-.69-1.18-1.31-1.88-1.85v-8.36c1.57-1.7,2.54-3.96,2.54-6.45v-6.99c0-5.23-4.28-9.5-9.5-9.5h0C8.07,1.16,3.8,5.44,3.8,10.66v6.99c0,2.41.91,4.62,2.41,6.3v8.61c-.64.52-1.23,1.11-1.74,1.75h-1.49l.58-.73c.45-.56.95-1.08,1.49-1.56v-7.64c-1.55-1.9-2.41-4.26-2.41-6.73v-6.99C2.63,4.8,7.43,0,13.3,0s10.67,4.8,10.67,10.66v6.99c0,2.54-.9,4.96-2.54,6.89h0Z"/>
      <path class="cls-3" d="M5.05,10.37h7.54v3.85h-7.54v-3.85h0ZM6.21,11.54v1.52h5.22v-1.52h-5.22Z"/>
      <path class="cls-3" d="M14.01,10.37h7.54v3.85h-7.54v-3.85h0ZM15.17,11.54v1.52h5.21v-1.52h-5.21Z"/>
      <path class="cls-3" d="M18.24,19.4v5.56c0,2.69-2.2,4.89-4.89,4.89h-.12c-2.69,0-4.89-2.2-4.89-4.89v-5.56c.21.81.62,1.54,1.16,2.14v3.42c0,2.05,1.68,3.72,3.72,3.72h.12c2.05,0,3.72-1.68,3.72-3.72v-3.42c.55-.6.95-1.33,1.16-2.14h0Z"/>
      <path class="cls-1" d="M8.23,19.36c.59,2.24,2.62,3.9,5.05,3.91,2.44.01,4.5-1.65,5.09-3.91h-1.25c-.55,1.58-2.06,2.72-3.84,2.71-1.76,0-3.25-1.14-3.8-2.71h-1.25Z"/>
    </g>
  </g>
</svg>