<?xml version="1.0" encoding="UTF-8"?>
<svg id="Layer_2" data-name="Layer 2" xmlns="http://www.w3.org/2000/svg" viewBox="0 0 33.12 35.16">
  <defs>
    <style>
      .cls-1 {
        fill: #62212a;
      }

      .cls-1, .cls-2, .cls-3, .cls-4, .cls-5, .cls-6 {
        fill-rule: evenodd;
        stroke-width: 0px;
      }

      .cls-2 {
        fill: #e1cee4;
      }

      .cls-3 {
        fill: #ef4b32;
      }

      .cls-4 {
        fill: #eb008b;
      }

      .cls-5 {
        fill: #c29bc8;
      }

      .cls-6 {
        fill: #f7aaac;
      }
    </style>
  </defs>
  <g id="Layer_1-2" data-name="Layer 1">
    <g>
      <path class="cls-3" d="M16.56,21.97h0c.6,0,1.09.49,1.09,1.09v1.21c0,.6-.49,1.09-1.09,1.09h0c-.6,0-1.09-.49-1.09-1.09v-1.21c0-.6.49-1.09,1.09-1.09h0Z"/>
      <path class="cls-5" d="M6.1,12.15h6.22c2.01,0,3.65,1.64,3.65,3.65v3.65h-6.22c-2.01,0-3.65-1.64-3.65-3.65v-3.65h0Z"/>
      <path class="cls-4" d="M4.25,8.86c-.08-.45-.12-.91-.12-1.36C4.13,3.37,7.47.02,11.6.02h9.31c.2-.02.41-.02.61-.02,4.13,0,7.47,3.35,7.47,7.47,0,.47-.04.93-.13,1.39,2.66,1.77,4.26,4.75,4.26,7.94v12.09c0,3.45-2.81,6.27-6.27,6.27s-6.26-2.81-6.26-6.27v-1.87l.13-.08c.25-.16.49-.33.72-.52l.44-.36v2.83c0,2.74,2.24,4.97,4.97,4.97s4.97-2.24,4.97-4.97v-12.09c0-3-1.63-5.77-4.26-7.22l-.19-.11.06-.21c.18-.58.26-1.18.26-1.79,0-3.41-2.77-6.18-6.18-6.18-.18,0-.36,0-.54.02h-.01s-9.37,0-9.37,0c-3.41,0-6.18,2.77-6.18,6.18,0,.6.09,1.2.26,1.77l.06.21-.19.11c-2.62,1.45-4.25,4.22-4.25,7.22v12.09c0,2.74,2.23,4.97,4.97,4.97s4.97-2.24,4.97-4.97v-2.83l.44.36c.23.19.47.36.72.52l.13.08v1.87c0,3.45-2.81,6.27-6.27,6.27s-6.27-2.82-6.27-6.27v-12.09c0-3.19,1.6-6.17,4.25-7.94h0Z"/>
      <path class="cls-6" d="M12.08,8.63h8.95c1.86,0,3.38,1.52,3.38,3.38v8.34c0,4.32-3.53,7.85-7.85,7.85s-7.86-3.53-7.86-7.85v-8.34c0-1.86,1.52-3.38,3.38-3.38h0ZM12.08,9.9h8.95c1.16,0,2.11.95,2.11,2.11v8.34c0,3.62-2.96,6.58-6.58,6.58h0c-3.62,0-6.58-2.96-6.58-6.58v-8.34c0-1.16.95-2.11,2.11-2.11h0Z"/>
      <path class="cls-2" d="M6.1,12.15h6.22c2.01,0,3.65,1.64,3.65,3.65v3.65h-6.22c-2.01,0-3.65-1.64-3.65-3.65v-3.65h0Z"/>
      <path class="cls-1" d="M7.37,13.43v2.38c0,1.31,1.07,2.38,2.38,2.38h4.95v-2.38c0-1.31-1.07-2.38-2.38-2.38h-4.95Z"/>
      <path class="cls-2" d="M27.07,12.1v3.71c0,2.04-1.67,3.71-3.71,3.71h-6.27v-3.71c0-2.04,1.67-3.71,3.71-3.71h6.27Z"/>
      <path class="cls-1" d="M25.74,13.43v2.38c0,1.31-1.07,2.38-2.38,2.38h-4.95v-2.38c0-1.31,1.07-2.38,2.38-2.38h4.95Z"/>
    </g>
  </g>
</svg>