<?xml version="1.0" encoding="UTF-8"?>
<svg id="Layer_2" data-name="Layer 2" xmlns="http://www.w3.org/2000/svg" viewBox="0 0 32.49 35.06">
  <defs>
    <style>
      .cls-1 {
        fill: #894e7f;
      }

      .cls-1, .cls-2, .cls-3, .cls-4, .cls-5 {
        fill-rule: evenodd;
        stroke-width: 0px;
      }

      .cls-2 {
        fill: #fdc157;
      }

      .cls-3 {
        fill: #ef6596;
      }

      .cls-4 {
        fill: #f05643;
      }

      .cls-5 {
        fill: #f8a98e;
      }
    </style>
  </defs>
  <g id="Layer_1-2" data-name="Layer 1">
    <g>
      <path class="cls-1" d="M0,16.29C0,14.54.67,12.86,1.91,11.62L11.62,1.91c2.55-2.55,6.71-2.55,9.25,0l9.71,9.71c1.24,1.24,1.91,2.92,1.91,4.67v18.77h-1.29v-18.77c0-1.36-.5-2.72-1.53-3.76L19.96,2.82c-2.04-2.04-5.39-2.04-7.43,0L2.82,12.53c-1.03,1.03-1.54,2.4-1.53,3.76v18.77H0v-18.77h0Z"/>
      <path class="cls-5" d="M21.4,23.15v6.14h-1.29v-4.78c.47-.39.9-.84,1.29-1.36h0ZM12.38,24.51v4.78h-1.29v-6.14c.39.51.82.97,1.29,1.36h0Z"/>
      <path class="cls-5" d="M16.25,5.22c.61,0,1.23.08,1.82.25,2.1.58,3.79,2.09,4.92,3.91.38.62.71,1.27.97,1.95l-1.25.34c-1.23-3.07-3.66-5.16-6.46-5.16s-5.23,2.09-6.46,5.16l-1.25-.34c.26-.68.58-1.34.97-1.95,1.13-1.83,2.81-3.34,4.92-3.91.59-.16,1.21-.25,1.82-.25h0ZM24.76,14.66c.06.53.09,1.06.09,1.58,0,2.39-.6,4.83-1.86,6.87-1.13,1.83-2.81,3.34-4.92,3.91-.59.16-1.21.25-1.82.25s-1.23-.08-1.82-.25c-2.11-.58-3.79-2.08-4.92-3.91-1.26-2.04-1.86-4.48-1.86-6.87,0-.53.03-1.06.09-1.58.19.6.61,1.11,1.2,1.38,0,.07,0,.13,0,.2,0,5.38,3.27,9.74,7.31,9.74s7.31-4.36,7.31-9.74c0-.07,0-.13,0-.2.59-.27,1.02-.78,1.2-1.38h0Z"/>
      <path class="cls-2" d="M25.19,9.55l.94,3.52c.52,1.93-.64,3.94-2.58,4.46l-5.85,1.57-.94-3.52c-.52-1.94.64-3.94,2.58-4.46l5.85-1.57h0ZM24.2,11.27l.58,2.17c.32,1.19-.4,2.43-1.59,2.75l-4.5,1.21-.58-2.17c-.32-1.19.4-2.43,1.58-2.74l4.5-1.21h0Z"/>
      <path class="cls-2" d="M7.3,9.55l5.85,1.57c1.94.52,3.09,2.53,2.58,4.46l-.94,3.52-5.85-1.57c-1.94-.52-3.09-2.53-2.58-4.46l.94-3.52h0ZM8.29,11.27l-.58,2.17c-.32,1.19.4,2.43,1.58,2.75l4.5,1.21.58-2.17c.32-1.19-.4-2.43-1.58-2.74l-4.5-1.21h0Z"/>
      <path class="cls-3" d="M17.25,20.98v1.65c0,.56-.46,1.01-1.01,1.01h0c-.56,0-1.01-.46-1.01-1.01v-1.65c0-.56.46-1.01,1.01-1.01h0c.56,0,1.01.46,1.01,1.01h0Z"/>
      <path class="cls-4" d="M2.89,35.06c1.04-3.8,4.53-6.51,8.52-6.51h9.67c3.99,0,7.48,2.71,8.52,6.51h-1.34c-.99-3.02-3.84-5.22-7.18-5.22h-9.67c-3.34,0-6.19,2.2-7.18,5.22h-1.34Z"/>
    </g>
  </g>
</svg>