<?xml version="1.0" encoding="UTF-8"?>
<svg id="Layer_2" data-name="Layer 2" xmlns="http://www.w3.org/2000/svg" viewBox="0 0 29.86 34.64">
  <defs>
    <style>
      .cls-1 {
        fill: #ef5b72;
      }

      .cls-1, .cls-2, .cls-3 {
        fill-rule: evenodd;
        stroke-width: 0px;
      }

      .cls-2 {
        fill: #e5e6e7;
      }

      .cls-3 {
        fill: #fdc157;
      }
    </style>
  </defs>
  <g id="Layer_1-2" data-name="Layer 1">
    <g>
      <path class="cls-1" d="M3.18,20.59C1.13,18.33,0,15.4,0,12.33,0,5.52,5.52,0,12.33,0c9.29,0,12.95,10.43,17.24,16.92l.06.1.04.11c.65,1.58-.43,3.45-2.19,3.45h-2.37v7.23c0,2.32-1.89,4.21-4.21,4.21h-2.78v2.63h-1.2v-3.83h3.99c1.65,0,3.01-1.35,3.01-3.01v-8.44h3.57c.9,0,1.4-1,1.08-1.78C24.24,11.04,20.82,1.2,12.33,1.2,6.18,1.2,1.2,6.18,1.2,12.33c0,3.03,1.22,5.78,3.18,7.79v14.53h-1.2v-14.05h0Z"/>
      <path class="cls-2" d="M16.92,9.16h0c.39,0,.7.31.7.7v2.75c-.2-.14-.44-.23-.7-.23s-.5.09-.7.23v-2.75c0-.38.31-.7.7-.7h0ZM17.62,14.5v2.75c0,.38-.32.7-.7.7h0c-.39,0-.7-.31-.7-.7v-2.75c.2.14.44.23.7.23s.5-.09.7-.23h0Z"/>
      <path class="cls-2" d="M13.11,15.75h0c-.19-.33-.08-.76.26-.96l2.38-1.37s0,.09,0,.13c0,.48.29.9.71,1.08l-2.38,1.37c-.33.19-.76.08-.96-.26h0ZM17.39,12.47l2.38-1.37c.33-.19.76-.08.96.26h0c.19.33.08.76-.26.96l-2.38,1.38s0-.09,0-.13c0-.48-.29-.9-.71-1.08h0Z"/>
      <path class="cls-2" d="M20.73,15.75h0c-.19.33-.62.45-.96.26l-2.38-1.37c.42-.18.71-.6.71-1.08,0-.04,0-.09,0-.13l2.38,1.37c.33.19.45.62.26.96h0ZM15.75,13.69l-2.38-1.38c-.33-.19-.45-.62-.26-.96h0c.19-.33.62-.45.96-.26l2.38,1.37c-.42.18-.71.6-.71,1.08,0,.04,0,.09,0,.13h0Z"/>
      <path class="cls-1" d="M16.92,11.21c1.29,0,2.34,1.05,2.34,2.34s-1.05,2.34-2.34,2.34-2.34-1.05-2.34-2.34,1.05-2.34,2.34-2.34h0ZM16.92,12.37c.65,0,1.18.53,1.18,1.18s-.53,1.18-1.18,1.18-1.18-.53-1.18-1.18.53-1.18,1.18-1.18h0Z"/>
      <path class="cls-3" d="M23.91,27.85h-4.4c-1.56,0-2.83-1.27-2.83-2.83s1.27-2.83,2.83-2.83h4.4v1.2h-4.4c-.9,0-1.63.73-1.63,1.63h0c0,.9.73,1.63,1.63,1.63h4.4v1.2h0Z"/>
    </g>
  </g>
</svg>