<?xml version="1.0" encoding="UTF-8"?>
<svg id="Layer_2" data-name="Layer 2" xmlns="http://www.w3.org/2000/svg" viewBox="0 0 27.18 33.35">
  <defs>
    <style>
      .cls-1 {
        fill: #e14835;
      }

      .cls-1, .cls-2, .cls-3 {
        fill-rule: evenodd;
        stroke-width: 0px;
      }

      .cls-2 {
        fill: #d8a0c4;
      }

      .cls-3 {
        fill: #fdc157;
      }
    </style>
  </defs>
  <g id="Layer_1-2" data-name="Layer 1">
    <g>
      <path class="cls-2" d="M23.68,8.59l3.32,8.25c.62,1.54-.42,3.35-2.14,3.35h-.21v4.25c0,2.27-1.85,4.12-4.12,4.12h-3.08v4.79H3.13v-13.13C1.12,18,0,15.12,0,12.1,0,5.42,5.42,0,12.1,0c5.33,0,10.04,3.5,11.58,8.59h0ZM22.58,8.97l3.34,8.3c.32.77-.17,1.75-1.06,1.75h-1.37v5.41c0,1.63-1.33,2.96-2.96,2.96h-4.24v5.96H4.3v-13.59c-1.94-1.97-3.13-4.68-3.13-7.66C1.16,6.06,6.06,1.16,12.1,1.16c4.95,0,9.13,3.29,10.48,7.81h0Z"/>
      <path class="cls-3" d="M25.63,22.35c0,.47-.33.86-.78.95.44.09.78.48.78.95,0,.53-.43.97-.97.97-.17,0-.34-.05-.48-.13-.39-.22-2.39-1.25-2.75-1.61-.1-.1-.1-.26,0-.35.35-.35,2.38-1.4,2.75-1.62.14-.08.31-.13.48-.13.53,0,.97.43.97.97h0Z"/>
      <path class="cls-1" d="M16.39,9.9c-.33-.7-.5-1.12-.5-1.28,0-.32.11-.57.31-.76.21-.19.49-.28.85-.28s.63.1.84.3c.21.2.32.46.32.78,0,.15-.16.56-.49,1.24-.31.64-1.15,2.77.27,1.37.26-.25.5-.55.73-.91.03-.04.07-.11.13-.19.4-.61.81-.91,1.24-.91.28,0,.53.13.76.39.23.26.34.54.34.86,0,.28-.11.53-.32.74-.22.21-.47.32-.76.32-.55,0-1.06.05-1.52.15-1.17.25-1.63.49-.17.87.38.09.78.14,1.22.14.5,0,.89.09,1.16.28.27.19.4.46.4.82,0,.32-.12.61-.35.86-.23.26-.5.38-.8.38-.39,0-.8-.33-1.23-.99-.04-.06-.08-.11-.1-.14-.23-.36-.47-.66-.72-.9-1.42-1.4-.61.71-.3,1.37.33.69.5,1.11.5,1.27,0,.33-.1.59-.3.77-.2.18-.49.27-.86.27s-.63-.09-.84-.29c-.21-.19-.31-.45-.31-.78,0-.15.16-.57.49-1.24.32-.66,1.16-2.75-.29-1.36-.26.24-.5.54-.72.88-.04.06-.08.13-.14.22-.4.61-.81.91-1.23.91-.28,0-.53-.13-.76-.39-.23-.26-.34-.54-.34-.86,0-.29.11-.54.32-.75.22-.21.47-.31.76-.31.55,0,1.06-.05,1.52-.15,1.21-.26,1.6-.51.15-.88-.38-.1-.78-.15-1.19-.15-.51,0-.9-.09-1.16-.27-.26-.19-.4-.46-.4-.81,0-.33.12-.62.35-.87.23-.25.5-.38.8-.38.39,0,.81.33,1.25.99.04.06.06.1.08.12.24.37.48.67.73.92,1.41,1.43.59-.74.29-1.38h0Z"/>
    </g>
  </g>
</svg>