<?xml version="1.0" encoding="UTF-8"?>
<svg id="Layer_2" data-name="Layer 2" xmlns="http://www.w3.org/2000/svg" viewBox="0 0 26.83 32.94">
  <defs>
    <style>
      .cls-1 {
        fill: #a6a8ab;
      }

      .cls-1, .cls-2, .cls-3 {
        fill-rule: evenodd;
        stroke-width: 0px;
      }

      .cls-2 {
        fill: #fff;
      }

      .cls-3 {
        fill: #c34636;
      }
    </style>
  </defs>
  <g id="Layer_1-2" data-name="Layer 1">
    <g>
      <path class="cls-1" d="M9.61,28.19h-3.06c-2.23,0-4.06-1.83-4.06-4.06v-4.21h-.22c-1.69,0-2.71-1.78-2.1-3.29l3.28-8.15C4.98,3.45,9.62,0,14.89,0c6.6,0,11.94,5.35,11.94,11.94v21h-1.13V11.94h0c0-5.97-4.84-10.81-10.81-10.81-4.89,0-9.03,3.25-10.36,7.72l-3.3,8.2h0c-.31.76.17,1.73,1.05,1.73h1.35v5.35c0,1.61,1.31,2.92,2.92,2.92h4.19v5.89h-1.13v-4.75h0Z"/>
      <path class="cls-3" d="M17.79,8.06v.63c0,1.94-1.58,3.52-3.52,3.52h-1.81v-1.14h1.81c1.31,0,2.38-1.07,2.38-2.38v-1.6c0-1.15.94-2.09,2.09-2.09s2.09.94,2.09,2.09v13.34c0,1.31,1.07,2.38,2.38,2.38h2.48v1.14h-2.48c-1.93,0-3.52-1.58-3.52-3.52v-1.15h0V7.09c0-.53-.43-.96-.96-.96s-.96.43-.96.96v.97h0Z"/>
      <path class="cls-3" d="M11.63,9.53c1.59.92,2.14,2.98,1.22,4.57-.92,1.59-2.98,2.14-4.57,1.22l-1.94-1.12c-1.59-.92-2.14-2.98-1.22-4.57.92-1.59,2.97-2.14,4.57-1.22l1.94,1.12h0ZM11.06,10.52l-1.94-1.12c-1.05-.61-2.41-.24-3.01.81h0c-.61,1.05-.24,2.41.81,3.02l1.94,1.12c1.05.61,2.41.24,3.02-.81h0c.61-1.05.24-2.41-.81-3.02h0Z"/>
      <polygon class="cls-2" points="3.63 21.88 10.75 21.88 10.75 23.26 3.63 23.26 3.63 21.88 3.63 21.88"/>
    </g>
  </g>
</svg>