<?xml version="1.0" encoding="UTF-8"?>
<svg id="Layer_2" data-name="Layer 2" xmlns="http://www.w3.org/2000/svg" viewBox="0 0 28.92 33.2">
  <defs>
    <style>
      .cls-1 {
        fill: #d8a0c4;
      }

      .cls-1, .cls-2, .cls-3, .cls-4 {
        fill-rule: evenodd;
        stroke-width: 0px;
      }

      .cls-2 {
        fill: #d24887;
      }

      .cls-3 {
        fill: #ef5b72;
      }

      .cls-4 {
        fill: #fdc157;
      }
    </style>
  </defs>
  <g id="Layer_1-2" data-name="Layer 1">
    <g>
      <path class="cls-4" d="M5.36,33.2l1.79-8.48c.31.34.64.66.99.96l-1.59,7.52h-1.19ZM21.69,24.81l1.86,8.4h-1.19l-1.66-7.46c.35-.29.68-.6.98-.94h0Z"/>
      <path class="cls-1" d="M14.46,0c6.04,0,10.97,4.94,10.97,10.98v7.22c0,6.04-4.94,10.98-10.97,10.98S3.48,24.23,3.48,18.19v-7.22C3.48,4.94,8.42,0,14.46,0h0ZM14.46,1.16h0c5.4,0,9.81,4.42,9.81,9.81v7.22c0,5.4-4.41,9.81-9.81,9.81h0c-5.4,0-9.81-4.41-9.81-9.81v-7.22C4.65,5.58,9.06,1.16,14.46,1.16h0Z"/>
      <path class="cls-2" d="M0,10.42h13.22v6.75L0,10.42h0ZM4.84,11.58l7.21,3.68v-3.68h-7.21Z"/>
      <path class="cls-2" d="M15.7,10.42h13.21l-13.21,6.75v-6.75h0ZM16.86,11.58v3.68l7.21-3.68h-7.21Z"/>
      <path class="cls-3" d="M9.35,20c.59,2.26,2.64,3.93,5.08,3.94,2.46.01,4.54-1.66,5.13-3.94h-1.26c-.56,1.6-2.08,2.74-3.87,2.73-1.77,0-3.28-1.15-3.83-2.73h-1.26Z"/>
    </g>
  </g>
</svg>