<?xml version="1.0" encoding="UTF-8"?>
<svg id="Layer_2" data-name="Layer 2" xmlns="http://www.w3.org/2000/svg" viewBox="0 0 30.19 34.19">
  <defs>
    <style>
      .cls-1 {
        fill: #fdc157;
      }

      .cls-1, .cls-2, .cls-3, .cls-4 {
        fill-rule: evenodd;
        stroke-width: 0px;
      }

      .cls-2 {
        fill: #f4e4ab;
      }

      .cls-3 {
        fill: #fff;
      }

      .cls-4 {
        fill: #f05643;
      }
    </style>
  </defs>
  <g id="Layer_1-2" data-name="Layer 1">
    <g>
      <path class="cls-2" d="M3.91,9.53C5.62,3.88,10.85,0,16.77,0c7.41,0,13.42,6.01,13.42,13.42,0,3.37-1.25,6.58-3.51,9.05v11.71h-1.16v-12.18c2.17-2.21,3.51-5.24,3.51-8.59,0-6.77-5.49-12.26-12.26-12.26-5.55,0-10.24,3.69-11.75,8.75l-3.74,9.3h0c-.36.87.19,1.97,1.19,1.97h1.54v6.06c0,1.82,1.49,3.32,3.31,3.32h4.76v3.62h-1.17v-2.46h-3.59c-2.47,0-4.48-2.01-4.48-4.48v-4.9h-.37c-1.82,0-2.93-1.93-2.27-3.56l3.72-9.25h0Z"/>
      <path class="cls-4" d="M18.31,9.06c2.02.42,3.55,2.21,3.55,4.35s-1.53,3.94-3.55,4.35c-.41,2.02-2.21,3.55-4.36,3.55s-3.94-1.53-4.35-3.55c-2.02-.41-3.55-2.21-3.55-4.35s1.53-3.94,3.55-4.35c.41-2.02,2.21-3.55,4.35-3.55s3.94,1.53,4.36,3.55h0ZM17.24,10.13h.18c1.81,0,3.28,1.47,3.28,3.28s-1.47,3.28-3.28,3.28h-.18v.18c0,1.81-1.47,3.28-3.28,3.28s-3.28-1.47-3.28-3.28v-.18h-.18c-1.81,0-3.28-1.47-3.28-3.28s1.47-3.28,3.28-3.28h.18v-.18c0-1.81,1.47-3.28,3.28-3.28s3.28,1.47,3.28,3.28v.18h0Z"/>
      <path class="cls-1" d="M13.96,10.14c1.81,0,3.27,1.46,3.27,3.27s-1.46,3.27-3.27,3.27-3.27-1.46-3.27-3.27,1.46-3.27,3.27-3.27h0ZM13.96,11.49c1.06,0,1.92.86,1.92,1.92s-.86,1.92-1.92,1.92-1.92-.86-1.92-1.92.86-1.92,1.92-1.92h0Z"/>
      <path class="cls-3" d="M5.52,24.71h0c.3,0,.55.25.55.55v2.29c0,.3-.25.55-.55.55h0c-.3,0-.55-.25-.55-.55v-2.29c0-.3.25-.55.55-.55h0Z"/>
      <path class="cls-3" d="M7.32,24.42h0c.29-.09.6.06.7.36l.71,2.18c.09.29-.07.6-.36.7h0c-.29.09-.6-.06-.7-.35l-.71-2.18c-.09-.29.06-.6.35-.7h0Z"/>
      <path class="cls-3" d="M8.95,23.59h0c.25-.18.59-.12.77.12l1.35,1.85c.18.25.12.59-.12.77h0c-.25.18-.59.12-.77-.12l-1.35-1.85c-.18-.25-.12-.59.12-.77h0Z"/>
      <path class="cls-3" d="M10.24,22.3h0c.18-.25.53-.3.77-.12l1.85,1.35c.25.18.3.53.12.77h0c-.18.25-.53.3-.77.12l-1.85-1.35c-.25-.18-.3-.53-.12-.77h0Z"/>
      <path class="cls-3" d="M5.52,24.71h0c-.3,0-.55.25-.55.55v2.29c0,.3.25.55.55.55h0c.3,0,.55-.25.55-.55v-2.29c0-.3-.25-.55-.55-.55h0Z"/>
    </g>
  </g>
</svg>