<?xml version="1.0" encoding="UTF-8"?>
<svg id="Layer_2" data-name="Layer 2" xmlns="http://www.w3.org/2000/svg" viewBox="0 0 26.21 34.34">
  <defs>
    <style>
      .cls-1 {
        fill: #4cbda1;
      }

      .cls-1, .cls-2, .cls-3, .cls-4, .cls-5 {
        fill-rule: evenodd;
        stroke-width: 0px;
      }

      .cls-2 {
        fill: #e7cad2;
      }

      .cls-3 {
        fill: #f79a2f;
      }

      .cls-4 {
        fill: #f05643;
      }

      .cls-5 {
        fill: #ecd8c5;
      }
    </style>
  </defs>
  <g id="Layer_1-2" data-name="Layer 1">
    <g>
      <path class="cls-2" d="M3.7,24.65c-1.38,1.87-2.21,4.17-2.26,6.65,0,.21,0,1.92,0,3.05H.27v-1.75c0-.44,0-.88,0-1.32.06-2.66.94-5.19,2.47-7.29l.96.67h0ZM23.47,23.98c1.54,2.1,2.42,4.63,2.47,7.29.01.44,0,.88,0,1.32v1.75h-1.16c0-1.13,0-2.84,0-3.05-.05-2.48-.89-4.78-2.27-6.65l.96-.67h0Z"/>
      <path class="cls-1" d="M16.87,27.21c.12.19.24.38.35.57.81,1.41,1.5,3.35,1.2,4.99l-.24,1.35-1.3-.47c-1.57-.56-2.91-2.13-3.72-3.54-.02-.03-.04-.07-.06-.1-.02.03-.04.07-.06.1-.81,1.41-2.15,2.98-3.72,3.54l-1.29.47-.24-1.35c-.3-1.64.39-3.59,1.2-4.99.11-.19.23-.38.35-.57-1.97-.47-3.84-1.31-5.51-2.48l-1.08-.76.89-.98c1.11-1.23,2.45-2.2,3.92-2.87.03.41.1.81.21,1.19-1.24.61-2.35,1.45-3.27,2.47,2.04,1.42,4.43,2.35,7.01,2.63-.54.52-1.06,1.18-1.51,1.96-.89,1.55-1.26,3.13-1.07,4.21,1.03-.37,2.22-1.48,3.11-3.03.58-1.01.94-2.04,1.07-2.92.13.89.48,1.92,1.07,2.92.89,1.54,2.08,2.66,3.11,3.03.19-1.07-.17-2.66-1.07-4.21-.45-.77-.97-1.44-1.51-1.96,2.58-.28,4.98-1.21,7.01-2.63-.92-1.02-2.03-1.86-3.27-2.47.11-.38.18-.78.21-1.19,1.47.67,2.81,1.64,3.92,2.87l.89.98-1.08.76c-1.67,1.17-3.54,2.01-5.51,2.48h0Z"/>
      <path class="cls-3" d="M4.53,16.17h1.99c-.44-.29-.8-.68-1.07-1.12h-.91c-1.87,0-3.4-1.53-3.4-3.4v-2.37c0-.56.46-1.03,1.03-1.03h5.67l-.61-1.12H2.15c-1.18,0-2.15.96-2.15,2.15v2.37c0,2.49,2.04,4.52,4.53,4.52h0ZM21.62,8.24h2.44c.56,0,1.03.47,1.03,1.03v2.37c0,1.87-1.53,3.4-3.4,3.4h-.91c-.27.44-.64.83-1.07,1.12h1.99c2.49,0,4.52-2.04,4.52-4.52v-2.37c0-1.18-.97-2.15-2.15-2.15h-2.44v1.12h0Z"/>
      <path class="cls-5" d="M18.67,17.83c2.15-.44,3.79-2.36,3.79-4.64v-3.84C22.46,4.21,18.25,0,13.1,0h0C7.96,0,3.75,4.21,3.75,9.35v3.84c0,2.28,1.63,4.2,3.79,4.64v1.93c0,3.06,2.5,5.57,5.57,5.57h0c3.06,0,5.57-2.51,5.57-5.57v-1.93h0ZM18.44,16.69c1.65-.34,2.86-1.81,2.86-3.5v-3.84c0-4.5-3.69-8.19-8.19-8.19S4.91,4.85,4.91,9.35v3.84c0,1.69,1.21,3.16,2.86,3.5l.93.19v2.87c0,2.42,1.99,4.4,4.4,4.4s4.4-1.98,4.4-4.4v-2.87l.93-.19h0Z"/>
      <path class="cls-3" d="M3.89,8.05c.04-.32.1-.63.17-.94l3.34.02c1.12-.03,2.25.29,3.23,1,1.36.99,2.11,2.5,2.17,4.06-1.5.43-3.18.19-4.54-.79-1.15-.83-1.86-2.04-2.09-3.33h-2.27Z"/>
      <path class="cls-3" d="M22.57,8.06c-.04-.32-.1-.64-.17-.94l-3.34.02c-1.12-.03-2.25.29-3.23,1-1.36.99-2.11,2.5-2.17,4.06,1.5.43,3.18.2,4.54-.79,1.15-.83,1.86-2.04,2.09-3.33h2.27Z"/>
      <polygon class="cls-3" points="23.18 7.12 19.25 7.13 19.25 8.24 23.18 8.24 23.18 7.12 23.18 7.12"/>
      <polygon class="cls-3" points="6.66 7.12 2.73 7.12 2.73 8.24 6.66 8.24 6.66 7.12 6.66 7.12"/>
      <path class="cls-4" d="M8.62,14.13c.36,2.14,2.21,3.78,4.46,3.79,2.26.01,4.14-1.63,4.51-3.79h-1.06c-.35,1.58-1.76,2.76-3.44,2.75-1.67,0-3.06-1.18-3.4-2.75h-1.06Z"/>
    </g>
  </g>
</svg>