<?xml version="1.0" encoding="UTF-8"?>
<svg id="Layer_2" data-name="Layer 2" xmlns="http://www.w3.org/2000/svg" viewBox="0 0 33.59 34.5">
  <defs>
    <style>
      .cls-1 {
        fill: #fbb34f;
      }

      .cls-1, .cls-2, .cls-3, .cls-4, .cls-5 {
        fill-rule: evenodd;
        stroke-width: 0px;
      }

      .cls-2 {
        fill: #fff;
      }

      .cls-3 {
        fill: #f48a86;
      }

      .cls-4 {
        fill: #fff584;
      }

      .cls-5 {
        fill: #f8a98e;
      }
    </style>
  </defs>
  <g id="Layer_1-2" data-name="Layer 1">
    <g>
      <polygon class="cls-5" points="10.97 34.5 9.8 34.5 9.8 28.13 10.97 28.13 10.97 34.5 10.97 34.5"/>
      <polygon class="cls-5" points="22.62 34.5 23.78 34.5 23.78 28.19 22.62 28.19 22.62 34.5 22.62 34.5"/>
      <polygon class="cls-4" points="13.53 9.38 16.79 0 20.05 9.38 22.98 4.34 25.66 11.12 24.41 11.12 22.78 7 20.39 11.12 19.42 11.12 16.79 3.55 14.17 11.12 13.19 11.12 10.81 7 9.18 11.12 7.92 11.12 10.61 4.34 13.53 9.38 13.53 9.38"/>
      <path class="cls-1" d="M6.86,23.66h0c-3.77,0-6.85-3.08-6.85-6.85s3.08-6.85,6.85-6.85h19.88c3.77,0,6.85,3.08,6.85,6.85s-3.08,6.85-6.85,6.85h-.01c-1.24,4.38-5.29,7.52-9.93,7.52s-8.69-3.14-9.93-7.52h0ZM7.79,22.49c.78,4.26,4.53,7.52,9.01,7.52s8.23-3.26,9.01-7.52h.93c3.13,0,5.69-2.56,5.69-5.69h0c0-3.13-2.56-5.69-5.69-5.69H6.85c-3.13,0-5.69,2.56-5.69,5.69h0c0,3.13,2.56,5.69,5.69,5.69h.93Z"/>
      <path class="cls-3" d="M10.74,14h3.06c1.36,0,2.48,1.11,2.48,2.48h0c0,1.36-1.12,2.48-2.48,2.48h-3.06c-1.36,0-2.48-1.11-2.48-2.48h0c0-1.36,1.11-2.48,2.48-2.48h0ZM10.74,15.16c-.72,0-1.31.59-1.31,1.31s.59,1.31,1.31,1.31h3.06c.72,0,1.31-.59,1.31-1.31s-.59-1.31-1.31-1.31h-3.06Z"/>
      <path class="cls-3" d="M19.79,14h3.06c1.36,0,2.48,1.11,2.48,2.48h0c0,1.36-1.11,2.48-2.48,2.48h-3.06c-1.36,0-2.48-1.11-2.48-2.48h0c0-1.36,1.11-2.48,2.48-2.48h0ZM19.79,15.16c-.72,0-1.31.59-1.31,1.31s.59,1.31,1.31,1.31h3.06c.72,0,1.31-.59,1.31-1.31s-.59-1.31-1.31-1.31h-3.06Z"/>
      <path class="cls-2" d="M15.6,21.9c.43,0,.78.35.78.78s-.35.78-.78.78-.78-.35-.78-.78.35-.78.78-.78h0Z"/>
      <path class="cls-2" d="M17.98,21.9c.43,0,.78.35.78.78s-.35.78-.78.78-.78-.35-.78-.78.35-.78.78-.78h0Z"/>
    </g>
  </g>
</svg>