<?xml version="1.0" encoding="UTF-8"?>
<svg id="Layer_2" data-name="Layer 2" xmlns="http://www.w3.org/2000/svg" viewBox="0 0 32.65 33.99">
  <defs>
    <style>
      .cls-1 {
        fill: #bbbcbf;
      }

      .cls-1, .cls-2, .cls-3, .cls-4 {
        fill-rule: evenodd;
        stroke-width: 0px;
      }

      .cls-2 {
        fill: #dc3555;
      }

      .cls-3 {
        fill: #d0d2d3;
      }

      .cls-4 {
        fill: #c980a0;
      }
    </style>
  </defs>
  <g id="Layer_1-2" data-name="Layer 1">
    <g>
      <path class="cls-2" d="M9.23,21.04c-1.38-1.65-2.14-3.73-2.14-5.9v-5.91C7.09,4.15,11.24,0,16.33,0s9.24,4.15,9.24,9.24v5.91c0,2.11-.72,4.13-2.03,5.77v13.08h-1.21v-13.52c1.26-1.42,2.03-3.29,2.03-5.32v-5.91c0-4.41-3.61-8.03-8.03-8.03h0c-4.41,0-8.03,3.61-8.03,8.03v5.91c0,2.1.81,4.01,2.14,5.44v13.4h-1.21v-12.95h0Z"/>
      <path class="cls-4" d="M12.8,7.61H3.53c-1.94,0-3.53,1.59-3.53,3.53h0c0,1.94,1.59,3.53,3.53,3.53h.41c.38,0,.68-.31.68-.68s-.31-.68-.68-.68h-.41c-1.19,0-2.16-.98-2.16-2.16s.97-2.16,2.16-2.16,2.37,0,3.56,0v2.16c0,1.94,1.59,3.53,3.53,3.53h2.19c1.94,0,3.53-1.59,3.53-3.53,0,1.94,1.59,3.53,3.53,3.53h2.19c1.94,0,3.53-1.59,3.53-3.53v-2.16c1.19,0,2.37,0,3.56,0s2.16.97,2.16,2.16-.97,2.16-2.16,2.16h-.41c-.38,0-.68.31-.68.68s.31.68.68.68h.41c1.94,0,3.53-1.59,3.53-3.53s-1.59-3.53-3.53-3.53h-9.27c-1.94,0-3.52,1.58-3.53,3.52,0-1.94-1.59-3.52-3.53-3.52h0ZM24.2,8.97h-4.35c-1.19,0-2.16.97-2.16,2.16s.97,2.16,2.16,2.16h2.19c1.19,0,2.16-.98,2.16-2.16v-2.16h0ZM8.45,8.97h4.35c1.19,0,2.16.97,2.16,2.16s-.97,2.16-2.16,2.16h-2.19c-1.19,0-2.16-.98-2.16-2.16v-2.16h0Z"/>
      <path class="cls-1" d="M15.55,25.12h1.55c1.08,0,1.97-.89,1.97-1.97v-4.43c0-1.08-.89-1.97-1.97-1.97h-1.55c-1.08,0-1.97.89-1.97,1.97v4.43c0,1.08.89,1.97,1.97,1.97h0ZM15.55,24.11h1.55c.53,0,.97-.44.97-.97v-4.43c0-.53-.44-.97-.97-.97h-1.55c-.53,0-.97.44-.97.97v4.43c0,.53.44.97.97.97h0Z"/>
      <polygon class="cls-3" points="16.87 25.12 15.78 25.12 15.78 33.99 16.87 33.99 16.87 25.12 16.87 25.12"/>
    </g>
  </g>
</svg>