<?xml version="1.0" encoding="UTF-8"?>
<svg id="Layer_2" data-name="Layer 2" xmlns="http://www.w3.org/2000/svg" viewBox="0 0 28.72 35.28">
  <defs>
    <style>
      .cls-1 {
        fill: #ef4b32;
      }

      .cls-1, .cls-2, .cls-3, .cls-4, .cls-5 {
        fill-rule: evenodd;
        stroke-width: 0px;
      }

      .cls-2 {
        fill: #fff;
      }

      .cls-3 {
        fill: #f16622;
      }

      .cls-4 {
        fill: #80cbb8;
      }

      .cls-5 {
        fill: #ecd8c5;
      }
    </style>
  </defs>
  <g id="Layer_1-2" data-name="Layer 1">
    <g>
      <path class="cls-4" d="M3.7,9.07C5.33,3.7,10.3,0,15.94,0c7.06,0,12.79,5.72,12.79,12.79,0,3.14-1.14,6.14-3.21,8.47l2.99,14.02h-1.24l-3.06-14.38c2.05-2.09,3.31-4.95,3.31-8.11,0-6.39-5.18-11.58-11.58-11.58-5.24,0-9.67,3.49-11.09,8.27l-3.53,8.78h0c-.34.82.18,1.86,1.12,1.86h1.45v5.73c0,1.72,1.41,3.13,3.13,3.13h4.49v6.31h-1.21v-5.1h-3.28c-2.39,0-4.34-1.95-4.34-4.34v-4.52h-.24c-1.8,0-2.89-1.9-2.24-3.52l3.51-8.73h0Z"/>
      <path class="cls-5" d="M16.32,18.45l-.03-3.23c-.01-1.5-1.23-2.72-2.72-2.72h-1.33v-.87h1.33c1.98,0,3.57,1.62,3.59,3.59l.03,3.23h-.87Z"/>
      <path class="cls-2" d="M3.41,12.06h.74v-.45c0-.42.17-.84.49-1.13.07-.07.14-.14.23-.2.08-.11.18-.2.27-.3.12-.17.24-.35.4-.49.13-.14.3-.26.46-.35.15-.12.32-.21.5-.3.04-.02.08-.04.13-.06.16-.09.3-.13.47-.19.25-.1.44-.17.72-.17h.81c.24,0,.42.05.61.13.3.09.6.24.82.46.25.25.5.5.75.75.16.16.24.31.34.52.12.15.2.32.26.51l.02.04c.12.22.19.46.19.73,0,.18,0,.33-.04.5h.9V2.43l-2.26,5-2.26-5-2.26,5L3.41,2.43v9.63h0Z"/>
      <path class="cls-3" d="M11.14,15.26c-1.77,1.77-4.63,1.77-6.4,0-1.77-1.77-1.77-4.63,0-6.4,1.77-1.77,4.63-1.77,6.4,0s1.77,4.63,0,6.4h0ZM10.2,14.32c-1.25,1.25-3.27,1.25-4.52,0-1.25-1.25-1.25-3.27,0-4.52,1.25-1.25,3.28-1.25,4.52,0,1.25,1.25,1.25,3.28,0,4.52h0Z"/>
      <path class="cls-1" d="M9.01,12.06c0,.59-.48,1.07-1.07,1.07s-1.07-.48-1.07-1.07.48-1.07,1.07-1.07,1.07.48,1.07,1.07h0Z"/>
      <path class="cls-5" d="M16.75,18.01c.24,0,.44.19.44.44s-.19.43-.44.43-.43-.19-.43-.43.19-.44.43-.44h0Z"/>
    </g>
  </g>
</svg>