<?xml version="1.0" encoding="UTF-8"?>
<svg id="Layer_2" data-name="Layer 2" xmlns="http://www.w3.org/2000/svg" viewBox="0 0 27.94 34.27">
  <defs>
    <style>
      .cls-1 {
        fill: #dc3555;
      }

      .cls-1, .cls-2, .cls-3 {
        fill-rule: evenodd;
        stroke-width: 0px;
      }

      .cls-2 {
        fill: #fdc058;
      }

      .cls-3 {
        fill: #f38480;
      }
    </style>
  </defs>
  <g id="Layer_1-2" data-name="Layer 1">
    <g>
      <path class="cls-1" d="M24.35,8.83l3.41,8.47c.64,1.59-.44,3.46-2.21,3.46h-.2v4.35c0,2.2-1.69,4.02-3.84,4.23v4.93h-1.21v-6.12h.8c1.67,0,3.04-1.37,3.04-3.04v-5.56h1.41c.91,0,1.42-1.01,1.09-1.8h0l-3.43-8.52c-1.38-4.64-5.68-8.02-10.77-8.02C6.24,1.21,1.21,6.24,1.21,12.44c0,3.06,1.23,5.84,3.22,7.87v13.96h-1.21v-13.48C1.14,18.5,0,15.54,0,12.44,0,5.57,5.57,0,12.44,0c5.49,0,10.32,3.6,11.91,8.83h0Z"/>
      <path class="cls-2" d="M17.37,12.23c.86,0,1.55.69,1.55,1.55s-.7,1.55-1.55,1.55-1.55-.69-1.55-1.55.7-1.55,1.55-1.55h0Z"/>
      <polygon class="cls-3" points="7.12 9.95 7.12 8.5 17.37 8.5 17.37 9.95 7.12 9.95 7.12 9.95"/>
      <path class="cls-3" d="M17.37,8.49c2.92,0,5.28,2.37,5.28,5.28s-2.37,5.28-5.28,5.28-5.28-2.37-5.28-5.28,2.36-5.28,5.28-5.28h0ZM17.37,9.95c2.11,0,3.83,1.71,3.83,3.83s-1.71,3.83-3.83,3.83-3.83-1.71-3.83-3.83,1.71-3.83,3.83-3.83h0Z"/>
      <polygon class="cls-3" points="7.12 19.06 7.12 17.61 17.37 17.61 17.37 19.06 7.12 19.06 7.12 19.06"/>
      <polygon class="cls-3" points="7.12 14.5 7.12 13.05 13.41 13.05 13.41 14.5 7.12 14.5 7.12 14.5"/>
    </g>
  </g>
</svg>