<?xml version="1.0" encoding="UTF-8"?>
<svg id="Layer_2" data-name="Layer 2" xmlns="http://www.w3.org/2000/svg" viewBox="0 0 31.11 35.76">
  <defs>
    <style>
      .cls-1 {
        fill: #e45c20;
      }

      .cls-1, .cls-2, .cls-3, .cls-4, .cls-5 {
        fill-rule: evenodd;
        stroke-width: 0px;
      }

      .cls-2 {
        fill: #ef5b72;
      }

      .cls-3 {
        fill: #ffca05;
      }

      .cls-4 {
        fill: #ed2524;
      }

      .cls-5 {
        fill: #f8a98e;
      }
    </style>
  </defs>
  <g id="Layer_1-2" data-name="Layer 1">
    <g>
      <path class="cls-1" d="M22.77,27.58l4.81-2.46-3.49,10.64h-1.27l2.7-8.23-2.69,1.38c.17-.41.15-.93-.06-1.33h0ZM8.72,29.14l-3.13-1.61,2.7,8.23h-1.27l-3.49-10.65,4.85,2.49c-.19.54-.05,1.13.35,1.54h0Z"/>
      <path class="cls-3" d="M15.55,0c8.59,0,15.55,6.96,15.55,15.55,0,6.65-4.17,12.32-10.04,14.55.14-.07.27-.13.4-.22.18-.07.39-.2.53-.31.57-.32.85-.97.73-1.59,4.29-2.48,7.17-7.12,7.17-12.43,0-7.92-6.42-14.35-14.34-14.35S1.21,7.63,1.21,15.55c0,5.36,2.95,10.02,7.31,12.48-.12.51.03,1.07.42,1.44.08.11.14.16.23.26C3.76,27.29,0,21.86,0,15.55,0,6.96,6.96,0,15.55,0h0Z"/>
      <path class="cls-5" d="M19.44,32.03c-.6,1.59-2.14,2.69-3.88,2.69s-3.28-1.1-3.88-2.69c-3.23-1.5-5.35-4.76-5.35-8.37v-1.43c.18.53.66.95,1.21,1.03v.4c0,3.4,2.14,6.32,5.14,7.49.27,1.37,1.49,2.37,2.88,2.37s2.61-1.02,2.88-2.37c3-1.16,5.14-4.09,5.14-7.49v-.44c.36-.15.65-.44.8-.81.06-.07.12-.16.17-.24.1-.13.18-.28.24-.44h0s0,1.92,0,1.92c0,3.61-2.12,6.87-5.35,8.37h0ZM6.39,17.88c.58-4.53,4.48-8.07,9.16-8.07,4.28,0,7.9,2.95,8.94,6.91-.33-.45-.89-.7-1.46-.6-1.21-3.06-4.17-5.11-7.47-5.11s-6.18,2.04-7.4,4.93c-.48,0-.94.24-1.23.66-.09.14-.18.26-.25.41-.12.21-.15.41-.23.62-.03.07-.05.15-.06.23h0Z"/>
      <path class="cls-2" d="M18.08,27.58c-.35,1.06-1.35,1.83-2.53,1.83s-2.18-.77-2.53-1.83h5.06Z"/>
      <path class="cls-4" d="M10.53,14.24c3.03,0,5.48,2.46,5.48,5.48s-2.46,5.48-5.48,5.48-5.48-2.45-5.48-5.48,2.46-5.48,5.48-5.48h0ZM10.53,15.72c2.21,0,4,1.79,4,4s-1.79,4-4,4-4-1.79-4-4,1.79-4,4-4h0Z"/>
      <path class="cls-4" d="M20.58,14.24c3.03,0,5.48,2.46,5.48,5.48s-2.45,5.48-5.48,5.48-5.48-2.45-5.48-5.48,2.45-5.48,5.48-5.48h0ZM20.58,15.72c2.21,0,4,1.79,4,4s-1.79,4-4,4-4-1.79-4-4,1.79-4,4-4h0Z"/>
    </g>
  </g>
</svg>