<?xml version="1.0" encoding="UTF-8"?>
<svg id="Layer_2" data-name="Layer 2" xmlns="http://www.w3.org/2000/svg" viewBox="0 0 36.23 34.64">
  <defs>
    <style>
      .cls-1 {
        fill: #dc3555;
      }

      .cls-1, .cls-2, .cls-3, .cls-4, .cls-5, .cls-6 {
        fill-rule: evenodd;
        stroke-width: 0px;
      }

      .cls-2 {
        fill: #d0d2d3;
      }

      .cls-3 {
        fill: #e7aa22;
      }

      .cls-4 {
        fill: #fff;
      }

      .cls-5 {
        fill: #f398c0;
      }

      .cls-6 {
        fill: #f8d38d;
      }
    </style>
  </defs>
  <g id="Layer_1-2" data-name="Layer 1">
    <g>
      <polygon class="cls-2" points="10.75 24.77 11.99 24.77 11.99 34.64 10.75 34.64 10.75 24.77 10.75 24.77"/>
      <polygon class="cls-2" points="24.23 24.77 25.47 24.77 25.47 34.64 24.23 34.64 24.23 24.77 24.23 24.77"/>
      <path class="cls-1" d="M25.01,25.52c-.03,3.77-3.12,6.84-6.9,6.84s-6.87-3.07-6.9-6.84c-3.13-1.31-5.2-4.39-5.2-7.8v-4.98c-.01-.21-.02-.42-.02-.63C6,5.45,11.45,0,18.11,0s12.12,5.45,12.12,12.12c0,.21,0,.42-.02.62v4.98c0,3.41-2.07,6.49-5.2,7.8h0ZM23.93,24.77v.7c0,3.2-2.62,5.82-5.82,5.82h0c-3.2,0-5.82-2.62-5.82-5.82v-.7c-3-.94-5.2-3.75-5.2-7.05v-5.01c-.01-.2-.02-.4-.02-.6h0C7.08,6.05,12.04,1.08,18.11,1.08h0c6.07,0,11.04,4.97,11.04,11.04h0c0,.2,0,.4-.02.6v5.01c0,3.3-2.2,6.11-5.2,7.05h0Z"/>
      <path class="cls-4" d="M13.71,16.68c1.11-.61,1.52-2,.92-3.11-.61-1.11-2-1.52-3.11-.92-1.11.61-1.52,2-.92,3.11.61,1.11,2,1.52,3.11.92h0ZM13.11,15.57c-.5.27-1.13.09-1.4-.41-.27-.5-.09-1.13.41-1.4.5-.27,1.13-.09,1.4.41.27.5.09,1.13-.41,1.4h0Z"/>
      <path class="cls-4" d="M24.71,16.68c1.11-.61,1.52-2,.92-3.11-.61-1.11-2-1.52-3.11-.92-1.11.61-1.52,2-.92,3.11.61,1.11,2,1.52,3.11.92h0ZM24.11,15.57c-.5.27-1.13.09-1.4-.41-.27-.5-.09-1.13.41-1.4.5-.27,1.13-.09,1.4.41.27.5.09,1.13-.41,1.4h0Z"/>
      <path class="cls-3" d="M14.87,25.92h6.48c.32,0,.58.26.58.58h0c0,.32-.26.58-.58.58h-6.48c-.32,0-.58-.26-.58-.58h0c0-.32.26-.58.58-.58h0Z"/>
      <path class="cls-6" d="M24.06,10.89h-.58v-2.25c0-.16.13-.29.29-.29h0c.16,0,.29.13.29.29v2.25h0Z"/>
      <path class="cls-6" d="M25.67,10.89h-.58v-2.25c0-.16.13-.29.29-.29h0c.16,0,.29.13.29.29v2.25h0Z"/>
      <path class="cls-6" d="M27.29,10.89h-.58v-2.25c0-.16.13-.29.29-.29h0c.16,0,.29.13.29.29v2.25h0Z"/>
      <path class="cls-6" d="M9.51,10.89h-.58v-2.25c0-.16.13-.29.29-.29h0c.16,0,.29.13.29.29v2.25h0Z"/>
      <path class="cls-6" d="M11.13,10.89h-.58v-2.25c0-.16.13-.29.29-.29h0c.16,0,.29.13.29.29v2.25h0Z"/>
      <path class="cls-6" d="M12.75,10.89h-.58v-2.25c0-.16.13-.29.29-.29h0c.16,0,.29.13.29.29v2.25h0Z"/>
      <path class="cls-5" d="M0,10.81h12.89c2.27,0,4.12,1.85,4.12,4.12v5.22c0,.6.5,1.1,1.1,1.1s1.1-.5,1.1-1.1v-5.22c0-2.27,1.85-4.12,4.12-4.12h12.89v.93h-12.89c-1.75,0-3.19,1.44-3.19,3.19v5.22c0,1.12-.91,2.03-2.03,2.03s-2.03-.91-2.03-2.03v-5.22c0-1.75-1.44-3.19-3.19-3.19H0v-.93h0Z"/>
    </g>
  </g>
</svg>