<svg width="1906" height="558" viewBox="0 0 1906 558" fill="none" xmlns="http://www.w3.org/2000/svg">
<path d="M1094.35 418.052V361.219C1094.35 355.869 1095.05 350.984 1096.44 346.642C1097.84 342.3 1099.78 338.578 1102.41 335.477C1104.97 332.453 1108 330.127 1111.33 328.576C1114.67 327.026 1118.39 326.25 1122.34 326.25C1125.99 326.25 1129.32 326.793 1132.19 327.801C1135.06 328.809 1137.62 330.515 1139.71 332.686C1141.88 334.934 1143.43 337.881 1144.52 341.602C1145.6 345.324 1146.14 349.821 1146.14 355.171V417.974H1170.88V351.682C1170.88 343.463 1169.79 336.407 1167.54 330.515C1165.3 324.622 1162.35 319.893 1158.47 316.326C1154.67 312.759 1150.25 310.123 1145.21 308.495C1140.17 306.867 1134.75 306.014 1128.93 306.014C1124.82 306.014 1121.02 306.402 1117.46 307.177C1113.97 307.952 1110.71 309.115 1107.84 310.666C1104.9 312.294 1102.34 314.233 1100.09 316.559C1097.84 318.885 1095.9 321.676 1094.35 324.855H1093.42V306.246H1069.62V417.974H1094.35V418.052ZM1045.12 306.324H1020.38V418.052H1045.12V306.324ZM1046.05 250.499H1019.53V275.698H1046.05V250.499ZM915.323 362.692C915.323 357.187 916.098 352.225 917.649 347.728C919.2 343.231 921.293 339.354 924.085 336.097C926.798 332.841 930.132 330.36 934.009 328.576C937.886 326.871 942.15 326.018 946.725 326.018C951.299 326.018 955.719 326.871 959.518 328.499C963.317 330.127 966.651 332.531 969.52 335.632C972.311 338.811 974.482 342.61 975.955 347.107C977.429 351.604 978.126 356.644 978.126 362.227C978.126 367.809 977.351 372.539 975.8 376.958C974.25 381.378 972.156 385.177 969.365 388.433C966.574 391.612 963.317 394.093 959.44 395.799C955.564 397.505 951.299 398.358 946.725 398.358C942.15 398.358 937.886 397.505 934.009 395.799C930.132 394.093 926.798 391.69 924.085 388.511C921.293 385.332 919.2 381.61 917.649 377.191C916.098 372.849 915.323 367.964 915.323 362.614M889.659 362.614C889.659 371.143 890.977 378.819 893.691 385.72C896.327 392.62 900.204 398.435 905.244 403.32C910.283 408.205 916.331 411.849 923.309 414.408C930.287 416.966 938.118 418.207 946.647 418.207C955.176 418.207 962.542 416.889 969.52 414.33C976.498 411.771 982.623 407.972 987.741 403.01C992.858 398.048 996.812 392.078 999.526 385.177C1002.24 378.276 1003.64 370.523 1003.64 362.072C1003.64 353.62 1002.32 345.712 999.603 338.734C996.967 331.755 993.091 325.863 988.128 320.978C983.166 316.093 977.196 312.372 970.14 309.813C963.085 307.254 955.254 306.014 946.57 306.014C938.351 306.014 930.753 307.332 923.774 309.891C916.796 312.449 910.826 316.248 905.709 321.288C900.591 326.328 896.637 332.298 893.768 339.276C890.9 346.254 889.504 354.085 889.504 362.614M773.667 362.304C773.667 370.911 774.907 378.664 777.466 385.642C780.025 392.62 783.669 398.513 788.554 403.32C793.438 408.127 799.331 411.771 806.154 414.33C813.055 416.889 820.731 418.129 829.259 418.129C836.858 418.129 843.681 417.121 849.729 415.105C855.776 413.09 860.894 410.376 865.158 406.809C869.422 403.243 872.756 399.056 875.238 394.171C877.641 389.286 879.269 384.091 880.045 378.431H855.544C854.923 381.145 853.993 383.704 852.83 386.107C851.589 388.511 849.884 390.604 847.79 392.465C845.619 394.249 843.061 395.644 839.882 396.652C836.78 397.66 833.214 398.125 829.259 398.125C824.995 398.125 821.041 397.272 817.319 395.567C813.675 393.861 810.418 391.38 807.705 388.201C804.991 385.022 802.898 381.145 801.424 376.648C799.951 372.151 799.253 367.266 799.253 361.994C799.253 356.722 799.951 351.837 801.424 347.34C802.898 342.843 804.991 338.966 807.705 335.787C810.418 332.608 813.675 330.127 817.319 328.421C820.963 326.716 824.917 325.863 829.259 325.863C833.214 325.863 836.703 326.328 839.804 327.336C842.828 328.344 845.464 329.74 847.558 331.523C849.651 333.306 851.434 335.4 852.83 337.803C854.226 340.207 855.156 342.765 855.544 345.479H880.045C879.269 339.897 877.641 334.624 875.238 329.817C872.756 324.932 869.422 320.745 865.081 317.179C860.739 313.612 855.544 310.899 849.496 308.883C843.448 306.867 836.703 305.936 829.259 305.936C821.196 305.936 813.752 307.254 806.929 309.813C800.106 312.372 794.291 316.171 789.329 321.133C784.367 326.095 780.49 332.066 777.776 339.044C774.985 346.022 773.667 353.775 773.667 362.227M715.283 382.153C715.283 388.433 715.981 393.783 717.377 398.28C718.772 402.777 720.866 406.499 723.812 409.368C726.681 412.237 730.48 414.408 735.054 415.803C739.629 417.199 745.134 417.897 751.492 417.897H768.627V397.272H755.601C752.655 397.272 750.251 396.962 748.235 396.342C746.22 395.722 744.669 394.791 743.428 393.473C742.188 392.155 741.335 390.527 740.792 388.433C740.249 386.34 740.017 383.859 740.017 380.757V325.398H768.627V306.169H740.017V272.286H715.283V306.169H694.194V325.398H715.283V382.153ZM682.796 306.169H658.062V417.897H682.796V306.169ZM683.726 250.344H657.209V275.543H683.726V250.344ZM585.335 281.668C590.064 281.668 594.174 282.133 597.585 283.141C600.997 284.149 603.865 285.545 606.036 287.405C608.285 289.266 609.836 291.437 610.844 293.918C611.852 296.399 612.317 299.268 612.317 302.525C612.317 305.859 611.774 309.038 610.611 311.906C609.448 314.775 607.742 317.334 605.494 319.427C603.168 321.598 600.376 323.227 596.887 324.39C593.476 325.553 589.522 326.095 585.102 326.095H543.466V281.668H585.335ZM589.677 346.875C594.406 346.875 598.593 347.417 602.237 348.58C605.881 349.744 608.905 351.372 611.309 353.465C613.635 355.636 615.496 358.117 616.659 360.986C617.899 363.855 618.52 367.111 618.52 370.6C618.52 374.4 617.977 377.889 616.814 380.99C615.651 384.091 613.867 386.883 611.464 389.209C609.06 391.535 606.036 393.396 602.392 394.559C598.826 395.799 594.561 396.42 589.677 396.42H543.466V346.72H589.677V346.875ZM591.77 417.819C600.144 417.819 607.665 416.656 614.333 414.408C621.001 412.159 626.506 408.903 631.003 404.716C635.5 400.529 638.911 395.567 641.16 389.829C643.486 384.091 644.571 377.889 644.571 371.143C644.571 366.569 643.873 362.304 642.4 358.35C640.927 354.396 638.911 350.751 636.198 347.573C633.484 344.394 630.227 341.757 626.351 339.664C622.474 337.571 618.132 336.097 613.402 335.167V334.237C617.512 332.996 621.156 331.368 624.257 329.197C627.359 327.026 629.995 324.545 632.011 321.676C634.104 318.807 635.577 315.628 636.585 312.294C637.593 308.96 638.058 305.316 638.058 301.517C638.058 294.926 637.05 289.189 634.957 284.149C632.864 279.109 629.762 274.767 625.42 271.201C621.156 267.634 615.806 264.92 609.37 263.059C602.935 261.199 595.492 260.346 586.963 260.346H517.414V417.819H591.615H591.77Z" fill="black"/>
<path d="M1282.54 164.334C1282.54 158.829 1283.31 153.866 1284.79 149.369C1286.34 144.872 1288.43 140.996 1291.22 137.739C1294.01 134.483 1297.27 132.002 1301.15 130.218C1305.02 128.512 1309.29 127.66 1313.86 127.66C1318.44 127.66 1322.86 128.512 1326.65 130.141C1330.45 131.769 1333.79 134.173 1336.58 137.274C1339.37 140.453 1341.54 144.252 1343.01 148.749C1344.49 153.246 1345.19 158.286 1345.19 163.868C1345.19 169.451 1344.41 174.181 1342.94 178.6C1341.39 183.02 1339.29 186.819 1336.5 190.075C1333.71 193.332 1330.45 195.735 1326.58 197.441C1322.7 199.147 1318.44 200 1313.86 200C1309.29 200 1305.02 199.147 1301.15 197.441C1297.27 195.735 1293.93 193.332 1291.22 190.153C1288.51 186.974 1286.34 183.252 1284.79 178.833C1283.24 174.491 1282.54 169.606 1282.54 164.256M1256.87 164.256C1256.87 172.785 1258.19 180.461 1260.91 187.361C1263.54 194.262 1267.42 200.077 1272.46 204.962C1277.5 209.847 1283.55 213.491 1290.52 216.049C1297.5 218.608 1305.33 219.849 1313.86 219.849C1322.39 219.849 1329.76 218.531 1336.73 215.972C1343.71 213.413 1349.84 209.614 1354.95 204.652C1360.07 199.69 1364.03 193.719 1366.74 186.819C1369.45 179.918 1370.85 172.165 1370.85 163.713C1370.85 155.262 1369.53 147.353 1366.82 140.375C1364.18 133.397 1360.3 127.505 1355.34 122.62C1350.38 117.735 1344.41 114.013 1337.35 111.455C1330.3 108.896 1322.47 107.656 1313.78 107.656C1305.57 107.656 1297.97 108.974 1290.99 111.532C1284.01 114.091 1278.04 117.89 1272.92 122.93C1267.81 127.97 1263.85 133.94 1261.06 140.918C1258.27 147.896 1256.8 155.727 1256.8 164.256M1154.29 165.109C1154.29 159.449 1155.07 154.332 1156.54 149.602C1158.09 144.872 1160.19 140.918 1162.98 137.662C1165.77 134.405 1168.95 131.924 1172.75 130.141C1176.47 128.435 1180.5 127.582 1184.77 127.582C1189.03 127.582 1193.29 128.435 1197.02 130.063C1200.74 131.691 1203.99 134.095 1206.79 137.196C1209.5 140.375 1211.67 144.175 1213.22 148.672C1214.77 153.169 1215.55 158.208 1215.55 163.791C1215.55 169.373 1214.77 174.413 1213.22 178.91C1211.67 183.407 1209.58 187.206 1206.79 190.385C1203.99 193.564 1200.82 195.89 1197.02 197.596C1193.29 199.224 1189.19 200.077 1184.77 200.077C1180.35 200.077 1176.31 199.302 1172.59 197.751C1168.95 196.2 1165.69 193.952 1162.98 191.006C1160.26 188.059 1158.09 184.415 1156.54 180.073C1154.99 175.731 1154.29 170.769 1154.29 165.342M1128.63 165.342C1128.63 173.87 1129.87 181.624 1132.43 188.447C1134.99 195.348 1138.48 201.085 1142.97 205.815C1147.47 210.544 1152.74 214.033 1158.87 216.437C1164.99 218.841 1171.51 220.004 1178.56 220.004C1182.67 220.004 1186.63 219.616 1190.35 218.841C1194.07 218.065 1197.56 216.902 1200.74 215.274C1203.92 213.646 1206.79 211.63 1209.34 209.226C1211.9 206.745 1213.92 203.876 1215.62 200.542H1216.56V219.771H1240.13V52.1406H1215.39V93.6993C1215.39 96.0254 1215.39 98.8166 1215.47 101.996C1215.47 105.174 1215.62 108.508 1215.78 112.075C1215.93 115.642 1216.17 118.976 1216.48 122.232H1215.55C1213.84 119.751 1211.83 117.58 1209.5 115.797C1207.1 114.013 1204.46 112.463 1201.51 111.3C1198.57 110.137 1195.31 109.206 1191.74 108.664C1188.25 108.121 1184.38 107.811 1180.27 107.811C1173.14 107.811 1166.39 109.129 1160.11 111.765C1153.83 114.401 1148.32 118.2 1143.67 123.24C1138.94 128.28 1135.22 134.328 1132.58 141.461C1129.87 148.594 1128.55 156.503 1128.55 165.186M1088.7 173.715C1088.7 178.212 1087.92 182.244 1086.3 185.733C1084.67 189.222 1082.5 192.169 1079.78 194.495C1077.07 196.821 1073.89 198.526 1070.25 199.69C1066.68 200.853 1062.88 201.395 1058.93 201.395C1055.9 201.395 1053.11 201.085 1050.71 200.31C1048.23 199.612 1046.29 198.682 1044.74 197.441C1043.19 196.278 1042.02 194.727 1041.17 193.022C1040.32 191.238 1039.93 189.3 1039.93 187.206C1039.93 185.113 1040.24 183.252 1040.94 181.624C1041.64 179.996 1042.72 178.522 1044.12 177.282C1045.59 176.041 1047.45 174.956 1049.7 174.025C1052.03 173.095 1054.74 172.475 1057.92 172.01L1077.15 169.063C1078.54 168.753 1079.78 168.52 1080.95 168.21C1082.11 167.9 1083.12 167.59 1084.05 167.28C1084.98 166.97 1085.83 166.505 1086.53 165.884C1087.3 165.342 1088 164.721 1088.62 164.179V173.638L1088.7 173.715ZM1015.2 189.532C1015.2 194.107 1016.05 198.216 1017.68 201.938C1019.38 205.66 1021.79 208.839 1025.04 211.552C1028.3 214.266 1032.25 216.36 1036.98 217.755C1041.71 219.151 1047.06 219.849 1053.03 219.849C1057.14 219.849 1061.02 219.461 1064.59 218.686C1068.15 217.91 1071.49 216.902 1074.51 215.507C1077.53 214.189 1080.25 212.483 1082.65 210.467C1084.98 208.451 1087.07 206.047 1088.7 203.411H1089.86V219.616H1113.43V147.741C1113.43 141.306 1112.5 135.646 1110.56 130.761C1108.63 125.799 1105.76 121.689 1101.88 118.2C1098 114.789 1093.12 112.153 1087.23 110.369C1081.33 108.586 1074.51 107.656 1066.76 107.656C1059.86 107.656 1053.58 108.508 1047.92 110.214C1042.18 111.92 1037.29 114.401 1033.26 117.735C1029.23 121.069 1026.05 124.946 1023.65 129.443C1021.24 133.94 1019.93 138.98 1019.62 144.64H1043.19C1043.5 141.926 1044.2 139.445 1045.28 137.119C1046.37 134.87 1047.84 132.854 1049.86 131.226C1051.87 129.598 1054.27 128.357 1057.07 127.427C1059.86 126.574 1063.11 126.109 1066.84 126.109C1070.56 126.109 1073.89 126.574 1076.68 127.505C1079.4 128.435 1081.72 129.831 1083.58 131.614C1085.44 133.397 1086.76 135.568 1087.61 138.204C1088.47 140.763 1088.86 143.632 1088.86 146.811C1088.86 147.819 1088.62 148.672 1088.16 149.369C1087.69 150.067 1086.92 150.687 1085.83 151.23C1084.75 151.773 1083.35 152.238 1081.49 152.626C1079.63 153.091 1077.3 153.479 1074.43 153.944L1052.72 157.355C1046.13 158.363 1040.47 159.759 1035.82 161.542C1031.09 163.326 1027.21 165.574 1024.27 168.21C1021.32 170.847 1019.07 173.948 1017.6 177.437C1016.13 180.926 1015.43 184.958 1015.43 189.377M898.895 163.868C898.895 172.475 900.135 180.228 902.694 187.206C905.175 194.185 908.897 200.077 913.781 204.884C918.666 209.692 924.559 213.336 931.382 215.894C938.282 218.453 945.958 219.694 954.487 219.694C962.086 219.694 968.909 218.686 974.956 216.67C981.004 214.654 986.121 211.94 990.386 208.373C994.65 204.807 997.984 200.62 1000.47 195.735C1002.95 190.851 1004.5 185.656 1005.27 179.996H980.771C980.151 182.709 979.221 185.268 978.058 187.672C976.817 190.075 975.189 192.169 973.018 194.029C970.847 195.813 968.211 197.208 965.109 198.216C962.008 199.224 958.441 199.69 954.487 199.69C950.223 199.69 946.268 198.837 942.547 197.131C938.903 195.425 935.646 192.944 932.932 189.765C930.219 186.586 928.125 182.709 926.652 178.212C925.179 173.715 924.481 168.831 924.481 163.558C924.481 158.286 925.179 153.401 926.652 148.904C928.125 144.407 930.219 140.53 932.932 137.351C935.724 134.173 938.903 131.691 942.547 129.986C946.191 128.28 950.145 127.427 954.487 127.427C958.441 127.427 961.93 127.892 965.032 128.9C968.056 129.908 970.692 131.304 972.785 133.087C974.879 134.87 976.662 136.964 978.058 139.367C979.453 141.771 980.384 144.33 980.771 147.043H1005.27C1004.5 141.461 1002.95 136.188 1000.47 131.381C997.984 126.497 994.65 122.31 990.308 118.743C985.966 115.176 980.771 112.463 974.724 110.447C968.676 108.431 961.93 107.501 954.487 107.501C946.423 107.501 938.98 108.819 932.157 111.377C925.334 113.936 919.519 117.735 914.557 122.697C909.594 127.66 905.718 133.63 903.004 140.608C900.29 147.586 898.895 155.34 898.895 163.791M857.724 219.383V165.109C857.724 160.379 858.189 155.882 859.197 151.618C860.205 147.431 861.678 143.709 863.771 140.53C865.865 137.351 868.423 134.87 871.525 133.087C874.626 131.304 878.27 130.373 882.38 130.373C883.465 130.373 884.551 130.451 885.714 130.606C886.877 130.761 887.962 130.994 889.048 131.304C890.133 131.614 891.296 132.002 892.459 132.544C893.7 133.01 894.863 133.63 896.103 134.25L902.539 109.749C901.143 109.284 899.825 108.896 898.429 108.586C897.034 108.276 895.716 108.043 894.398 107.888C893.079 107.733 891.839 107.656 890.598 107.578C889.358 107.501 888.117 107.501 886.954 107.501C883.465 107.501 880.209 107.888 877.262 108.741C874.316 109.594 871.525 110.757 869.044 112.463C866.485 114.091 864.314 116.029 862.376 118.278C860.437 120.526 858.809 123.085 857.413 126.109H856.716V107.811H832.912V219.538H857.646L857.724 219.383ZM764.992 126.652C768.946 126.652 772.435 127.117 775.537 127.97C778.56 128.823 781.274 130.141 783.523 132.002C785.771 133.785 787.71 136.033 789.105 138.747C790.578 141.461 791.509 144.717 791.974 148.439H736.149C737.079 145.105 738.397 142.081 740.181 139.367C741.964 136.654 744.057 134.328 746.461 132.467C748.865 130.606 751.656 129.21 754.835 128.202C757.936 127.194 761.348 126.729 764.992 126.729M709.632 161.31C709.632 170.459 710.872 178.678 713.431 185.888C715.912 193.099 719.634 199.302 724.441 204.342C729.248 209.381 735.141 213.181 742.041 215.817C748.942 218.375 756.851 219.694 765.767 219.694C772.59 219.694 779.026 218.763 784.841 216.825C790.733 214.886 795.851 212.25 800.193 208.916C804.535 205.582 808.101 201.705 810.815 197.208C813.529 192.789 815.312 188.059 816.087 183.02H791.819C791.199 185.268 790.268 187.517 788.95 189.532C787.632 191.626 785.926 193.409 783.833 195.037C781.662 196.666 779.103 197.906 776.157 198.837C773.211 199.767 769.799 200.232 766 200.232C761.58 200.232 757.548 199.457 753.827 197.829C750.183 196.2 747.004 193.874 744.29 190.851C741.654 187.827 739.483 184.105 737.855 179.763C736.226 175.421 735.296 170.614 734.986 165.186H817.173V157.588C817.173 149.757 815.932 142.701 813.529 136.421C811.125 130.141 807.558 124.868 802.906 120.604C798.254 116.34 792.749 113.083 786.314 110.835C779.879 108.586 772.823 107.501 765.069 107.501C757.316 107.501 749.795 108.741 742.972 111.3C736.149 113.781 730.334 117.503 725.371 122.31C720.409 127.117 716.533 132.854 713.819 139.445C711.105 146.113 709.709 153.401 709.709 161.31M544.483 219.461L542.622 101.608H543.552L594.803 219.461H614.729L665.98 99.5144H666.91L664.817 219.461H690.713V62.2202H657.761L605.58 184.648H604.882L552.003 62.2202H518.586V219.694H544.483V219.461Z" fill="black"/>
<path d="M426.77 234.989C426.77 261.893 427.08 288.798 426.615 315.703C426.305 335.241 418.939 352.299 405.448 366.566C399.788 372.536 393.197 377.188 386.142 381.297C341.249 407.194 296.511 433.323 251.541 458.91C226.42 473.176 200.446 473.176 175.324 458.91C129.579 432.935 84.1434 406.496 38.708 380.057C17.2308 367.573 4.36002 348.81 1.10355 324.154C-0.137003 314.772 0.173136 305.158 0.173136 295.621C0.0956011 248.868 -0.214538 202.114 0.250671 155.361C0.56081 126.44 13.8193 104.032 38.7855 89.4559C84.1434 62.9389 129.579 36.6546 175.247 10.758C200.523 -3.58599 226.497 -3.58599 251.696 10.758C297.519 36.7321 343.032 63.2491 388.545 89.766C409.867 102.172 422.583 120.935 425.84 145.359C427.08 154.74 426.77 164.355 426.848 173.891C427.003 194.283 426.848 214.675 426.848 235.066" fill="black"/>
<path d="M321.799 178.269C326.451 178.269 330.483 178.734 333.894 179.742C337.306 180.75 340.097 182.146 342.268 183.929C344.439 185.713 346.067 187.883 346.997 190.365C348.005 192.846 348.471 195.715 348.471 198.893C348.471 202.227 347.928 205.329 346.765 208.198C345.602 211.066 343.974 213.548 341.648 215.719C339.399 217.812 336.53 219.44 333.119 220.603C329.707 221.766 325.83 222.309 321.411 222.309H280.162V178.347H321.644L321.799 178.269ZM326.063 242.856C330.715 242.856 334.902 243.398 338.546 244.561C342.19 245.725 345.137 247.353 347.463 249.446C349.789 251.54 351.572 254.021 352.813 256.89C353.976 259.758 354.596 262.937 354.596 266.426C354.596 270.226 354.053 273.637 352.89 276.738C351.727 279.84 349.944 282.554 347.54 284.88C345.137 287.206 342.113 288.989 338.624 290.23C335.057 291.47 330.87 292.013 326.063 292.013H280.317V242.856H326.063ZM328.079 313.102C336.375 313.102 343.819 311.939 350.409 309.691C356.999 307.442 362.504 304.186 366.924 300.076C371.343 295.89 374.755 291.005 377.003 285.345C379.252 279.685 380.415 273.56 380.415 266.892C380.415 262.317 379.717 258.13 378.244 254.176C376.771 250.222 374.755 246.732 372.119 243.554C369.483 240.375 366.226 237.738 362.349 235.723C358.473 233.707 354.208 232.233 349.556 231.303V230.373C353.665 229.132 357.232 227.504 360.333 225.41C363.435 223.317 365.994 220.758 368.009 217.967C370.025 215.098 371.576 211.997 372.506 208.663C373.514 205.329 373.98 201.762 373.98 198.041C373.98 191.528 372.972 185.79 370.956 180.828C368.94 175.866 365.761 171.601 361.574 168.035C357.31 164.468 352.037 161.832 345.679 159.971C339.322 158.188 331.956 157.257 323.504 157.257H254.576V313.18H328.001L328.079 313.102ZM85.8599 313.102L84.0767 196.412H85.0071L135.792 313.102H155.486L206.272 194.396H207.202L205.186 313.102H230.773V157.18H198.13L146.492 278.367H145.794L93.4584 157.18H60.2734V313.102H85.8599Z" fill="white"/>
<path d="M1896.16 533.665V455.539H1905.55V533.665H1896.16Z" fill="black"/>
<path d="M1841.48 520.427C1841.48 518.221 1841.8 516.265 1842.44 514.557C1843.09 512.849 1844.08 511.32 1845.43 509.968C1846.86 508.616 1848.64 507.477 1850.77 506.552C1852.9 505.627 1855.5 504.916 1858.56 504.418L1868.81 502.71C1870.3 502.425 1871.48 502.176 1872.33 501.963C1873.18 501.749 1873.82 501.5 1874.25 501.216C1874.75 500.931 1875.1 500.611 1875.32 500.255C1875.53 499.828 1875.64 499.295 1875.64 498.654C1875.64 497.089 1875.39 495.666 1874.89 494.385C1874.46 493.033 1873.79 491.895 1872.86 490.97C1871.94 489.974 1870.76 489.227 1869.34 488.728C1867.92 488.23 1866.32 487.981 1864.54 487.981C1862.69 487.981 1861.02 488.23 1859.52 488.728C1858.1 489.155 1856.89 489.831 1855.89 490.756C1854.9 491.61 1854.11 492.642 1853.54 493.852C1853.05 495.061 1852.73 496.377 1852.58 497.8H1843.62C1843.76 495.31 1844.29 492.998 1845.22 490.863C1846.22 488.728 1847.6 486.879 1849.38 485.313C1851.16 483.748 1853.33 482.538 1855.89 481.684C1858.45 480.759 1861.34 480.297 1864.54 480.297C1867.88 480.297 1870.83 480.724 1873.4 481.578C1876.03 482.431 1878.2 483.712 1879.91 485.42C1881.61 487.056 1882.9 489.084 1883.75 491.503C1884.6 493.852 1885.03 496.52 1885.03 499.508V533.662H1876.06V526.724H1875.64C1874.93 528.076 1874 529.286 1872.86 530.353C1871.72 531.349 1870.44 532.203 1869.02 532.914C1867.6 533.555 1866.03 534.053 1864.32 534.409C1862.69 534.764 1860.91 534.942 1858.99 534.942C1856.28 534.942 1853.83 534.587 1851.62 533.875C1849.42 533.235 1847.57 532.274 1846.07 530.993C1844.58 529.713 1843.44 528.183 1842.66 526.404C1841.88 524.625 1841.48 522.633 1841.48 520.427ZM1875.64 511.889V506.872C1875.35 507.157 1875.03 507.442 1874.68 507.726C1874.32 508.011 1873.89 508.26 1873.4 508.473C1872.97 508.616 1872.47 508.758 1871.9 508.9C1871.33 509.043 1870.73 509.185 1870.09 509.327L1860.27 511.035C1858.56 511.32 1857.1 511.711 1855.89 512.209C1854.75 512.707 1853.79 513.312 1853.01 514.023C1852.3 514.735 1851.77 515.553 1851.41 516.478C1851.05 517.403 1850.88 518.435 1850.88 519.573C1850.88 520.712 1851.05 521.743 1851.41 522.668C1851.84 523.593 1852.44 524.412 1853.22 525.123C1854.08 525.835 1855.11 526.368 1856.32 526.724C1857.6 527.08 1859.06 527.258 1860.7 527.258C1862.76 527.258 1864.68 526.938 1866.46 526.297C1868.31 525.657 1869.91 524.696 1871.26 523.416C1872.61 522.064 1873.68 520.427 1874.46 518.506C1875.25 516.585 1875.64 514.379 1875.64 511.889Z" fill="black"/>
<path d="M1783.84 540.065H1792.81C1792.81 541.631 1793.16 543.054 1793.88 544.335C1794.59 545.615 1795.55 546.683 1796.76 547.536C1798.04 548.461 1799.53 549.137 1801.24 549.564C1803.02 550.062 1804.9 550.311 1806.9 550.311C1809.32 550.311 1811.52 549.956 1813.51 549.244C1815.51 548.604 1817.25 547.536 1818.74 546.042C1820.24 544.619 1821.41 542.662 1822.27 540.172C1823.12 537.682 1823.55 534.658 1823.55 531.1V525.55H1823.12C1822.27 527.187 1821.23 528.61 1820.02 529.819C1818.81 531.029 1817.43 532.025 1815.86 532.808C1814.37 533.519 1812.73 534.053 1810.95 534.409C1809.24 534.764 1807.47 534.942 1805.62 534.942C1802.27 534.942 1799.18 534.338 1796.33 533.128C1793.56 531.918 1791.14 530.175 1789.07 527.898C1787.01 525.55 1785.41 522.704 1784.27 519.36C1783.13 516.016 1782.56 512.245 1782.56 508.047C1782.56 503.848 1783.17 500.042 1784.38 496.626C1785.59 493.211 1787.29 490.294 1789.5 487.875C1791.71 485.384 1794.27 483.499 1797.18 482.218C1800.1 480.937 1803.2 480.297 1806.47 480.297C1808.32 480.297 1810.06 480.475 1811.7 480.831C1813.34 481.186 1814.87 481.756 1816.29 482.538C1817.71 483.25 1818.99 484.21 1820.13 485.42C1821.27 486.558 1822.27 487.981 1823.12 489.689H1823.55V481.578H1832.51V531.1C1832.51 535.867 1831.84 539.959 1830.48 543.374C1829.2 546.86 1827.39 549.671 1825.04 551.806C1822.69 553.94 1819.99 555.506 1816.93 556.502C1813.87 557.498 1810.53 557.996 1806.9 557.996C1803.62 557.996 1800.56 557.605 1797.72 556.822C1794.94 556.039 1792.49 554.865 1790.35 553.3C1788.29 551.806 1786.69 549.92 1785.55 547.643C1784.41 545.437 1783.84 542.911 1783.84 540.065ZM1792.38 508.047C1792.38 511.035 1792.77 513.739 1793.56 516.158C1794.34 518.506 1795.41 520.463 1796.76 522.028C1798.18 523.593 1799.82 524.803 1801.67 525.657C1803.59 526.44 1805.62 526.831 1807.75 526.831C1809.89 526.831 1811.88 526.404 1813.73 525.55C1815.65 524.696 1817.29 523.451 1818.64 521.815C1820.06 520.178 1821.16 518.15 1821.95 515.731C1822.73 513.312 1823.12 510.608 1823.12 507.62C1823.12 504.631 1822.73 501.927 1821.95 499.508C1821.16 497.089 1820.06 495.061 1818.64 493.425C1817.29 491.788 1815.65 490.543 1813.73 489.689C1811.88 488.835 1809.89 488.408 1807.75 488.408C1805.62 488.408 1803.59 488.871 1801.67 489.796C1799.82 490.65 1798.18 491.93 1796.76 493.638C1795.41 495.346 1794.34 497.445 1793.56 499.935C1792.77 502.354 1792.38 505.058 1792.38 508.047Z" fill="black"/>
<path d="M1730.11 513.162V481.57H1739.5V511.881C1739.5 514.585 1739.79 516.898 1740.36 518.819C1740.92 520.74 1741.71 522.305 1742.7 523.515C1743.77 524.653 1745.02 525.507 1746.44 526.076C1747.93 526.575 1749.61 526.824 1751.46 526.824C1753.45 526.824 1755.26 526.397 1756.9 525.543C1758.61 524.689 1760.06 523.444 1761.27 521.807C1762.56 520.171 1763.52 518.214 1764.16 515.937C1764.8 513.66 1765.12 511.17 1765.12 508.466V481.57H1774.51V533.654H1765.54V525.97H1765.12C1764.33 527.464 1763.44 528.78 1762.45 529.919C1761.45 531.057 1760.28 532.018 1758.93 532.8C1757.65 533.512 1756.19 534.046 1754.55 534.401C1752.99 534.757 1751.24 534.935 1749.32 534.935C1746.62 534.935 1744.13 534.544 1741.85 533.761C1739.57 532.978 1737.54 531.733 1735.77 530.025C1733.99 528.318 1732.6 526.076 1731.6 523.302C1730.61 520.455 1730.11 517.076 1730.11 513.162Z" fill="black"/>
<path d="M1701.05 518.3V489.27H1691.23V481.585H1701.05V465.789H1710.45V481.585H1724.11V489.27H1710.45V517.873C1710.45 519.296 1710.59 520.506 1710.87 521.502C1711.16 522.427 1711.58 523.209 1712.15 523.85C1712.72 524.419 1713.47 524.846 1714.39 525.131C1715.32 525.415 1716.42 525.558 1717.7 525.558H1724.11V533.669H1716.42C1713.86 533.669 1711.62 533.349 1709.7 532.708C1707.78 532.068 1706.18 531.107 1704.9 529.827C1703.61 528.546 1702.65 526.945 1702.01 525.024C1701.37 523.103 1701.05 520.861 1701.05 518.3Z" fill="black"/>
<path d="M1660.91 533.662V481.578H1669.87V489.155H1670.19C1670.83 487.732 1671.58 486.487 1672.43 485.42C1673.36 484.353 1674.39 483.428 1675.53 482.645C1676.74 481.862 1678.02 481.293 1679.37 480.937C1680.79 480.51 1682.32 480.297 1683.96 480.297C1684.53 480.297 1685.1 480.332 1685.67 480.404C1686.24 480.475 1686.81 480.581 1687.38 480.724C1688.02 480.866 1688.66 481.08 1689.3 481.364C1689.94 481.649 1690.58 482.005 1691.22 482.431L1688.23 490.97C1687.66 490.685 1687.09 490.436 1686.52 490.223C1685.95 490.009 1685.42 489.831 1684.92 489.689C1684.42 489.547 1683.89 489.44 1683.32 489.369C1682.82 489.298 1682.32 489.262 1681.83 489.262C1679.9 489.262 1678.23 489.725 1676.81 490.65C1675.39 491.575 1674.18 492.82 1673.18 494.385C1672.18 495.951 1671.44 497.8 1670.94 499.935C1670.51 501.999 1670.3 504.169 1670.3 506.446V533.662H1660.91Z" fill="black"/>
<path d="M1601.56 507.62C1601.56 503.493 1602.17 499.757 1603.38 496.413C1604.66 492.998 1606.44 490.116 1608.71 487.768C1611.06 485.349 1613.8 483.499 1616.93 482.218C1620.06 480.937 1623.48 480.297 1627.18 480.297C1631.09 480.297 1634.61 480.937 1637.74 482.218C1640.95 483.499 1643.65 485.349 1645.86 487.768C1648.13 490.116 1649.84 492.998 1650.98 496.413C1652.19 499.757 1652.79 503.493 1652.79 507.62C1652.79 511.746 1652.15 515.518 1650.87 518.933C1649.66 522.277 1647.88 525.159 1645.53 527.578C1643.26 529.926 1640.55 531.74 1637.42 533.021C1634.29 534.302 1630.88 534.942 1627.18 534.942C1623.26 534.942 1619.71 534.302 1616.5 533.021C1613.37 531.74 1610.67 529.926 1608.39 527.578C1606.19 525.159 1604.48 522.277 1603.27 518.933C1602.13 515.518 1601.56 511.746 1601.56 507.62ZM1611.38 507.62C1611.38 510.466 1611.74 513.098 1612.45 515.518C1613.23 517.866 1614.33 519.893 1615.76 521.601C1617.18 523.238 1618.85 524.518 1620.77 525.443C1622.69 526.368 1624.83 526.831 1627.18 526.831C1629.53 526.831 1631.66 526.368 1633.58 525.443C1635.5 524.518 1637.17 523.238 1638.6 521.601C1640.02 519.893 1641.09 517.866 1641.8 515.518C1642.58 513.098 1642.97 510.466 1642.97 507.62C1642.97 504.702 1642.58 502.07 1641.8 499.722C1641.09 497.302 1640.02 495.275 1638.6 493.638C1637.17 491.93 1635.5 490.65 1633.58 489.796C1631.66 488.871 1629.53 488.408 1627.18 488.408C1624.83 488.408 1622.69 488.871 1620.77 489.796C1618.85 490.721 1617.18 492.037 1615.76 493.745C1614.33 495.381 1613.23 497.409 1612.45 499.828C1611.74 502.176 1611.38 504.773 1611.38 507.62Z" fill="black"/>
<path d="M1545.2 533.68V460.25H1572.95C1577.08 460.25 1580.74 460.819 1583.95 461.958C1587.22 463.096 1589.96 464.733 1592.16 466.867C1594.44 468.931 1596.15 471.421 1597.29 474.338C1598.43 477.184 1598.99 480.315 1598.99 483.73C1598.99 487.217 1598.43 490.454 1597.29 493.443C1596.15 496.36 1594.44 498.922 1592.16 501.127C1589.96 503.333 1587.22 505.041 1583.95 506.25C1580.74 507.46 1577.08 508.065 1572.95 508.065H1555.02V533.68H1545.2ZM1573.38 468.788H1555.02V499.526H1573.38C1575.94 499.526 1578.22 499.135 1580.21 498.352C1582.2 497.499 1583.87 496.36 1585.23 494.937C1586.58 493.443 1587.57 491.771 1588.22 489.921C1588.86 488 1589.18 485.936 1589.18 483.73C1589.18 481.596 1588.86 479.639 1588.22 477.86C1587.57 476.01 1586.58 474.409 1585.23 473.058C1583.95 471.706 1582.31 470.674 1580.32 469.962C1578.32 469.18 1576.01 468.788 1573.38 468.788Z" fill="black"/>
<path d="M1469.21 507.62C1469.21 503.635 1469.82 499.971 1471.03 496.626C1472.31 493.211 1474.05 490.294 1476.26 487.875C1478.53 485.455 1481.16 483.605 1484.15 482.325C1487.21 480.973 1490.49 480.297 1493.97 480.297C1497.39 480.297 1500.48 480.866 1503.26 482.005C1506.1 483.072 1508.56 484.708 1510.62 486.914C1512.69 489.049 1514.25 491.646 1515.32 494.705C1516.46 497.765 1517.03 501.216 1517.03 505.058V508.9H1479.03C1479.1 511.604 1479.53 514.059 1480.31 516.265C1481.09 518.47 1482.16 520.356 1483.51 521.921C1484.86 523.487 1486.43 524.696 1488.21 525.55C1490.06 526.404 1492.12 526.831 1494.4 526.831C1496.25 526.831 1497.92 526.617 1499.42 526.191C1500.91 525.692 1502.19 525.016 1503.26 524.163C1504.32 523.309 1505.18 522.348 1505.82 521.281C1506.46 520.214 1506.92 519.075 1507.21 517.866H1516.6C1516.24 520.214 1515.46 522.419 1514.25 524.483C1513.04 526.546 1511.44 528.361 1509.45 529.926C1507.53 531.491 1505.29 532.737 1502.72 533.662C1500.16 534.515 1497.39 534.942 1494.4 534.942C1490.41 534.942 1486.82 534.302 1483.62 533.021C1480.49 531.74 1477.86 529.926 1475.72 527.578C1473.59 525.159 1471.95 522.277 1470.81 518.933C1469.74 515.518 1469.21 511.746 1469.21 507.62ZM1493.97 488.408C1492.19 488.408 1490.52 488.728 1488.96 489.369C1487.39 489.938 1485.97 490.828 1484.69 492.037C1483.48 493.176 1482.41 494.599 1481.48 496.306C1480.63 497.943 1479.99 499.793 1479.56 501.856H1507.42C1507.21 499.508 1506.74 497.516 1506.03 495.879C1505.39 494.172 1504.5 492.784 1503.36 491.717C1502.23 490.578 1500.87 489.76 1499.31 489.262C1497.74 488.693 1495.96 488.408 1493.97 488.408Z" fill="black"/>
<path d="M1411.18 508.05C1411.18 503.852 1411.78 500.045 1412.99 496.63C1414.2 493.215 1415.91 490.297 1418.12 487.878C1420.32 485.388 1422.88 483.502 1425.8 482.221C1428.72 480.941 1431.81 480.3 1435.09 480.3C1436.94 480.3 1438.68 480.478 1440.32 480.834C1441.95 481.19 1443.48 481.759 1444.91 482.542C1446.33 483.253 1447.61 484.214 1448.75 485.423C1449.89 486.562 1450.88 487.985 1451.74 489.692H1452.16C1452.09 488.127 1452.02 486.491 1451.95 484.783C1451.88 483.075 1451.81 481.474 1451.74 479.98C1451.74 478.415 1451.74 477.063 1451.74 475.924C1451.74 474.786 1451.74 473.541 1451.74 472.189V455.539H1461.13V533.665H1452.16V525.554H1451.74C1450.88 527.19 1449.85 528.613 1448.64 529.823C1447.43 531.032 1446.04 532.028 1444.48 532.811C1442.99 533.523 1441.35 534.056 1439.57 534.412C1437.86 534.768 1436.08 534.946 1434.23 534.946C1430.89 534.946 1427.79 534.341 1424.95 533.131C1422.17 531.922 1419.75 530.178 1417.69 527.902C1415.63 525.554 1414.03 522.707 1412.89 519.363C1411.75 516.019 1411.18 512.248 1411.18 508.05ZM1421 508.05C1421 511.038 1421.39 513.742 1422.17 516.161C1422.96 518.509 1424.02 520.466 1425.37 522.031C1426.8 523.597 1428.43 524.806 1430.28 525.66C1432.21 526.443 1434.23 526.834 1436.37 526.834C1438.5 526.834 1440.49 526.407 1442.34 525.554C1444.27 524.7 1445.9 523.455 1447.25 521.818C1448.68 520.182 1449.78 518.154 1450.56 515.734C1451.35 513.315 1451.74 510.611 1451.74 507.623C1451.74 504.635 1451.35 501.931 1450.56 499.512C1449.78 497.092 1448.68 495.065 1447.25 493.428C1445.9 491.791 1444.27 490.546 1442.34 489.692C1440.49 488.839 1438.5 488.412 1436.37 488.412C1434.23 488.412 1432.21 488.874 1430.28 489.799C1428.43 490.653 1426.8 491.934 1425.37 493.641C1424.02 495.349 1422.96 497.448 1422.17 499.939C1421.39 502.358 1421 505.062 1421 508.05Z" fill="black"/>
<path d="M1336.51 507.62C1336.51 503.493 1337.11 499.757 1338.32 496.413C1339.6 492.998 1341.38 490.116 1343.66 487.768C1346.01 485.349 1348.75 483.499 1351.88 482.218C1355.01 480.937 1358.42 480.297 1362.12 480.297C1366.04 480.297 1369.56 480.937 1372.69 482.218C1375.89 483.499 1378.59 485.349 1380.8 487.768C1383.08 490.116 1384.79 492.998 1385.92 496.413C1387.13 499.757 1387.74 503.493 1387.74 507.62C1387.74 511.746 1387.1 515.518 1385.82 518.933C1384.61 522.277 1382.83 525.159 1380.48 527.578C1378.2 529.926 1375.5 531.74 1372.37 533.021C1369.24 534.302 1365.82 534.942 1362.12 534.942C1358.21 534.942 1354.65 534.302 1351.45 533.021C1348.32 531.74 1345.62 529.926 1343.34 527.578C1341.13 525.159 1339.43 522.277 1338.22 518.933C1337.08 515.518 1336.51 511.746 1336.51 507.62ZM1346.33 507.62C1346.33 510.466 1346.68 513.098 1347.39 515.518C1348.18 517.866 1349.28 519.893 1350.7 521.601C1352.13 523.238 1353.8 524.518 1355.72 525.443C1357.64 526.368 1359.77 526.831 1362.12 526.831C1364.47 526.831 1366.61 526.368 1368.53 525.443C1370.45 524.518 1372.12 523.238 1373.54 521.601C1374.97 519.893 1376.03 517.866 1376.74 515.518C1377.53 513.098 1377.92 510.466 1377.92 507.62C1377.92 504.702 1377.53 502.07 1376.74 499.722C1376.03 497.302 1374.97 495.275 1373.54 493.638C1372.12 491.93 1370.45 490.65 1368.53 489.796C1366.61 488.871 1364.47 488.408 1362.12 488.408C1359.77 488.408 1357.64 488.871 1355.72 489.796C1353.8 490.721 1352.13 492.037 1350.7 493.745C1349.28 495.381 1348.18 497.409 1347.39 499.828C1346.68 502.176 1346.33 504.773 1346.33 507.62Z" fill="black"/>
<path d="M1284.51 507.62C1284.51 503.564 1285.11 499.864 1286.32 496.52C1287.6 493.104 1289.35 490.187 1291.55 487.768C1293.83 485.349 1296.46 483.499 1299.45 482.218C1302.51 480.937 1305.78 480.297 1309.27 480.297C1312.54 480.297 1315.49 480.759 1318.13 481.684C1320.83 482.609 1323.14 483.926 1325.07 485.633C1326.99 487.27 1328.52 489.262 1329.65 491.61C1330.79 493.887 1331.54 496.377 1331.9 499.081H1322.5C1322.22 497.516 1321.76 496.093 1321.12 494.812C1320.48 493.531 1319.59 492.428 1318.45 491.503C1317.38 490.507 1316.06 489.76 1314.5 489.262C1313 488.693 1311.26 488.408 1309.27 488.408C1307.13 488.408 1305.14 488.871 1303.29 489.796C1301.51 490.721 1299.95 492.037 1298.6 493.745C1297.24 495.452 1296.18 497.48 1295.39 499.828C1294.68 502.176 1294.33 504.773 1294.33 507.62C1294.33 510.466 1294.68 513.063 1295.39 515.411C1296.18 517.759 1297.24 519.787 1298.6 521.494C1299.95 523.202 1301.51 524.518 1303.29 525.443C1305.14 526.368 1307.13 526.831 1309.27 526.831C1311.26 526.831 1313 526.582 1314.5 526.084C1316.06 525.515 1317.38 524.767 1318.45 523.842C1319.59 522.846 1320.48 521.708 1321.12 520.427C1321.76 519.146 1322.22 517.723 1322.5 516.158H1331.9C1331.54 518.862 1330.79 521.388 1329.65 523.736C1328.52 526.013 1326.99 528.005 1325.07 529.713C1323.14 531.349 1320.83 532.63 1318.13 533.555C1315.49 534.48 1312.54 534.942 1309.27 534.942C1305.5 534.942 1302.05 534.302 1298.92 533.021C1295.86 531.74 1293.26 529.926 1291.13 527.578C1288.99 525.159 1287.35 522.277 1286.22 518.933C1285.08 515.518 1284.51 511.746 1284.51 507.62Z" fill="black"/>
<path d="M1232.37 533.662V481.578H1241.33V489.262H1241.76C1242.47 487.768 1243.36 486.487 1244.43 485.42C1245.49 484.281 1246.7 483.356 1248.06 482.645C1249.48 481.862 1251.01 481.293 1252.65 480.937C1254.28 480.51 1256.06 480.297 1257.98 480.297C1260.69 480.297 1263.18 480.688 1265.45 481.471C1267.73 482.254 1269.76 483.499 1271.54 485.206C1273.32 486.914 1274.7 489.191 1275.7 492.037C1276.7 494.812 1277.19 498.156 1277.19 502.07V533.662H1267.8V503.35C1267.8 500.647 1267.52 498.334 1266.95 496.413C1266.38 494.492 1265.56 492.962 1264.49 491.824C1263.5 490.614 1262.25 489.76 1260.76 489.262C1259.33 488.693 1257.7 488.408 1255.85 488.408C1253.86 488.408 1252.01 488.835 1250.3 489.689C1248.59 490.543 1247.1 491.752 1245.82 493.318C1244.53 494.883 1243.54 496.804 1242.83 499.081C1242.12 501.358 1241.76 503.884 1241.76 506.659V533.662H1232.37Z" fill="black"/>
<path d="M1177.7 520.427C1177.7 518.221 1178.02 516.265 1178.66 514.557C1179.3 512.849 1180.29 511.32 1181.64 509.968C1183.07 508.616 1184.85 507.477 1186.98 506.552C1189.12 505.627 1191.71 504.916 1194.77 504.418L1205.02 502.71C1206.51 502.425 1207.69 502.176 1208.54 501.963C1209.39 501.749 1210.03 501.5 1210.46 501.216C1210.96 500.931 1211.32 500.611 1211.53 500.255C1211.74 499.828 1211.85 499.295 1211.85 498.654C1211.85 497.089 1211.6 495.666 1211.1 494.385C1210.67 493.033 1210 491.895 1209.07 490.97C1208.15 489.974 1206.97 489.227 1205.55 488.728C1204.13 488.23 1202.53 487.981 1200.75 487.981C1198.9 487.981 1197.23 488.23 1195.73 488.728C1194.31 489.155 1193.1 489.831 1192.1 490.756C1191.11 491.61 1190.32 492.642 1189.76 493.852C1189.26 495.061 1188.94 496.377 1188.8 497.8H1179.83C1179.97 495.31 1180.51 492.998 1181.43 490.863C1182.43 488.728 1183.81 486.879 1185.59 485.313C1187.37 483.748 1189.54 482.538 1192.1 481.684C1194.67 480.759 1197.55 480.297 1200.75 480.297C1204.09 480.297 1207.05 480.724 1209.61 481.578C1212.24 482.431 1214.41 483.712 1216.12 485.42C1217.83 487.056 1219.11 489.084 1219.96 491.503C1220.81 493.852 1221.24 496.52 1221.24 499.508V533.662H1212.28V526.724H1211.85C1211.14 528.076 1210.21 529.286 1209.07 530.353C1207.94 531.349 1206.65 532.203 1205.23 532.914C1203.81 533.555 1202.24 534.053 1200.54 534.409C1198.9 534.764 1197.12 534.942 1195.2 534.942C1192.5 534.942 1190.04 534.587 1187.83 533.875C1185.63 533.235 1183.78 532.274 1182.28 530.993C1180.79 529.713 1179.65 528.183 1178.87 526.404C1178.09 524.625 1177.7 522.633 1177.7 520.427ZM1211.85 511.889V506.872C1211.56 507.157 1211.24 507.442 1210.89 507.726C1210.53 508.011 1210.11 508.26 1209.61 508.473C1209.18 508.616 1208.68 508.758 1208.11 508.9C1207.54 509.043 1206.94 509.185 1206.3 509.327L1196.48 511.035C1194.77 511.32 1193.31 511.711 1192.1 512.209C1190.97 512.707 1190 513.312 1189.22 514.023C1188.51 514.735 1187.98 515.553 1187.62 516.478C1187.27 517.403 1187.09 518.435 1187.09 519.573C1187.09 520.712 1187.27 521.743 1187.62 522.668C1188.05 523.593 1188.65 524.412 1189.44 525.123C1190.29 525.835 1191.32 526.368 1192.53 526.724C1193.81 527.08 1195.27 527.258 1196.91 527.258C1198.97 527.258 1200.89 526.938 1202.67 526.297C1204.52 525.657 1206.12 524.696 1207.47 523.416C1208.82 522.064 1209.89 520.427 1210.67 518.506C1211.46 516.585 1211.85 514.379 1211.85 511.889Z" fill="black"/>
<path d="M1115.34 533.68V460.25H1145.65C1149.57 460.25 1152.98 460.677 1155.9 461.531C1158.89 462.385 1161.34 463.665 1163.27 465.373C1165.26 467.01 1166.72 469.002 1167.64 471.35C1168.64 473.698 1169.14 476.402 1169.14 479.461C1169.14 481.24 1168.89 482.912 1168.39 484.478C1167.89 486.043 1167.14 487.502 1166.15 488.853C1165.22 490.205 1164.05 491.415 1162.62 492.482C1161.2 493.478 1159.53 494.261 1157.61 494.83V495.257C1159.81 495.684 1161.81 496.396 1163.59 497.392C1165.36 498.317 1166.89 499.526 1168.17 501.021C1169.46 502.444 1170.42 504.08 1171.06 505.93C1171.77 507.78 1172.12 509.772 1172.12 511.907C1172.12 515.038 1171.59 517.955 1170.52 520.659C1169.46 523.292 1167.89 525.604 1165.83 527.596C1163.76 529.517 1161.2 531.012 1158.14 532.079C1155.15 533.146 1151.7 533.68 1147.79 533.68H1115.34ZM1147.79 499.953H1125.16V525.141H1147.79C1150.21 525.141 1152.31 524.821 1154.09 524.181C1155.94 523.541 1157.47 522.651 1158.68 521.513C1159.89 520.303 1160.77 518.916 1161.34 517.35C1161.98 515.714 1162.3 513.935 1162.3 512.014C1162.3 510.306 1161.98 508.705 1161.34 507.211C1160.77 505.717 1159.89 504.436 1158.68 503.369C1157.47 502.301 1155.94 501.483 1154.09 500.914C1152.31 500.274 1150.21 499.953 1147.79 499.953ZM1145.65 468.788H1125.16V491.415H1145.65C1147.86 491.415 1149.82 491.13 1151.53 490.561C1153.23 489.921 1154.66 489.067 1155.79 488C1157 486.861 1157.89 485.58 1158.46 484.157C1159.03 482.663 1159.32 481.062 1159.32 479.355C1159.32 477.718 1159.07 476.259 1158.57 474.979C1158.07 473.698 1157.25 472.595 1156.11 471.67C1155.05 470.745 1153.62 470.034 1151.85 469.535C1150.14 469.037 1148.07 468.788 1145.65 468.788Z" fill="black"/>
<path d="M1035.99 507.62C1035.99 503.493 1036.6 499.757 1037.81 496.413C1039.09 492.998 1040.87 490.116 1043.14 487.768C1045.49 485.349 1048.23 483.499 1051.36 482.218C1054.49 480.937 1057.91 480.297 1061.61 480.297C1065.52 480.297 1069.04 480.937 1072.17 482.218C1075.38 483.499 1078.08 485.349 1080.28 487.768C1082.56 490.116 1084.27 492.998 1085.41 496.413C1086.62 499.757 1087.22 503.493 1087.22 507.62C1087.22 511.746 1086.58 515.518 1085.3 518.933C1084.09 522.277 1082.31 525.159 1079.96 527.578C1077.69 529.926 1074.98 531.74 1071.85 533.021C1068.72 534.302 1065.31 534.942 1061.61 534.942C1057.69 534.942 1054.14 534.302 1050.93 533.021C1047.8 531.74 1045.1 529.926 1042.82 527.578C1040.62 525.159 1038.91 522.277 1037.7 518.933C1036.56 515.518 1035.99 511.746 1035.99 507.62ZM1045.81 507.62C1045.81 510.466 1046.17 513.098 1046.88 515.518C1047.66 517.866 1048.76 519.893 1050.19 521.601C1051.61 523.238 1053.28 524.518 1055.2 525.443C1057.12 526.368 1059.26 526.831 1061.61 526.831C1063.96 526.831 1066.09 526.368 1068.01 525.443C1069.93 524.518 1071.6 523.238 1073.03 521.601C1074.45 519.893 1075.52 517.866 1076.23 515.518C1077.01 513.098 1077.4 510.466 1077.4 507.62C1077.4 504.702 1077.01 502.07 1076.23 499.722C1075.52 497.302 1074.45 495.275 1073.03 493.638C1071.6 491.93 1069.93 490.65 1068.01 489.796C1066.09 488.871 1063.96 488.408 1061.61 488.408C1059.26 488.408 1057.12 488.871 1055.2 489.796C1053.28 490.721 1051.61 492.037 1050.19 493.745C1048.76 495.381 1047.66 497.409 1046.88 499.828C1046.17 502.176 1045.81 504.773 1045.81 507.62Z" fill="black"/>
<path d="M983.859 533.662V481.578H992.825V489.262H993.252C993.963 487.768 994.853 486.487 995.92 485.42C996.987 484.281 998.197 483.356 999.549 482.645C1000.97 481.862 1002.5 481.293 1004.14 480.937C1005.77 480.51 1007.55 480.297 1009.47 480.297C1012.18 480.297 1014.67 480.688 1016.95 481.471C1019.22 482.254 1021.25 483.499 1023.03 485.206C1024.81 486.914 1026.2 489.191 1027.19 492.037C1028.19 494.812 1028.69 498.156 1028.69 502.07V533.662H1019.29V503.35C1019.29 500.647 1019.01 498.334 1018.44 496.413C1017.87 494.492 1017.05 492.962 1015.98 491.824C1014.99 490.614 1013.74 489.76 1012.25 489.262C1010.83 488.693 1009.19 488.408 1007.34 488.408C1005.35 488.408 1003.5 488.835 1001.79 489.689C1000.08 490.543 998.588 491.752 997.307 493.318C996.027 494.883 995.03 496.804 994.319 499.081C993.607 501.358 993.252 503.884 993.252 506.659V533.662H983.859Z" fill="black"/>
<path d="M905.406 507.62C905.406 503.493 906.011 499.757 907.221 496.413C908.501 492.998 910.28 490.116 912.557 487.768C914.905 485.349 917.645 483.499 920.775 482.218C923.906 480.937 927.321 480.297 931.021 480.297C934.935 480.297 938.457 480.937 941.588 482.218C944.789 483.499 947.493 485.349 949.699 487.768C951.976 490.116 953.684 492.998 954.822 496.413C956.032 499.757 956.636 503.493 956.636 507.62C956.636 511.746 955.996 515.518 954.715 518.933C953.506 522.277 951.727 525.159 949.379 527.578C947.102 529.926 944.398 531.74 941.267 533.021C938.137 534.302 934.721 534.942 931.021 534.942C927.108 534.942 923.55 534.302 920.348 533.021C917.218 531.74 914.514 529.926 912.237 527.578C910.031 525.159 908.324 522.277 907.114 518.933C905.975 515.518 905.406 511.746 905.406 507.62ZM915.225 507.62C915.225 510.466 915.581 513.098 916.293 515.518C917.075 517.866 918.178 519.893 919.601 521.601C921.024 523.238 922.696 524.518 924.618 525.443C926.539 526.368 928.673 526.831 931.021 526.831C933.369 526.831 935.504 526.368 937.425 525.443C939.346 524.518 941.018 523.238 942.441 521.601C943.864 519.893 944.932 517.866 945.643 515.518C946.426 513.098 946.817 510.466 946.817 507.62C946.817 504.702 946.426 502.07 945.643 499.722C944.932 497.302 943.864 495.275 942.441 493.638C941.018 491.93 939.346 490.65 937.425 489.796C935.504 488.871 933.369 488.408 931.021 488.408C928.673 488.408 926.539 488.871 924.618 489.796C922.696 490.721 921.024 492.037 919.601 493.745C918.178 495.381 917.075 497.409 916.293 499.828C915.581 502.176 915.225 504.773 915.225 507.62Z" fill="black"/>
<path d="M847.344 508.05C847.344 503.852 847.949 500.045 849.158 496.63C850.368 493.215 852.075 490.297 854.281 487.878C856.487 485.388 859.048 483.502 861.966 482.221C864.883 480.941 867.978 480.3 871.251 480.3C873.101 480.3 874.844 480.478 876.481 480.834C878.117 481.19 879.647 481.759 881.07 482.542C882.493 483.253 883.774 484.214 884.913 485.423C886.051 486.562 887.047 487.985 887.901 489.692H888.328C888.257 488.127 888.186 486.491 888.114 484.783C888.043 483.075 887.972 481.474 887.901 479.98C887.901 478.415 887.901 477.063 887.901 475.924C887.901 474.786 887.901 473.541 887.901 472.189V455.539H897.293V533.665H888.328V525.554H887.901C887.047 527.19 886.015 528.613 884.806 529.823C883.596 531.032 882.209 532.028 880.643 532.811C879.149 533.523 877.513 534.056 875.734 534.412C874.026 534.768 872.247 534.946 870.397 534.946C867.053 534.946 863.958 534.341 861.112 533.131C858.337 531.922 855.918 530.178 853.854 527.902C851.791 525.554 850.19 522.707 849.051 519.363C847.913 516.019 847.344 512.248 847.344 508.05ZM857.163 508.05C857.163 511.038 857.554 513.742 858.337 516.161C859.12 518.509 860.187 520.466 861.539 522.031C862.962 523.597 864.598 524.806 866.448 525.66C868.369 526.443 870.397 526.834 872.532 526.834C874.666 526.834 876.659 526.407 878.509 525.554C880.43 524.7 882.066 523.455 883.418 521.818C884.841 520.182 885.944 518.154 886.727 515.734C887.51 513.315 887.901 510.611 887.901 507.623C887.901 504.635 887.51 501.931 886.727 499.512C885.944 497.092 884.841 495.065 883.418 493.428C882.066 491.791 880.43 490.546 878.509 489.692C876.659 488.839 874.666 488.412 872.532 488.412C870.397 488.412 868.369 488.874 866.448 489.799C864.598 490.653 862.962 491.934 861.539 493.641C860.187 495.349 859.12 497.448 858.337 499.939C857.554 502.358 857.163 505.062 857.163 508.05Z" fill="black"/>
<path d="M796.523 520.427C796.523 518.221 796.844 516.265 797.484 514.557C798.124 512.849 799.121 511.32 800.472 509.968C801.895 508.616 803.674 507.477 805.809 506.552C807.943 505.627 810.541 504.916 813.6 504.418L823.846 502.71C825.34 502.425 826.514 502.176 827.368 501.963C828.222 501.749 828.862 501.5 829.289 501.216C829.787 500.931 830.143 500.611 830.357 500.255C830.57 499.828 830.677 499.295 830.677 498.654C830.677 497.089 830.428 495.666 829.93 494.385C829.503 493.033 828.827 491.895 827.902 490.97C826.977 489.974 825.803 489.227 824.38 488.728C822.957 488.23 821.356 487.981 819.577 487.981C817.727 487.981 816.055 488.23 814.561 488.728C813.138 489.155 811.928 489.831 810.932 490.756C809.936 491.61 809.153 492.642 808.584 493.852C808.086 495.061 807.766 496.377 807.623 497.8H798.658C798.8 495.31 799.334 492.998 800.259 490.863C801.255 488.728 802.643 486.879 804.421 485.313C806.2 483.748 808.37 482.538 810.932 481.684C813.493 480.759 816.375 480.297 819.577 480.297C822.921 480.297 825.874 480.724 828.436 481.578C831.068 482.431 833.238 483.712 834.946 485.42C836.654 487.056 837.934 489.084 838.788 491.503C839.642 493.852 840.069 496.52 840.069 499.508V533.662H831.104V526.724H830.677C829.965 528.076 829.04 529.286 827.902 530.353C826.763 531.349 825.483 532.203 824.06 532.914C822.637 533.555 821.071 534.053 819.364 534.409C817.727 534.764 815.948 534.942 814.027 534.942C811.323 534.942 808.868 534.587 806.663 533.875C804.457 533.235 802.607 532.274 801.113 530.993C799.619 529.713 798.48 528.183 797.697 526.404C796.915 524.625 796.523 522.633 796.523 520.427ZM830.677 511.889V506.872C830.392 507.157 830.072 507.442 829.716 507.726C829.361 508.011 828.934 508.26 828.436 508.473C828.009 508.616 827.511 508.758 826.941 508.9C826.372 509.043 825.767 509.185 825.127 509.327L815.308 511.035C813.6 511.32 812.141 511.711 810.932 512.209C809.793 512.707 808.833 513.312 808.05 514.023C807.339 514.735 806.805 515.553 806.449 516.478C806.094 517.403 805.916 518.435 805.916 519.573C805.916 520.712 806.094 521.743 806.449 522.668C806.876 523.593 807.481 524.412 808.264 525.123C809.117 525.835 810.149 526.368 811.359 526.724C812.64 527.08 814.098 527.258 815.735 527.258C817.798 527.258 819.719 526.938 821.498 526.297C823.348 525.657 824.949 524.696 826.301 523.416C827.653 522.064 828.72 520.427 829.503 518.506C830.286 516.585 830.677 514.379 830.677 511.889Z" fill="black"/>
<path d="M769.155 518.3V489.27H759.336V481.585H769.155V465.789H778.547V481.585H792.209V489.27H778.547V517.873C778.547 519.296 778.69 520.506 778.974 521.502C779.259 522.427 779.686 523.209 780.255 523.85C780.824 524.419 781.571 524.846 782.496 525.131C783.421 525.415 784.524 525.558 785.805 525.558H792.209V533.669H784.524C781.963 533.669 779.721 533.349 777.8 532.708C775.879 532.068 774.278 531.107 772.997 529.827C771.717 528.546 770.756 526.945 770.116 525.024C769.475 523.103 769.155 520.861 769.155 518.3Z" fill="black"/>
<path d="M715.781 518.719H724.747C724.747 520.214 725.067 521.53 725.707 522.668C726.419 523.807 727.379 524.767 728.589 525.55C729.798 526.262 731.115 526.795 732.538 527.151C734.032 527.507 735.562 527.685 737.127 527.685C739.262 527.685 741.112 527.507 742.677 527.151C744.314 526.724 745.665 526.155 746.733 525.443C747.8 524.732 748.583 523.842 749.081 522.775C749.65 521.708 749.935 520.498 749.935 519.146C749.935 518.15 749.757 517.296 749.401 516.585C749.045 515.802 748.512 515.162 747.8 514.664C747.16 514.095 746.341 513.632 745.345 513.276C744.349 512.849 743.175 512.529 741.823 512.316L732.004 510.608C730.012 510.252 728.126 509.79 726.347 509.221C724.64 508.651 723.039 507.833 721.545 506.766C720.122 505.698 718.983 504.347 718.129 502.71C717.275 501.002 716.849 498.939 716.849 496.52C716.849 494.029 717.382 491.788 718.449 489.796C719.517 487.732 720.975 486.025 722.825 484.673C724.747 483.25 726.952 482.182 729.443 481.471C731.933 480.688 734.637 480.297 737.554 480.297C740.4 480.297 743.033 480.617 745.452 481.257C747.942 481.827 750.113 482.787 751.963 484.139C753.884 485.42 755.378 487.056 756.445 489.049C757.512 491.041 758.046 493.389 758.046 496.093H749.081C749.081 494.741 748.796 493.531 748.227 492.464C747.729 491.397 746.946 490.507 745.879 489.796C744.883 489.013 743.673 488.444 742.25 488.088C740.827 487.732 739.262 487.554 737.554 487.554C735.918 487.554 734.388 487.732 732.965 488.088C731.613 488.444 730.403 488.978 729.336 489.689C728.269 490.329 727.45 491.183 726.881 492.251C726.312 493.247 726.027 494.385 726.027 495.666C726.027 496.662 726.205 497.516 726.561 498.227C726.917 498.939 727.45 499.579 728.162 500.149C728.873 500.718 729.798 501.216 730.937 501.643C732.075 501.999 733.427 502.319 734.993 502.603L744.812 504.311C746.946 504.667 748.867 505.165 750.575 505.805C752.283 506.446 753.777 507.299 755.058 508.367C756.41 509.434 757.441 510.786 758.153 512.422C758.936 514.059 759.327 516.016 759.327 518.293C759.327 520.996 758.793 523.416 757.726 525.55C756.659 527.614 755.129 529.357 753.137 530.78C751.215 532.132 748.903 533.164 746.199 533.875C743.495 534.587 740.471 534.942 737.127 534.942C733.996 534.942 731.115 534.587 728.482 533.875C725.921 533.235 723.679 532.239 721.758 530.887C719.837 529.464 718.343 527.756 717.275 525.764C716.279 523.7 715.781 521.352 715.781 518.719Z" fill="black"/>
<path d="M697.82 466.212V455.539H708.066V466.212H697.82ZM698.247 533.665V481.581H707.639V533.665H698.247Z" fill="black"/>
<path d="M637.648 540.065H646.613C646.613 541.631 646.969 543.054 647.681 544.335C648.392 545.615 649.353 546.683 650.562 547.536C651.843 548.461 653.337 549.137 655.045 549.564C656.824 550.062 658.709 550.311 660.701 550.311C663.121 550.311 665.326 549.956 667.319 549.244C669.311 548.604 671.054 547.536 672.548 546.042C674.043 544.619 675.217 542.662 676.071 540.172C676.924 537.682 677.351 534.658 677.351 531.1V525.55H676.924C676.071 527.187 675.039 528.61 673.829 529.819C672.62 531.029 671.232 532.025 669.667 532.808C668.173 533.519 666.536 534.053 664.757 534.409C663.05 534.764 661.271 534.942 659.421 534.942C656.077 534.942 652.981 534.338 650.135 533.128C647.36 531.918 644.941 530.175 642.878 527.898C640.814 525.55 639.213 522.704 638.075 519.36C636.936 516.016 636.367 512.245 636.367 508.047C636.367 503.848 636.972 500.042 638.182 496.626C639.391 493.211 641.099 490.294 643.305 487.875C645.51 485.384 648.072 483.499 650.989 482.218C653.906 480.937 657.002 480.297 660.275 480.297C662.125 480.297 663.868 480.475 665.504 480.831C667.141 481.186 668.671 481.756 670.094 482.538C671.517 483.25 672.797 484.21 673.936 485.42C675.074 486.558 676.071 487.981 676.924 489.689H677.351V481.578H686.317V531.1C686.317 535.867 685.641 539.959 684.289 543.374C683.008 546.86 681.194 549.671 678.845 551.806C676.497 553.94 673.794 555.506 670.734 556.502C667.674 557.498 664.33 557.996 660.701 557.996C657.428 557.996 654.369 557.605 651.523 556.822C648.748 556.039 646.293 554.865 644.158 553.3C642.095 551.806 640.494 549.92 639.356 547.643C638.217 545.437 637.648 542.911 637.648 540.065ZM646.186 508.047C646.186 511.035 646.578 513.739 647.36 516.158C648.143 518.506 649.21 520.463 650.562 522.028C651.985 523.593 653.622 524.803 655.472 525.657C657.393 526.44 659.421 526.831 661.555 526.831C663.69 526.831 665.682 526.404 667.532 525.55C669.453 524.696 671.09 523.451 672.442 521.815C673.865 520.178 674.968 518.15 675.75 515.731C676.533 513.312 676.924 510.608 676.924 507.62C676.924 504.631 676.533 501.927 675.75 499.508C674.968 497.089 673.865 495.061 672.442 493.425C671.09 491.788 669.453 490.543 667.532 489.689C665.682 488.835 663.69 488.408 661.555 488.408C659.421 488.408 657.393 488.871 655.472 489.796C653.622 490.65 651.985 491.93 650.562 493.638C649.21 495.346 648.143 497.445 647.36 499.935C646.578 502.354 646.186 505.058 646.186 508.047Z" fill="black"/>
<path d="M583.43 507.62C583.43 503.635 584.034 499.971 585.244 496.626C586.525 493.211 588.268 490.294 590.474 487.875C592.751 485.455 595.383 483.605 598.372 482.325C601.431 480.973 604.704 480.297 608.191 480.297C611.606 480.297 614.701 480.866 617.476 482.005C620.322 483.072 622.777 484.708 624.841 486.914C626.904 489.049 628.47 491.646 629.537 494.705C630.675 497.765 631.244 501.216 631.244 505.058V508.9H593.249C593.32 511.604 593.747 514.059 594.53 516.265C595.312 518.47 596.38 520.356 597.731 521.921C599.083 523.487 600.649 524.696 602.428 525.55C604.278 526.404 606.341 526.831 608.618 526.831C610.468 526.831 612.14 526.617 613.634 526.191C615.128 525.692 616.409 525.016 617.476 524.163C618.544 523.309 619.397 522.348 620.038 521.281C620.678 520.214 621.141 519.075 621.425 517.866H630.818C630.462 520.214 629.679 522.419 628.47 524.483C627.26 526.546 625.659 528.361 623.667 529.926C621.746 531.491 619.504 532.737 616.943 533.662C614.381 534.515 611.606 534.942 608.618 534.942C604.633 534.942 601.04 534.302 597.838 533.021C594.707 531.74 592.075 529.926 589.94 527.578C587.806 525.159 586.169 522.277 585.031 518.933C583.963 515.518 583.43 511.746 583.43 507.62ZM608.191 488.408C606.412 488.408 604.74 488.728 603.175 489.369C601.609 489.938 600.186 490.828 598.905 492.037C597.696 493.176 596.629 494.599 595.704 496.306C594.85 497.943 594.209 499.793 593.782 501.856H621.639C621.425 499.508 620.963 497.516 620.251 495.879C619.611 494.172 618.722 492.784 617.583 491.717C616.445 490.578 615.093 489.76 613.527 489.262C611.962 488.693 610.183 488.408 608.191 488.408Z" fill="black"/>
<path d="M525.266 533.68V460.25H553.015C557.142 460.25 560.807 460.748 564.008 461.744C567.21 462.669 569.879 464.092 572.013 466.013C574.219 467.863 575.855 470.14 576.923 472.844C578.061 475.548 578.63 478.607 578.63 482.023C578.63 484.727 578.275 487.253 577.563 489.601C576.923 491.949 575.891 494.083 574.468 496.004C573.116 497.854 571.444 499.455 569.452 500.807C567.459 502.159 565.147 503.191 562.514 503.902L581.192 533.68H570.519L552.268 505.076H535.085V533.68H525.266ZM553.442 468.788H535.085V496.538H553.442C555.933 496.538 558.138 496.182 560.059 495.471C561.981 494.688 563.581 493.656 564.862 492.376C566.214 491.024 567.21 489.494 567.851 487.786C568.491 486.007 568.811 484.086 568.811 482.023C568.811 480.031 568.455 478.216 567.744 476.58C567.104 474.943 566.107 473.556 564.756 472.417C563.475 471.208 561.874 470.318 559.953 469.749C558.032 469.109 555.861 468.788 553.442 468.788Z" fill="black"/>
</svg>
