<?xml version="1.0" encoding="utf-8"?>
<!-- Generator: Adobe Illustrator 28.1.0, SVG Export Plug-In . SVG Version: 6.00 Build 0)  -->
<svg version="1.1" id="Capa_1" xmlns="http://www.w3.org/2000/svg" xmlns:xlink="http://www.w3.org/1999/xlink" x="0px" y="0px"
	 viewBox="0 0 1392.8 432.4" style="enable-background:new 0 0 1392.8 432.4;" xml:space="preserve">
<path d="M349,82.9l-13.5,11.7l50.1,28.9v185.4L225,401.6l-22.6-13c0,0-0.1,0-0.1,0.1c-1.1-0.7-2.4-1.5-3.7-2.3
	c-64-38.7-148.4-62.9-107.6-194c1.7-5.4,2.9-10.9,3.7-16.4v-0.1c1.9-14.1,5.8-36.2,30.9-46.4c2.8,0.8-10-1-21.5,37.9
	c9,0,47-19,59.6-25.3c3.4,9.5,10.4,17.6,19.4,17.6c4.2,0,21.9-4.4,20.5-4.8c29.6,8.5,42.4,32,42.4,32s-14.5-13-34.6-14.9
	c27.1,16,47.2,19.3,53.2,60.1c17.2,24.5,29.9,36.1,35.9,41c2.8,2.2,9.4,11.2,10,14.7c-3.3,14.7-26.1,38.2-37,21.5
	c-42.4-39.4-58.2-43.1-71.6-46.1c-19.7-4.5-42.4-15.4-45.5-23.7c-15.6-36.7,39-59.4,39-59.4s-22-1.1-43.8,5.8
	c-25.5,8-42.7,32.2-40.6,58.9c2.6,33.2,32.5,43,43.1,50c1,24.3,32.6,68.6,77.5,56.9c-41.6,0.3-60.8-37.1-62.1-67.1
	c-10.3-2.9-60.9-37.7-19.3-78.7c-28.4,45.4,13.6,62.2,67,78.9c41.4,32.5,23.1,53.7,53.6,53.8c0,0,1.2-8.7-13.5-31.4
	c20.7,13,21,29.8,31.7,23.1c31.5-24.6,40.5-50.2,20.3-60.6c0,0-18.3-15-32.9-37.6c-4.1-30.2-21.4-46.4-33.1-63
	c-1.9-2.6-3.7-5.1-5.3-7.4l-2.2-3l-0.7-0.9l0.3-0.3c-0.7-2.3-1.7-4.5-3.1-6.6c-4.3-6.6-11-10.8-18.3-12.1c-2.3-0.4-4.7-0.5-7-0.3
	c-2.5,0.2-5,0.8-7.4,1.7c1.5-1.6,3.2-3.2,5.2-4.4c2-1.3,4-2.2,6.2-2.9c1.9-0.6,3.9-1,5.9-1.2c5.1-0.4,10.3,0.6,14.9,3.1
	c3.8,2,7.2,5,9.7,9c1.2,1.9,2.2,3.9,2.9,6l10.6-9.2c-0.6-1.4-1.3-2.8-2.2-4.1c-2.7-4.1-6.3-7.3-10.4-9.3c-2.5-1.3-5.2-2.1-8-2.5
	c-4.4-0.6-8.9-0.2-13.1,1.5c1.3-1.3,2.8-2.5,4.4-3.5c4.2-2.7,8.9-4.1,13.5-4.2c1.8-0.1,3.7,0.1,5.4,0.4c7,1.3,13.5,5.3,17.7,11.7
	c0.6,0.9,1,1.8,1.5,2.6l11.5-10l-0.3-0.5c-2.6-4-6.3-7-10.4-8.8c-5.1-2.2-10.9-2.6-16.3-0.9c1.4-1.6,3-3,4.8-4.2
	c4.8-3.1,10.3-4.2,15.5-3.6c1.3,0.1,2.6,0.4,3.9,0.8c4.8,1.4,9.2,4.4,12.4,8.8l10.2-8.8c-2-2.6-4.5-4.5-7.4-5.6
	c-4-1.5-8.5-1.5-12.6,0.1c1.2-1.7,2.8-3.2,4.6-4.4c3.3-2.1,7-3,10.7-2.7c1.4,0.1,2.8,0.4,4.1,0.9c3,1,5.8,2.8,7.8,5.4l12.2-10.6
	c-4.5-3.3-10.5-4.1-15.9-2.2c0.9-0.9,1.9-1.7,3-2.4c5.8-3.7,13-3.6,18.4-0.1l47.8-41.3l-167.3,88.2c0,0,12.6-22.2,34.9-36.6
	c4.6-27-85.1,46.4-104.8,40.7c0,0,12.1-12.8,27.8-18c-40.8-11.7-89.4,9.2-89.4,9.2c8.9,15.5,11.3,34,1.1,61.9
	C18.3,308,101.3,350.1,172.4,391.1c7.3,4.2,12,7,16.2,9.4l5.4,3.1c0.2,0.1,0.3,0.2,0.5,0.3l1,0.6c0.5,0.3,1.1,0.6,1.7,1l1.1,0.6
	c1.6,0.9,3.3,1.9,5.2,3l1.6,0.9h0.1l19.8,11.4L402.4,319V113.8L349,82.9z"/>
<path d="M68.2,113.3c48.8-28.4,97.8-8.5,101.6-5.4l12.9-8.4c-7.6-7.7-35.1-17.1-39-17.4c32.9-7.4,52.4,10.1,52.4,10.1
	s16.9-8.3,23.3-8C206.5,72,189.3,64.4,172.8,61L225,30.9l63.4,36.6l17.7-9.3L225,11.3l-84.6,48.8c-13.3,7.1-22.8,10.5-19.1,22.5
	c-11.1-15.6-1-27.1-1-27.1s-21.5-1.3-25,2.6c-3.5,3.8-2.9,18.9,4,26.8C86.7,73.4,87.7,60.4,87.7,60.4S62.3,64,67.1,73.5
	c4.7,9.2,11,16,11.4,16.4c-1-1-21.3-22.1-50.3-4.8C45.2,85.3,64.1,101.6,68.2,113.3z"/>
<path d="M498.1,134.4c-3.3-5.5-7.5-8.4-14.2-8.4c-7,0-14.8,4.8-14.8,12.6c0,6.9,6.8,10.6,12.3,12.7l6.4,2.5
	c12.6,4.9,22,11.9,22,26.7c0,16.1-12.5,27.6-28.3,27.6c-14.3,0-25.5-10.6-27.4-24.8l11.2-2.4c-0.1,9.8,7.6,16.8,17.2,16.8
	s16.3-8,16.3-17.3c0-9.5-7.6-13.6-15.3-16.8l-6.1-2.6c-10.1-4.4-19.3-10.1-19.3-22.4c0-14.3,12.7-22.9,26.1-22.9
	c9.9,0,18,4.8,22.8,13.4L498.1,134.4L498.1,134.4z"/>
<path d="M591.8,117.6h14.5l-39.8,39.8l40.5,48.8h-15L558.6,165l-4.5,4.2v37h-11v-88.6h11V156L591.8,117.6z"/>
<path d="M625.7,117.6h12.7l21.7,37.8l21.7-37.8h12.7l-28.9,50.1v38.6h-11v-38.6L625.7,117.6L625.7,117.6z"/>
<path d="M733,117.6v52.3c0,14.5,4.3,27.9,21.4,27.9c17,0,21.4-13.4,21.4-27.9v-52.3h11v56.1c0,19.5-12.1,34.4-32.4,34.4
	S722,193.2,722,173.6v-56.1C722,117.5,733,117.6,733,117.6z"/>
<path d="M822.3,113.3l66.5,69.7v-65.5h11v92.3l-66.5-69.7v66.1h-11C822.3,206.2,822.3,113.3,822.3,113.3z"/>
<path d="M947.6,206.2h-11v-88.6h11V206.2z"/>
<path d="M1050,134.5c-6.3-5.6-15-8.7-23.4-8.7c-19.9,0-35,16.6-35,36.2c0,19.4,15,36,34.8,36c8.7,0,17-3.3,23.6-9.2v13.1
	c-6.8,4-15.5,6.2-23.3,6.2c-25.3,0-46.2-20.1-46.2-45.7c0-26.2,21-46.7,47.1-46.7c7.8,0,15.6,1.9,22.3,6L1050,134.5L1050,134.5z"/>
<path d="M1171,161.9c0,26.3-20.8,46.2-46.4,46.2s-46.4-19.9-46.4-46.2c0-25.4,21-46.2,46.4-46.2S1171,136.5,1171,161.9z M1160,161.9
	c0-19.5-14.6-35.9-35.4-35.9s-35.4,16.3-35.4,35.9c0,20.2,16.2,35.8,35.4,35.8S1160,182.1,1160,161.9z"/>
<path d="M1258.1,206.2h-13.4l-26.1-37.5h-4.6v37.5h-11v-88.6h13.4c7.9,0,16.3,0.1,23.4,4.1c7.4,4.3,11.6,12.7,11.6,21.2
	c0,12.7-8.5,23.3-21.3,24.8L1258.1,206.2z M1214,159.5h3.5c11.3,0,23.5-2.1,23.5-16.2c0-13.9-13.2-15.9-24.1-15.9h-2.9V159.5z"/>
<path d="M1287,113.3l66.5,69.7v-65.5h11.1v92.3l-66.5-69.7v66.1H1287C1287,206.2,1287,113.3,1287,113.3z"/>
<path d="M471.4,310.7h-8.6v-36.4H454v-7.5h26.3v7.5h-8.8v36.4H471.4z"/>
<path d="M522.5,284.1v-17.3h8.6v43.9h-8.6v-19.6h-15.8v19.6h-8.6v-43.9h8.6v17.3H522.5z"/>
<path d="M560.6,274.3v9.7h13.6v7.5h-13.6v11.9h14.1v7.5H552V267h22.7v7.5h-14.1L560.6,274.3z"/>
<path d="M635.2,274.3v9.7h12.4v7.5h-12.4v19.3h-8.6v-43.9h21.8v7.5h-13.2V274.3z"/>
<path d="M668,266.8h8.6v24.6c0,5.4,0.5,13,7.7,13c7.3,0,7.7-7.6,7.7-13v-24.6h8.6v26.3c0,10.7-4.5,18.8-16.3,18.8
	s-16.3-8.1-16.3-18.8V266.8z"/>
<path d="M735.6,310.7H727v-36.4h-8.8v-7.5h26.3v7.5h-8.8v36.4H735.6z"/>
<path d="M762,266.8h8.6v24.6c0,5.4,0.5,13,7.7,13s7.7-7.6,7.7-13v-24.6h8.6v26.3c0,10.7-4.5,18.8-16.3,18.8s-16.3-8.1-16.3-18.8
	V266.8z"/>
<path d="M845,310.7h-10.4L824,293h-0.1v17.7h-8.6v-43.9h11.6c8.7,0,14.7,3.8,14.7,13.2c0,5.6-3.1,11.2-9,12.2L845,310.7L845,310.7z
	 M823.9,287h1.1c4.7,0,8-1.4,8-6.8s-3.4-6.5-8-6.5h-1.2V287H823.9z"/>
<path d="M871.1,274.3v9.7h13.6v7.5h-13.6v11.9h14.1v7.5h-22.7V267h22.7v7.5h-14.1V274.3z"/>
<path d="M956.7,311.9c-13.4,0-21.7-10.2-21.7-23.2s8.6-23.1,21.7-23.1s21.7,10,21.7,23.1C978.4,301.6,970.1,311.9,956.7,311.9z
	 M956.7,274.1c-8.1,0-12.9,7.2-12.9,14.3c0,6.8,3.4,15.1,12.9,15.1s12.9-8.3,12.9-15.1C969.6,281.3,964.8,274.1,956.7,274.1z"/>
<path d="M1005.8,274.3v9.7h12.4v7.5h-12.4v19.3h-8.6v-43.9h21.8v7.5h-13.2V274.3z"/>
<path d="M1070.4,265.7h6.2l23.1,30.7h0.1v-29.5h8.6v44.8h-6.2l-23.1-30.7h-0.1v29.8h-8.6V265.7L1070.4,265.7z"/>
<path d="M1137.8,274.3v9.7h12.4v7.5h-12.4v19.3h-8.6v-43.9h21.8v7.5h-13.2L1137.8,274.3z"/>
<path d="M1185.1,310.7h-8.6v-36.4h-8.8v-7.5h26.3v7.5h-8.8L1185.1,310.7L1185.1,310.7z"/>
<path d="M1252.3,301.5l-3.6,9.3h-9l17.1-45.1h6.6l16.6,45.1h-9.1l-3.4-9.3H1252.3z M1259.7,278.5L1259.7,278.5l-4.9,16h10.4
	L1259.7,278.5z"/>
<path d="M1327,310.7h-10.4L1306,293h-0.1v17.7h-8.6v-43.9h11.6c8.7,0,14.7,3.8,14.7,13.2c0,5.6-3.1,11.2-9,12.2L1327,310.7
	L1327,310.7z M1305.9,287h1.1c4.7,0,8-1.4,8-6.8s-3.4-6.5-8-6.5h-1.2L1305.9,287L1305.9,287z"/>
<path d="M1357.6,310.7h-8.6v-36.4h-8.8v-7.5h26.3v7.5h-8.8L1357.6,310.7L1357.6,310.7z"/>
</svg>
