<?xml version="1.0" encoding="UTF-8"?><svg id="Layer_2" xmlns="http://www.w3.org/2000/svg" viewBox="0 0 849.56 244.88"><g id="Layer_1-2"><g><path d="M.78,96.61l7.38-13.04c1.26-2.04,4.24-1.73,5.34-.94,.63,.31,11.94,8.64,22.31,8.64,6.28,0,10.84-3.93,10.84-9.42,0-6.6-5.5-11.63-16.18-15.87C16.97,60.64,0,50.11,0,31.26,0,15.71,12.1,0,36.29,0c16.34,0,28.91,8.33,33.62,11.78,1.89,1.1,1.57,3.93,.94,5.03l-8.01,12.1c-1.1,1.73-3.93,3.14-5.34,2.04-1.41-.78-12.88-9.42-22.46-9.42-5.66,0-9.9,3.77-9.9,8.01,0,5.81,4.71,10.21,17.12,15.24,12.25,4.87,31.73,14.45,31.73,35.82,0,16.18-13.98,32.52-37.07,32.52-20.42,0-31.73-8.48-35.34-12.1-1.57-1.57-2.04-2.2-.79-4.4Z"/><path d="M107.3,24.66h-22.46c-1.73,0-2.99-1.41-2.99-2.98V4.56c0-1.57,1.26-2.98,2.99-2.98h69.75c1.73,0,2.99,1.41,2.99,2.98V21.68c0,1.57-1.26,2.98-2.99,2.98h-22.46V108.55c0,1.57-1.41,2.99-2.98,2.99h-18.85c-1.57,0-2.99-1.41-2.99-2.99V24.66Z"/><path d="M256.07,111.53h-17.44c-2.82,0-4.08-.94-5.49-3.92l-5.66-12.41h-42.73l-5.65,12.56c-.79,1.89-2.52,3.77-5.66,3.77h-17.28c-2.36,0-3.61-2.04-2.67-4.08L202.66,1.72c.47-.94,1.57-1.72,2.67-1.72h1.57c1.1,0,2.2,.78,2.67,1.72l49.17,105.73c.94,2.04-.31,4.08-2.67,4.08Z"/><path d="M354.1,179.24c1.1,2.04,0,4.56-2.67,4.56h-20.89c-1.26,0-2.2-.79-2.52-1.42l-20.89-41.63h-10.84v40.06c0,1.57-1.41,2.99-2.98,2.99h-18.7c-1.73,0-2.98-1.42-2.98-2.99V76.81c0-1.57,1.25-2.98,2.98-2.98h46.97c18.85,0,34.25,15.24,34.25,33.93,0,14.45-9.58,26.08-23.25,31.58l21.52,39.9Z"/><path d="M391.02,47.76h-22.46c-1.73,0-2.99-1.41-2.99-2.98V27.65c0-1.57,1.26-2.98,2.99-2.98h69.75c1.73,0,2.99,1.41,2.99,2.98v17.12c0,1.57-1.26,2.98-2.99,2.98h-22.46v83.89c0,1.57-1.41,2.99-2.98,2.99h-18.85c-1.57,0-2.99-1.41-2.99-2.99V47.76Z"/><path d="M455.43,76.82c0-1.57,1.41-2.98,2.98-2.98h19.32c1.73,0,2.98,1.41,2.98,2.98v63.62c0,11,8.17,19.79,19.32,19.79s19.64-8.8,19.64-19.79v-63.62c0-1.57,1.26-2.98,2.99-2.98h19.32c1.57,0,2.98,1.41,2.98,2.98v64.88c0,23.88-20.11,43.67-44.93,43.67s-44.61-19.79-44.61-43.67V76.82Z"/><path d="M646.3,36.29c0,19.47-15.86,35.34-35.03,35.34h-16.49v36.92c0,1.57-1.42,2.98-2.99,2.98h-18.53c-1.73,0-2.99-1.41-2.99-2.98V4.55c0-1.57,1.26-2.98,2.99-2.98h37.86c19.32,0,35.18,15.71,35.18,34.72Z"/><path d="M131.15,168.06c0,19.48-15.87,35.35-35.03,35.35h-16.5v36.91c0,1.57-1.41,2.99-2.98,2.99h-18.54c-1.73,0-2.98-1.42-2.98-2.99v-103.99c0-1.57,1.25-2.99,2.98-2.99h37.86c19.32,0,35.19,15.71,35.19,34.72Z"/><path d="M252.59,188.48c0,31.42-25.14,56.4-56.56,56.4s-56.39-24.98-56.39-56.4,24.97-56.71,56.39-56.71,56.56,25.29,56.56,56.71Z"/><path d="M618.78,131.93c13.2,0,27.65,5.5,38.33,14.77,1.41,1.1,1.57,2.98,.31,4.24l-12.41,13.2c-1.26,1.1-2.99,1.1-4.24,.16-5.97-5.5-12.88-7.54-20.58-7.54-17.12,0-30.95,14.45-30.95,31.73s13.98,31.26,31.1,31.26c4.56,0,9.27-.63,13.98-2.51v-9.11h-9.9c-1.73,0-2.99-1.26-2.99-2.83v-15.55c0-1.73,1.26-2.99,2.99-2.99h31.58c1.57,0,2.83,1.41,2.83,2.99l.16,42.26c0,.78-.63,2.04-1.26,2.51,0,0-16.18,10.21-38.96,10.21-31.26,0-56.4-24.82-56.4-56.24s25.13-56.55,56.4-56.55Z"/><path d="M768.97,243.31h-17.44c-2.83,0-4.08-.94-5.5-3.93l-5.65-12.41h-42.73l-5.66,12.57c-.78,1.88-2.51,3.77-5.65,3.77h-17.28c-2.36,0-3.62-2.04-2.67-4.09l49.17-105.72c.47-.94,1.57-1.73,2.67-1.73h1.57c1.1,0,2.2,.79,2.67,1.73l49.17,105.72c.94,2.05-.31,4.09-2.67,4.09Z"/><path d="M784.52,136.33c0-1.57,1.26-2.98,2.99-2.98h18.69c1.57,0,2.99,1.41,2.99,2.98v83.89h37.39c1.73,0,2.99,1.41,2.99,2.99v17.12c0,1.57-1.26,2.99-2.99,2.99h-59.07c-1.73,0-2.99-1.41-2.99-2.99v-104Z"/></g></g></svg>