<svg fill="#fff" height="22" viewBox="0 0 209 22" width="209" xmlns="http://www.w3.org/2000/svg" xmlns:xlink="http://www.w3.org/1999/xlink"><clipPath id="a"><path d="m0 0h209v22h-209z"/></clipPath><g clip-path="url(#a)" fill="#fff"><path d="m12.1357 14.8732c.1311 0 .4079.0585.4079.5117v1.155c0 .4532-.2768.5117-.4079.5117h-8.53725c-.64102 0-1.19463-.0878-1.63169-.2486-.46619-.1608-.84498-.4386-1.136349-.8187-.291372-.3655-.495333-.8479-.62645-1.4327-.1311179-.5702-.203961-1.272-.203961-2.0907v-2.89471c0-.81872.0728431-1.50585.203961-2.07603.131117-.58479.335078-1.06725.62645-1.43274.291369-.3655.670159-.64328 1.121779-.81872.45163-.16082 1.00524-.24854 1.64626-.24854h3.55474c.64102 0 1.19463.08772 1.64626.24854.46619.17544.84497.45322 1.13635.81872.2768.36549.4953.84795.6264 1.43274.1166.57018.1749 1.27193.1749 2.07603v2.89471c0 .8187-.0583 1.5205-.1749 2.0907l-.0874.3216zm-3.55478-5.55555c0-.42398-.02914-.78948-.07285-1.08187-.05827-.27778-.13112-.49708-.24766-.6579-.10198-.1462-.24767-.24854-.43706-.32163-.18939-.05848-.43706-.10234-.743-.10234h-3.40906c-.30594 0-.55361.04386-.75757.10234-.17482.07309-.32051.17543-.42249.32163-.11655.16082-.20396.38012-.24766.6579-.05828.29239-.07285.65789-.07285 1.08187v3.40645c0 .424.01457.7895.07285 1.0818.0437.2632.13111.4971.24766.6433.10198.1608.24767.2632.42249.3217.20396.0731.45163.1023.75757.1023h3.40906c.30594 0 .55361-.0292.743-.1023.18939-.0585.33508-.1609.43706-.3217.11654-.1462.18939-.3801.24766-.6433.04371-.2923.07285-.6578.07285-1.0818zm17.50018-4.32749c.1311 0 .4079.04386.4079.49708v6.97366c0 .8187-.0583 1.5205-.1894 2.0907-.1311.5848-.335 1.0672-.6264 1.4327-.2914.3801-.6702.6433-1.1364.8187-.4516.1608-1.0052.2339-1.6462.2339h-3.278c-.641 0-1.1946-.0731-1.6462-.2339-.4516-.1754-.845-.4386-1.1218-.8187-.2914-.3655-.5099-.8479-.641-1.4327-.1311-.5702-.1894-1.272-.1894-2.0907v-6.97366c0-.45322.2914-.49708.4225-.49708h1.3257c.1311 0 .4079.04386.4079.49708v7.20756c0 .4386.0292.8188.0729 1.0965.0583.2778.1457.4971.2477.6579.1165.1462.2476.2486.437.3217.1894.0584.4516.1023.7576.1023h3.1468c.3059 0 .5682-.0439.7576-.1023.1894-.0731.3205-.1755.437-.3217.102-.1608.1894-.3801.2331-.6579.0437-.2777.0729-.6579.0729-1.0965v-7.20756c0-.45322.2768-.49708.4079-.49708zm13.7998 1.06726c.2913.36549.4953.84795.6264 1.43274.1166.57018.1894 1.27193.1894 2.07603v2.89471c0 .8187-.0728 1.5205-.1894 2.0907-.1311.5848-.3351 1.0672-.6264 1.4473-.2914.3655-.6702.6433-1.1364.8041-.4516.1608-1.0052.2486-1.6462.2486h-3.5548c-.641 0-1.1946-.0878-1.6317-.2486-.4662-.1608-.845-.4386-1.1363-.8187-.2768-.3655-.4954-.8479-.6265-1.4327-.1311-.5702-.1894-1.272-.1894-2.0907v-2.89471c0-.81872.0583-1.50585.1894-2.07603.1311-.58479.3497-1.06725.6265-1.43274.2913-.3655.6701-.64328 1.1363-.81872.4517-.16082.9907-.24854 1.6317-.24854h3.5548c.641 0 1.1946.08772 1.6462.24854.4662.17544.845.45322 1.1364.81872zm-1.3549 3.26023c0-.42398-.0146-.78948-.0729-1.08187-.0437-.27778-.1311-.49708-.2476-.6579-.102-.1462-.2477-.24854-.4371-.32163-.1894-.05848-.437-.10234-.743-.10234h-3.409c-.306 0-.5537.04386-.743.10234-.1894.07309-.3351.17543-.4371.32163-.1165.16082-.1894.38012-.2477.6579-.0437.29239-.0728.65789-.0728 1.08187v3.40645c0 .424.0291.7895.0728 1.0818.0583.2632.1312.4971.2477.6433.102.1608.2477.2632.4371.3217.1893.0731.437.1023.743.1023h3.409c.306 0 .5536-.0292.743-.1023.1894-.0585.3351-.1609.4371-.3217.1165-.1462.2039-.3801.2476-.6433.0583-.2923.0729-.6578.0729-1.0818zm25.8804-4.4883c.2185 0 .2914.13157.3205.20467.0292.10234.0146.2193-.0437.3655l-4.0501 10.11698c-.2185.5263-.4225.8772-.641 1.0672-.0583.0585-.1311.1024-.2185.1462-.2914.2047-.641.3217-1.0053.3217-.8012 0-1.5151-.541-1.7336-1.3158l-.102-.2193-4.0792-10.11698c-.0583-.1462-.0729-.26316-.0437-.3655.0146-.05848.0874-.20467.3059-.20467h1.5734c.204 0 .3497.10233.408.30701l3.6275 9.04974c.0146.0292.0146.0438.0146.0438l.0583-.0146s.0145 0 .0145-.0292l3.5694-9.04974c.0874-.20468.2331-.30701.4225-.30701zm9.5749 1.52046 4.0937 10.13159c.0583.1316.0729.2631.0437.3509-.0291.0731-.0874.2193-.3205.2193h-1.5588c-.204 0-.3496-.117-.4225-.3217l-3.613-9.04968-.0146-.02924h-.0583s-.0145.01462-.0291.04386l-1.8648 4.73686h1.8065c.1894 0 .3497.1169.4225.2924l.5245 1.3011c.0437.1462.0291.3071-.0583.424-.0728.1316-.2185.2047-.3788.2047h-3.1905l-.8304 2.0906c-.0728.1901-.2185.3071-.4079.3071h-1.6026c-.2331 0-.3059-.1316-.3205-.2193-.0291-.0878-.0146-.2193.0292-.3509l4.0646-10.13159c.204-.52631.4225-.87719.641-1.06725.0583-.04386.1311-.10234.2186-.1462.2913-.20468.641-.30701 1.0052-.30701.8013 0 1.5006.54093 1.7337 1.30116zm17.5876 1.35965c.1456.61404.2185 1.34503.2185 2.16374v2.2953c0 .8187-.0729 1.5497-.2185 2.1638-.1457.614-.3934 1.1257-.6993 1.5204-.3205.4094-.743.7164-1.2384.9065-.4807.19-1.078.2924-1.7628.2924h-4.9824c-.4517 0-.8742-.234-1.1073-.6287-.0728-.1316-.1311-.2924-.1602-.4532l.0146-9.98538c.0291-.11696.0874-.24854.1456-.3655.2186-.35088.5828-.5848 1.0053-.61404v-.01462h5.0844c.6848 0 1.2675.10234 1.7628.2924.4954.19006.9179.49708 1.2384.89181.3059.40936.5536.92106.6993 1.53509zm-7.8088 7.09064c0 .0585.0146.0731.0146.0731h4.05c.3351 0 .6265-.0292.8596-.117.2331-.0877.4079-.2193.539-.3947.1457-.1901.2477-.4386.306-.7602.0582-.3217.1019-.731.1019-1.2135v-2.7339c0-.48245-.0437-.89181-.1019-1.22806-.0583-.30702-.1603-.55556-.306-.74562-.1311-.19006-.3059-.30702-.539-.39474-.2331-.08771-.5245-.13157-.8596-.13157h-4.0355c-.0145 0-.0291.02924-.0291.08772zm13.2461-9.80994c.1166 0 .4079.05848.4079.5117v11.03804c0 .4532-.2913.5117-.4079.5117h-1.3403c-.1165 0-.4079-.0585-.4079-.5117v-11.03804c0-.45322.2914-.5117.4079-.5117zm10.9148 4.8538c.758 0 1.341.27774 1.734.80414.379.5263.568 1.2719.568 2.2222v1.2865c0 .848-.189 1.5351-.553 2.0614-.379.541-.976.8187-1.778.8187h-6.57c-.131 0-.423-.0438-.423-.497v-1.1696c0-.4532.292-.4971.423-.4971h6.221c.247 0 .335-.1023.393-.1901.087-.1462.131-.3508.131-.614v-1.2573c0-.7164-.291-.8041-.51-.8041h-4.37c-.612 0-1.282-.0877-1.734-.6871-.364-.5117-.568-1.33044-.568-2.33921v-1.11111c0-.84795.189-1.54971.568-2.07602.379-.54094.961-.8041 1.763-.8041h6.279c.116 0 .408.04386.408.49708v1.16959c0 .45322-.292.49708-.408.49708h-5.93c-.247 0-.335.10233-.393.19005-.073.1462-.117.35088-.117.61404v1.08187c0 .71637.277.80409.496.80409z"/><path d="m138.077 2.23641c-1.114 0-2.021.91016-2.021 2.02836 0 .39008.104.75414.311 1.0662l-2.565 2.02837c-.648-.72814-1.607-1.19622-2.669-1.19622-.959 0-1.814.39007-2.462.98818l-3.835-3.56265c.285-.39007.466-.83215.466-1.35224 0-1.248231-1.011-2.23641-2.228-2.23641-1.218 0-2.229 1.01418-2.229 2.23641 0 1.22222 1.011 2.2364 2.229 2.2364.57 0 1.088-.20804 1.477-.5721l3.809 3.56265c-.518.62411-.803 1.40425-.803 2.28841 0 1.27423.647 2.36643 1.632 3.01653l-2.306 4.0828c-.337-.1561-.726-.2601-1.114-.2601-1.478 0-2.695 1.1962-2.695 2.7045 0 1.4823 1.192 2.7045 2.695 2.7045s2.669-1.1962 2.669-2.6785c0-.9362-.467-1.7423-1.166-2.2364l2.306-4.0827c.466.234 1.01.364 1.555.364.751 0 1.451-.234 2.021-.6241l1.892 2.4185c-.208.234-.363.5461-.363.9101 0 .7542.596 1.3523 1.347 1.3523.752 0 1.348-.5981 1.348-1.3523 0-.7541-.596-1.3522-1.348-1.3522-.233 0-.44.052-.648.156l-1.917-2.4444c.725-.6502 1.192-1.6123 1.192-2.67853 0-.75414-.233-1.45626-.648-2.05437l2.565-2.02837c.363.36407.882.59811 1.426.59811 1.114 0 2.021-.91017 2.021-2.02837s-.829-2.00236-1.944-2.00236z"/><path d="m168.315 4.85848c.232 0 .305.13111.319.21851.029.10198.015.21852-.029.34963l-3.237 10.08078c-.218.539-.421.8886-.639 1.078-.058.0437-.13.102-.217.1457-.291.2039-.639.3059-1.002.3059-.798 0-1.51-.539-1.727-1.2965l-.102-.2185-2.003-6.7157-2.149 6.7011c-.218.539-.435.8886-.639 1.078-.072.0437-.13.102-.217.1457-.291.2039-.639.3059-1.002.3059-.798 0-1.51-.539-1.727-1.2965l-.102-.2185-3.005-10.09538c-.058-.13111-.058-.24765-.029-.34963.015-.07283.073-.21851.305-.21851h1.553c.203 0 .349.11654.421.32049l2.54 8.75513c0 .0146.015.0291.015.0291l.058-.0145.015-.0292 2.743-8.74053c.087-.20395.232-.32049.421-.32049h1.641c.188 0 .333.11654.406.32049l2.54 8.75513c0 .0146.015.0291.015.0291l.058-.0145.015-.0292 2.743-8.74053c.087-.20395.232-.32049.421-.32049zm12.531 9.57092c.131 0 .421.0437.421.4953v1.6024c0 .4516-.29.4953-.421.4953h-5.153c-.639 0-1.176-.0728-1.626-.2476-.465-.1603-.842-.4225-1.133-.8012-.275-.3642-.493-.845-.624-1.4277-.101-.4807-.174-1.0634-.188-1.7481v-.0728l.029-1.8355c.029-.1311.087-.2477.159-.3642.203-.3642.566-.58273.987-.61186l7.491-.01457c.116 0 .406.0437.406.49533v1.1508c0 .4516-.29.5099-.406.5099h-6.489c-.014 0-.029 1.0488-.029 1.0488l.029.2477c.044.2768.131.4953.247.6555.116.1457.247.2477.435.3205.204.0583.45.102.755.102zm.014-9.42524c.117 0 .407.05827.407.50986v1.15084c0 .4516-.29.50987-.407.50987l-8.347-.01457c-.116 0-.391-.0437-.391-.4953v-1.13627c0-.46616.275-.52443.391-.52443zm13.911 3.74387c0 .90319-.233 1.61697-.726 2.11227.522.4808.798 1.2091.798 2.1706v.976c0 .4516-.043.8741-.116 1.2383-.087.3787-.203.6992-.392.9614-.174.2768-.421.4808-.726.6264-.29.1457-.653.2186-1.088.2186h-6.533c-.45 0-.871-.2331-1.103-.6264-.073-.1312-.131-.2914-.16-.4516l.015-9.94971c.029-.11654.087-.24765.145-.36419.218-.34962.581-.58271 1.001-.61184v-.01457h6.417c.885 0 1.524.24765 1.901.74295.378.48073.567 1.20911.567 2.156zm-7.912 6.06017c0 .0582.015.0728.015.0728h5.051c.291 0 .494-.0583.61-.1894s.174-.3642.174-.6992v-.9906c0-.3205-.072-.5536-.188-.6993-.131-.1457-.378-.2331-.755-.2331h-2.817c-.261 0-.479-.2039-.479-.4807v-1.1945c0-.2622.218-.48076.479-.48076h2.817c.377 0 .624-.07284.74-.20395.131-.14567.189-.36419.189-.64097v-1.00517c0-.30592-.058-.539-.174-.67011-.117-.1311-.32-.20394-.596-.20394h-5.037c-.014 0-.029.02913-.029.0874zm11.762-9.97885h7.534c1.001 0 1.713.24764 2.134.71381.421.48073.638 1.20911.638 2.17057v.83035c0 .97603-.29 1.70442-.856 2.21432.624.4807.929 1.2382.929 2.2579v1.0052c0 .4662-.043.8886-.131 1.2674-.087.3642-.232.6847-.435.9469s-.479.4661-.798.5972c-.334.1457-.741.2186-1.22.2186h-7.795c-.218 0-.32-.1311-.32-.3934v-1.3693c0-.2622.102-.3933.32-.3933h7.142c.377 0 .653-.0874.827-.2623.175-.1748.262-.437.262-.8157v-.8158c0-.3642-.102-.641-.276-.8304s-.508-.2913-1.002-.2913h-6.068c-.217 0-.334-.1311-.334-.3788v-1.2382c0-.2623.117-.39336.334-.39336h6.068c.494 0 .813-.08741.987-.26222.189-.18938.276-.43703.276-.77208v-.80122c0-.37876-.087-.65554-.261-.81579-.174-.17481-.45-.24765-.842-.24765h-7.113c-.218 0-.32-.13111-.32-.39332v-1.35479c0-.26222.102-.39332.32-.39332z"/></g></svg>