<svg width="209" height="22" viewBox="0 0 209 22" fill="white" xmlns="http://www.w3.org/2000/svg">
<g clip-path="url(#clip0_10_44893)">
<path d="M12.1357 14.8732C12.2668 14.8732 12.5436 14.9317 12.5436 15.3849V16.5399C12.5436 16.9931 12.2668 17.0516 12.1357 17.0516H3.59845C2.95743 17.0516 2.40382 16.9638 1.96676 16.803C1.50057 16.6422 1.12178 16.3644 0.830411 15.9843C0.539039 15.6188 0.335078 15.1364 0.203961 14.5516C0.0728431 13.9814 0 13.2796 0 12.4609V9.56619C0 8.74747 0.0728431 8.06034 0.203961 7.49016C0.335078 6.90537 0.539039 6.42291 0.830411 6.05742C1.12178 5.69192 1.50057 5.41414 1.95219 5.2387C2.40382 5.07788 2.95743 4.99016 3.59845 4.99016H7.15319C7.79421 4.99016 8.34782 5.07788 8.79945 5.2387C9.26564 5.41414 9.64442 5.69192 9.9358 6.05742C10.2126 6.42291 10.4311 6.90537 10.5622 7.49016C10.6788 8.06034 10.7371 8.76209 10.7371 9.56619V12.4609C10.7371 13.2796 10.6788 13.9814 10.5622 14.5516L10.4748 14.8732H12.1357ZM8.58092 9.31765C8.58092 8.89367 8.55178 8.52817 8.50807 8.23578C8.4498 7.958 8.37695 7.7387 8.26041 7.57788C8.15843 7.43168 8.01274 7.32934 7.82335 7.25625C7.63396 7.19777 7.38629 7.15391 7.08035 7.15391H3.67129C3.36535 7.15391 3.11768 7.19777 2.91372 7.25625C2.7389 7.32934 2.59321 7.43168 2.49123 7.57788C2.37468 7.7387 2.28727 7.958 2.24357 8.23578C2.18529 8.52817 2.17072 8.89367 2.17072 9.31765V12.7241C2.17072 13.1481 2.18529 13.5136 2.24357 13.8059C2.28727 14.0691 2.37468 14.303 2.49123 14.4492C2.59321 14.61 2.7389 14.7124 2.91372 14.7709C3.11768 14.844 3.36535 14.8732 3.67129 14.8732H7.08035C7.38629 14.8732 7.63396 14.844 7.82335 14.7709C8.01274 14.7124 8.15843 14.61 8.26041 14.4492C8.37695 14.303 8.4498 14.0691 8.50807 13.8059C8.55178 13.5136 8.58092 13.1481 8.58092 12.7241V9.31765ZM26.0811 4.99016C26.2122 4.99016 26.489 5.03402 26.489 5.48724V12.4609C26.489 13.2796 26.4307 13.9814 26.2996 14.5516C26.1685 15.1364 25.9646 15.6188 25.6732 15.9843C25.3818 16.3644 25.003 16.6276 24.5368 16.803C24.0852 16.9638 23.5316 17.0369 22.8906 17.0369H19.6126C18.9716 17.0369 18.418 16.9638 17.9664 16.803C17.5148 16.6276 17.1214 16.3644 16.8446 15.9843C16.5532 15.6188 16.3347 15.1364 16.2036 14.5516C16.0725 13.9814 16.0142 13.2796 16.0142 12.4609V5.48724C16.0142 5.03402 16.3056 4.99016 16.4367 4.99016H17.7624C17.8935 4.99016 18.1703 5.03402 18.1703 5.48724V12.6948C18.1703 13.1334 18.1995 13.5136 18.2432 13.7913C18.3015 14.0691 18.3889 14.2884 18.4909 14.4492C18.6074 14.5954 18.7385 14.6978 18.9279 14.7709C19.1173 14.8293 19.3795 14.8732 19.6855 14.8732H22.8323C23.1382 14.8732 23.4005 14.8293 23.5899 14.7709C23.7793 14.6978 23.9104 14.5954 24.0269 14.4492C24.1289 14.2884 24.2163 14.0691 24.26 13.7913C24.3037 13.5136 24.3329 13.1334 24.3329 12.6948V5.48724C24.3329 5.03402 24.6097 4.99016 24.7408 4.99016H26.0811ZM39.8809 6.05742C40.1722 6.42291 40.3762 6.90537 40.5073 7.49016C40.6239 8.06034 40.6967 8.76209 40.6967 9.56619V12.4609C40.6967 13.2796 40.6239 13.9814 40.5073 14.5516C40.3762 15.1364 40.1722 15.6188 39.8809 15.9989C39.5895 16.3644 39.2107 16.6422 38.7445 16.803C38.2929 16.9638 37.7393 17.0516 37.0983 17.0516H33.5435C32.9025 17.0516 32.3489 16.9638 31.9118 16.803C31.4456 16.6422 31.0668 16.3644 30.7755 15.9843C30.4987 15.6188 30.2801 15.1364 30.149 14.5516C30.0179 13.9814 29.9596 13.2796 29.9596 12.4609V9.56619C29.9596 8.74747 30.0179 8.06034 30.149 7.49016C30.2801 6.90537 30.4987 6.42291 30.7755 6.05742C31.0668 5.69192 31.4456 5.41414 31.9118 5.2387C32.3635 5.07788 32.9025 4.99016 33.5435 4.99016H37.0983C37.7393 4.99016 38.2929 5.07788 38.7445 5.2387C39.2107 5.41414 39.5895 5.69192 39.8809 6.05742ZM38.526 9.31765C38.526 8.89367 38.5114 8.52817 38.4531 8.23578C38.4094 7.958 38.322 7.7387 38.2055 7.57788C38.1035 7.43168 37.9578 7.32934 37.7684 7.25625C37.579 7.19777 37.3314 7.15391 37.0254 7.15391H33.6164C33.3104 7.15391 33.0627 7.19777 32.8734 7.25625C32.684 7.32934 32.5383 7.43168 32.4363 7.57788C32.3198 7.7387 32.2469 7.958 32.1886 8.23578C32.1449 8.52817 32.1158 8.89367 32.1158 9.31765V12.7241C32.1158 13.1481 32.1449 13.5136 32.1886 13.8059C32.2469 14.0691 32.3198 14.303 32.4363 14.4492C32.5383 14.61 32.684 14.7124 32.8734 14.7709C33.0627 14.844 33.3104 14.8732 33.6164 14.8732H37.0254C37.3314 14.8732 37.579 14.844 37.7684 14.7709C37.9578 14.7124 38.1035 14.61 38.2055 14.4492C38.322 14.303 38.4094 14.0691 38.4531 13.8059C38.5114 13.5136 38.526 13.1481 38.526 12.7241V9.31765ZM64.4064 4.82935C64.6249 4.82935 64.6978 4.96092 64.7269 5.03402C64.7561 5.13636 64.7415 5.25332 64.6832 5.39952L60.6331 15.5165C60.4146 16.0428 60.2106 16.3937 59.9921 16.5837C59.9338 16.6422 59.861 16.6861 59.7736 16.7299C59.4822 16.9346 59.1326 17.0516 58.7683 17.0516C57.9671 17.0516 57.2532 16.5106 57.0347 15.7358L56.9327 15.5165L52.8535 5.39952C52.7952 5.25332 52.7806 5.13636 52.8098 5.03402C52.8244 4.97554 52.8972 4.82935 53.1157 4.82935H54.6891C54.8931 4.82935 55.0388 4.93168 55.0971 5.13636L58.7246 14.1861C58.7392 14.2153 58.7392 14.2299 58.7392 14.2299L58.7975 14.2153C58.7975 14.2153 58.812 14.2153 58.812 14.1861L62.3814 5.13636C62.4688 4.93168 62.6145 4.82935 62.8039 4.82935H64.4064ZM73.9813 6.34981L78.075 16.4814C78.1333 16.613 78.1479 16.7445 78.1187 16.8323C78.0896 16.9054 78.0313 17.0516 77.7982 17.0516H76.2394C76.0354 17.0516 75.8898 16.9346 75.8169 16.7299L72.2039 7.68022L72.1893 7.65098H72.131C72.131 7.65098 72.1165 7.6656 72.1019 7.69484L70.2371 12.4317H72.0436C72.233 12.4317 72.3933 12.5486 72.4661 12.7241L72.9906 14.0252C73.0343 14.1714 73.0197 14.3323 72.9323 14.4492C72.8595 14.5808 72.7138 14.6539 72.5535 14.6539H69.363L68.5326 16.7445C68.4598 16.9346 68.3141 17.0516 68.1247 17.0516H66.5221C66.289 17.0516 66.2162 16.92 66.2016 16.8323C66.1725 16.7445 66.187 16.613 66.2308 16.4814L70.2954 6.34981C70.4994 5.8235 70.7179 5.47262 70.9364 5.28256C70.9947 5.2387 71.0675 5.18022 71.155 5.13636C71.4463 4.93168 71.796 4.82935 72.1602 4.82935C72.9615 4.82935 73.6608 5.37028 73.8939 6.13051L73.9813 6.34981ZM91.5689 7.70946C91.7145 8.3235 91.7874 9.05449 91.7874 9.8732V12.1685C91.7874 12.9872 91.7145 13.7182 91.5689 14.3323C91.4232 14.9463 91.1755 15.458 90.8696 15.8527C90.5491 16.2621 90.1266 16.5691 89.6312 16.7592C89.1505 16.9492 88.5532 17.0516 87.8684 17.0516H82.886C82.4343 17.0516 82.0118 16.8176 81.7787 16.4229C81.7059 16.2913 81.6476 16.1305 81.6185 15.9697L81.6331 5.98432C81.6622 5.86736 81.7205 5.73578 81.7787 5.61882C81.9973 5.26794 82.3615 5.03402 82.784 5.00478V4.99016H87.8684C88.5532 4.99016 89.1359 5.0925 89.6312 5.28256C90.1266 5.47262 90.5491 5.77964 90.8696 6.17437C91.1755 6.58373 91.4232 7.09543 91.5689 7.70946ZM83.7601 14.8001C83.7601 14.8586 83.7747 14.8732 83.7747 14.8732H87.8247C88.1598 14.8732 88.4512 14.844 88.6843 14.7562C88.9174 14.6685 89.0922 14.5369 89.2233 14.3615C89.369 14.1714 89.471 13.9229 89.5293 13.6013C89.5875 13.2796 89.6312 12.8703 89.6312 12.3878V9.6539C89.6312 9.17145 89.5875 8.76209 89.5293 8.42584C89.471 8.11882 89.369 7.87028 89.2233 7.68022C89.0922 7.49016 88.9174 7.3732 88.6843 7.28548C88.4512 7.19777 88.1598 7.15391 87.8247 7.15391H83.7892C83.7747 7.15391 83.7601 7.18315 83.7601 7.24163V14.8001ZM97.0062 4.99016C97.1228 4.99016 97.4141 5.04864 97.4141 5.50186V16.5399C97.4141 16.9931 97.1228 17.0516 97.0062 17.0516H95.6659C95.5494 17.0516 95.258 16.9931 95.258 16.5399V5.50186C95.258 5.04864 95.5494 4.99016 95.6659 4.99016H97.0062ZM107.921 9.84396C108.679 9.84396 109.262 10.1217 109.655 10.6481C110.034 11.1744 110.223 11.92 110.223 12.8703V14.1568C110.223 15.0048 110.034 15.6919 109.67 16.2182C109.291 16.7592 108.694 17.0369 107.892 17.0369H101.322C101.191 17.0369 100.899 16.9931 100.899 16.5399V15.3703C100.899 14.9171 101.191 14.8732 101.322 14.8732H107.543C107.79 14.8732 107.878 14.7709 107.936 14.6831C108.023 14.5369 108.067 14.3323 108.067 14.0691V12.8118C108.067 12.0954 107.776 12.0077 107.557 12.0077H103.187C102.575 12.0077 101.905 11.92 101.453 11.3206C101.089 10.8089 100.885 9.99016 100.885 8.98139V7.87028C100.885 7.02233 101.074 6.32057 101.453 5.79426C101.832 5.25332 102.414 4.99016 103.216 4.99016H109.495C109.611 4.99016 109.903 5.03402 109.903 5.48724V6.65683C109.903 7.11005 109.611 7.15391 109.495 7.15391H103.565C103.318 7.15391 103.23 7.25624 103.172 7.34396C103.099 7.49016 103.055 7.69484 103.055 7.958V9.03987C103.055 9.75624 103.332 9.84396 103.551 9.84396H107.921Z" fill="white"/>
<path d="M138.077 2.23641C136.963 2.23641 136.056 3.14657 136.056 4.26477C136.056 4.65485 136.16 5.01891 136.367 5.33097L133.802 7.35934C133.154 6.6312 132.195 6.16312 131.133 6.16312C130.174 6.16312 129.319 6.55319 128.671 7.1513L124.836 3.58865C125.121 3.19858 125.302 2.7565 125.302 2.23641C125.302 0.988179 124.291 0 123.074 0C121.856 0 120.845 1.01418 120.845 2.23641C120.845 3.45863 121.856 4.47281 123.074 4.47281C123.644 4.47281 124.162 4.26477 124.551 3.90071L128.36 7.46336C127.842 8.08747 127.557 8.86761 127.557 9.75177C127.557 11.026 128.204 12.1182 129.189 12.7683L126.883 16.8511C126.546 16.695 126.157 16.591 125.769 16.591C124.291 16.591 123.074 17.7872 123.074 19.2955C123.074 20.7778 124.266 22 125.769 22C127.272 22 128.438 20.8038 128.438 19.3215C128.438 18.3853 127.971 17.5792 127.272 17.0851L129.578 13.0024C130.044 13.2364 130.588 13.3664 131.133 13.3664C131.884 13.3664 132.584 13.1324 133.154 12.7423L135.046 15.1608C134.838 15.3948 134.683 15.7069 134.683 16.0709C134.683 16.8251 135.279 17.4232 136.03 17.4232C136.782 17.4232 137.378 16.8251 137.378 16.0709C137.378 15.3168 136.782 14.7187 136.03 14.7187C135.797 14.7187 135.59 14.7707 135.382 14.8747L133.465 12.4303C134.19 11.7801 134.657 10.818 134.657 9.75177C134.657 8.99763 134.424 8.29551 134.009 7.6974L136.574 5.66903C136.937 6.0331 137.456 6.26714 138 6.26714C139.114 6.26714 140.021 5.35697 140.021 4.23877C140.021 3.12057 139.192 2.23641 138.077 2.23641Z" fill="white"/>
<path d="M168.315 4.85848C168.547 4.85848 168.62 4.98959 168.634 5.07699C168.663 5.17897 168.649 5.29551 168.605 5.42662L165.368 15.5074C165.15 16.0464 164.947 16.396 164.729 16.5854C164.671 16.6291 164.599 16.6874 164.512 16.7311C164.221 16.935 163.873 17.037 163.51 17.037C162.712 17.037 162 16.498 161.783 15.7405L161.681 15.522L159.678 8.8063L157.529 15.5074C157.311 16.0464 157.094 16.396 156.89 16.5854C156.818 16.6291 156.76 16.6874 156.673 16.7311C156.382 16.935 156.034 17.037 155.671 17.037C154.873 17.037 154.161 16.498 153.944 15.7405L153.842 15.522L150.837 5.42662C150.779 5.29551 150.779 5.17897 150.808 5.07699C150.823 5.00416 150.881 4.85848 151.113 4.85848H152.666C152.869 4.85848 153.015 4.97502 153.087 5.17897L155.627 13.9341C155.627 13.9487 155.642 13.9632 155.642 13.9632L155.7 13.9487L155.715 13.9195L158.458 5.17897C158.545 4.97502 158.69 4.85848 158.879 4.85848H160.52C160.708 4.85848 160.853 4.97502 160.926 5.17897L163.466 13.9341C163.466 13.9487 163.481 13.9632 163.481 13.9632L163.539 13.9487L163.554 13.9195L166.297 5.17897C166.384 4.97502 166.529 4.85848 166.718 4.85848H168.315ZM180.846 14.4294C180.977 14.4294 181.267 14.4731 181.267 14.9247V16.5271C181.267 16.9787 180.977 17.0224 180.846 17.0224H175.693C175.054 17.0224 174.517 16.9496 174.067 16.7748C173.602 16.6145 173.225 16.3523 172.934 15.9736C172.659 15.6094 172.441 15.1286 172.31 14.5459C172.209 14.0652 172.136 13.4825 172.122 12.7978V12.725L172.151 10.8895C172.18 10.7584 172.238 10.6418 172.31 10.5253C172.513 10.1611 172.876 9.94257 173.297 9.91344L180.788 9.89887C180.904 9.89887 181.194 9.94257 181.194 10.3942V11.545C181.194 11.9966 180.904 12.0549 180.788 12.0549H174.299C174.285 12.0549 174.27 13.1037 174.27 13.1037L174.299 13.3514C174.343 13.6282 174.43 13.8467 174.546 14.0069C174.662 14.1526 174.793 14.2546 174.981 14.3274C175.185 14.3857 175.431 14.4294 175.736 14.4294H180.846ZM180.86 5.00416C180.977 5.00416 181.267 5.06243 181.267 5.51402V6.66486C181.267 7.11646 180.977 7.17473 180.86 7.17473L172.513 7.16016C172.397 7.16016 172.122 7.11646 172.122 6.66486V5.52859C172.122 5.06243 172.397 5.00416 172.513 5.00416H180.86ZM194.771 8.74803C194.771 9.65122 194.538 10.365 194.045 10.8603C194.567 11.3411 194.843 12.0694 194.843 13.0309V14.0069C194.843 14.4585 194.8 14.881 194.727 15.2452C194.64 15.6239 194.524 15.9444 194.335 16.2066C194.161 16.4834 193.914 16.6874 193.609 16.833C193.319 16.9787 192.956 17.0516 192.521 17.0516H185.988C185.538 17.0516 185.117 16.8185 184.885 16.4252C184.812 16.294 184.754 16.1338 184.725 15.9736L184.74 6.02389C184.769 5.90735 184.827 5.77624 184.885 5.6597C185.103 5.31008 185.466 5.07699 185.886 5.04786V5.03329H192.303C193.188 5.03329 193.827 5.28094 194.204 5.77624C194.582 6.25697 194.771 6.98535 194.771 7.93224V8.74803ZM186.859 14.8082C186.859 14.8664 186.874 14.881 186.874 14.881H191.925C192.216 14.881 192.419 14.8227 192.535 14.6916C192.651 14.5605 192.709 14.3274 192.709 13.9924V13.0018C192.709 12.6813 192.637 12.4482 192.521 12.3025C192.39 12.1568 192.143 12.0694 191.766 12.0694H188.949C188.688 12.0694 188.47 11.8655 188.47 11.5887V10.3942C188.47 10.132 188.688 9.91344 188.949 9.91344H191.766C192.143 9.91344 192.39 9.8406 192.506 9.70949C192.637 9.56382 192.695 9.3453 192.695 9.06852V8.06335C192.695 7.75743 192.637 7.52435 192.521 7.39324C192.404 7.26214 192.201 7.1893 191.925 7.1893H186.888C186.874 7.1893 186.859 7.21843 186.859 7.2767V14.8082ZM198.621 4.82935H206.155C207.156 4.82935 207.868 5.07699 208.289 5.54316C208.71 6.02389 208.927 6.75227 208.927 7.71373V8.54408C208.927 9.52011 208.637 10.2485 208.071 10.7584C208.695 11.2391 209 11.9966 209 13.0163V14.0215C209 14.4877 208.957 14.9101 208.869 15.2889C208.782 15.6531 208.637 15.9736 208.434 16.2358C208.231 16.498 207.955 16.7019 207.636 16.833C207.302 16.9787 206.895 17.0516 206.416 17.0516H198.621C198.403 17.0516 198.301 16.9205 198.301 16.6582V15.2889C198.301 15.0267 198.403 14.8956 198.621 14.8956H205.763C206.14 14.8956 206.416 14.8082 206.59 14.6333C206.765 14.4585 206.852 14.1963 206.852 13.8176V13.0018C206.852 12.6376 206.75 12.3608 206.576 12.1714C206.402 11.982 206.068 11.8801 205.574 11.8801H199.506C199.289 11.8801 199.172 11.749 199.172 11.5013V10.2631C199.172 10.0008 199.289 9.86974 199.506 9.86974H205.574C206.068 9.86974 206.387 9.78233 206.561 9.60752C206.75 9.41814 206.837 9.17049 206.837 8.83544V8.03422C206.837 7.65546 206.75 7.37868 206.576 7.21843C206.402 7.04362 206.126 6.97078 205.734 6.97078H198.621C198.403 6.97078 198.301 6.83967 198.301 6.57746V5.22267C198.301 4.96045 198.403 4.82935 198.621 4.82935Z" fill="white"/>
</g>
<defs>
<clipPath id="clip0_10_44893">
<rect width="209" height="22" fill="white"/>
</clipPath>
</defs>
</svg>
